<svg width="22" height="21" viewBox="0 0 22 21" fill="none" xmlns="http://www.w3.org/2000/svg">
<path fill-rule="evenodd" clip-rule="evenodd" d="M21.29 10.7387C21.29 9.99412 21.2231 9.27822 21.0991 8.59094H11.21V12.6525H16.8609C16.6175 13.965 15.8777 15.0771 14.7656 15.8216V18.4562H18.1591C20.1445 16.6282 21.29 13.9364 21.29 10.7387Z" fill="black"/>
<path fill-rule="evenodd" clip-rule="evenodd" d="M11.21 21C14.045 21 16.4218 20.0598 18.1591 18.4561L14.7657 15.8216C13.8254 16.4516 12.6227 16.8239 11.21 16.8239C8.47519 16.8239 6.16042 14.9768 5.33474 12.495H1.82678V15.2155C3.55451 18.647 7.10542 21 11.21 21Z" fill="black"/>
<path fill-rule="evenodd" clip-rule="evenodd" d="M5.33474 12.495C5.12474 11.865 5.00542 11.192 5.00542 10.5C5.00542 9.80796 5.12474 9.135 5.33474 8.505V5.78455H1.82678C1.11564 7.20205 0.709961 8.80568 0.709961 10.5C0.709961 12.1943 1.11564 13.798 1.82678 15.2155L5.33474 12.495Z" fill="black"/>
<path fill-rule="evenodd" clip-rule="evenodd" d="M11.21 4.17614C12.7516 4.17614 14.1357 4.70591 15.2238 5.74637L18.2354 2.73477C16.417 1.04046 14.0402 0 11.21 0C7.10542 0 3.55451 2.35296 1.82678 5.78455L5.33474 8.505C6.16042 6.02319 8.47519 4.17614 11.21 4.17614Z" fill="black"/>
</svg>
