<svg width="22" height="21" viewBox="0 0 22 21" fill="none" xmlns="http://www.w3.org/2000/svg">
<path d="M19.9498 0H2.05021C1.63907 0 1.24477 0.163325 0.954046 0.454046C0.663325 0.744766 0.5 1.13907 0.5 1.55021V19.4498C0.5 19.8609 0.663325 20.2552 0.954046 20.546C1.24477 20.8367 1.63907 21 2.05021 21H19.9498C20.3609 21 20.7552 20.8367 21.046 20.546C21.3367 20.2552 21.5 19.8609 21.5 19.4498V1.55021C21.5 1.13907 21.3367 0.744766 21.046 0.454046C20.7552 0.163325 20.3609 0 19.9498 0ZM6.75917 17.8894H3.60188V7.86042H6.75917V17.8894ZM5.17833 6.47063C4.82019 6.46861 4.47068 6.36055 4.17389 6.16008C3.87711 5.95961 3.64636 5.67571 3.51077 5.34423C3.37518 5.01274 3.34082 4.64852 3.41203 4.29752C3.48324 3.94653 3.65683 3.62449 3.91089 3.37206C4.16494 3.11963 4.48809 2.94811 4.83953 2.87915C5.19098 2.8102 5.55497 2.84689 5.88558 2.98461C6.21619 3.12233 6.4986 3.3549 6.69716 3.65296C6.89572 3.95103 7.00153 4.30123 7.00125 4.65938C7.00463 4.89915 6.9597 5.13716 6.86914 5.3592C6.77857 5.58125 6.64423 5.78279 6.47412 5.95181C6.30401 6.12083 6.10162 6.25387 5.879 6.34301C5.65637 6.43214 5.41809 6.47554 5.17833 6.47063ZM18.3967 17.8981H15.2408V12.4192C15.2408 10.8033 14.554 10.3046 13.6673 10.3046C12.731 10.3046 11.8123 11.0104 11.8123 12.46V17.8981H8.655V7.86771H11.6913V9.2575H11.7321C12.0369 8.64063 13.1044 7.58625 14.7333 7.58625C16.495 7.58625 18.3981 8.63188 18.3981 11.6944L18.3967 17.8981Z" fill="black"/>
</svg>
