<svg width="203" height="19" viewBox="0 0 203 19" fill="none" xmlns="http://www.w3.org/2000/svg">
<g clip-path="url(#clip0_1308_6432)">
<path d="M17.6597 11.0545L17.899 15.5023C17.5075 16.15 17.0073 16.7114 16.3548 17.2295C15.7024 17.7477 14.8977 18.158 13.9625 18.4818C13.0056 18.8057 11.8747 18.9568 10.5697 18.9568C8.4384 18.9568 6.58978 18.5466 5.00214 17.8125C3.41451 17.0568 2.17484 15.9773 1.30491 14.5955C0.434969 13.192 0 11.508 0 9.52159C0 7.53523 0.434969 5.91591 1.28316 4.5125C2.13135 3.10909 3.34926 2.02955 4.95865 1.25227C6.54628 0.518183 8.4384 0.129547 10.6567 0.129547C12.0486 0.129547 13.2883 0.259093 14.3975 0.539774C15.5066 0.820456 16.4201 1.14432 17.1813 1.55455V5.98068H16.9638C16.4853 4.275 15.7241 3.04432 14.6585 2.31023C13.5928 1.57614 12.3531 1.20909 10.9177 1.20909C9.48232 1.20909 8.32966 1.55455 7.35098 2.22387C6.35055 2.89318 5.58935 3.84318 5.04564 5.07386C4.50193 6.30455 4.24095 7.77273 4.24095 9.47841C4.24095 11.1841 4.50193 12.6739 5.00214 13.9045C5.52411 15.1568 6.2418 16.1068 7.19874 16.7977C8.15567 17.4886 9.26484 17.8557 10.548 17.8773C11.8964 17.8773 13.0273 17.6614 13.9408 17.2295C14.8542 16.7977 15.6154 16.0852 16.1808 15.0705C16.7463 14.0773 17.1595 12.717 17.4423 11.033H17.6597V11.0545Z" fill="#2A2A5F"/>
<path d="M22.4444 2.37501H22.3574C22.3574 1.9216 22.1617 1.53296 21.8572 1.23069C21.5527 0.928415 21.1395 0.755688 20.7045 0.755688H20.3566V0.496597H22.4444V2.3966V2.37501ZM22.4444 16.733V18.633H20.3566V18.3739H20.7045C21.1613 18.3739 21.5527 18.2227 21.8572 17.8989C22.1834 17.575 22.3574 17.1864 22.3574 16.7546H22.4444V16.733ZM26.2721 0.496597V18.633H22.3574V0.496597H26.2721ZM29.2952 0.496597C30.0781 0.496597 30.8393 0.582961 31.6005 0.755688C32.3617 0.928415 33.0142 1.2091 33.6014 1.57614C34.1886 1.96478 34.6453 2.46137 34.9933 3.08751C35.3412 3.71364 35.5152 4.46932 35.5152 5.39773C35.5152 6.13182 35.363 6.84432 35.0585 7.55682C34.754 8.26932 34.2973 8.89546 33.6666 9.39205C33.0359 9.91023 32.2312 10.2125 31.2308 10.3205C31.7963 10.4932 32.2965 10.7955 32.7532 11.2489C33.2099 11.7023 33.6014 12.1557 33.8841 12.5875C33.8841 12.6307 33.9928 12.7818 34.1886 13.0625C34.3843 13.3432 34.6018 13.6886 34.8628 14.0773C35.1238 14.4875 35.4065 14.8977 35.711 15.308C36.0155 15.7182 36.2764 16.0852 36.5157 16.3875C36.9071 16.8625 37.2551 17.2295 37.5596 17.5102C37.8641 17.7909 38.212 18.0068 38.56 18.1364C38.908 18.2659 39.2995 18.3307 39.7562 18.3523V18.6114H37.1899C36.2547 18.6114 35.4065 18.525 34.6235 18.3739C33.8624 18.2011 33.1882 17.9205 32.5792 17.5318C31.992 17.1432 31.47 16.6034 31.0351 15.9341C30.9046 15.7182 30.7523 15.4591 30.5783 15.1352C30.4044 14.8114 30.2521 14.4659 30.0781 14.1205C29.9041 13.7534 29.7302 13.408 29.5779 13.0625C29.4257 12.7171 29.2734 12.4148 29.1429 12.1341C29.0124 11.8534 28.9255 11.6375 28.882 11.4864C28.6645 10.925 28.3817 10.5148 28.0773 10.2341C27.7728 9.95341 27.4466 9.80228 27.0986 9.73751V9.47841H27.9033C28.3817 9.47841 28.8385 9.39205 29.2734 9.19773C29.7084 9.00342 30.1216 8.70114 30.4696 8.26932C30.8176 7.83751 31.0568 7.23296 31.209 6.47728C31.2525 6.32614 31.2743 6.13182 31.296 5.93751C31.3178 5.74319 31.3178 5.50569 31.296 5.2466C31.2525 3.99432 30.9263 3.08751 30.3609 2.50455C29.7954 1.9216 29.0777 1.61932 28.2295 1.61932C27.9903 1.61932 27.7293 1.61932 27.4248 1.61932C27.1421 1.61932 26.8811 1.61932 26.6419 1.61932H26.1634C26.1634 1.61932 26.1634 1.51137 26.0982 1.31705C26.0547 1.14432 25.9894 0.863642 25.9024 0.475006H29.2734L29.2952 0.496597ZM26.1852 16.733H26.2721C26.2721 17.1864 26.4461 17.575 26.7724 17.8773C27.0986 18.2011 27.4901 18.3523 27.9468 18.3523H28.2513V18.6114H26.1852V16.7114V16.733Z" fill="#2A2A5F"/>
<path d="M41.5395 0.496582V2.05113H41.4525C41.4525 1.66249 41.322 1.36022 41.0393 1.12272C40.7783 0.885218 40.4521 0.755673 40.0606 0.755673H39.6474V0.496582H41.5178H41.5395ZM45.3672 0.496582V11.8966C45.3672 13.1273 45.563 14.1852 45.9762 15.092C46.3894 15.9989 46.9766 16.6898 47.7161 17.1648C48.4773 17.6398 49.369 17.8989 50.4129 17.8989C51.4568 17.8989 52.392 17.6614 53.1749 17.2079C53.9579 16.7545 54.5451 16.1068 54.9583 15.2432C55.3715 14.4011 55.589 13.3864 55.589 12.242V0.496582H57.4594V12.0693C57.4594 13.4943 57.1549 14.7034 56.5677 15.7398C55.9587 16.7761 55.1105 17.575 53.9796 18.1364C52.8487 18.6977 51.5003 18.9784 49.9127 18.9784C48.0641 18.9784 46.5199 18.6977 45.2368 18.1364C43.9536 17.575 43.0184 16.7761 42.3877 15.7614C41.757 14.725 41.4308 13.5159 41.4308 12.0909V0.496582H45.3455H45.3672ZM47.1724 0.496582V0.755673H46.7591C46.3677 0.755673 46.0414 0.885218 45.7805 1.12272C45.5195 1.36022 45.3672 1.68408 45.3672 2.05113H45.3237V0.496582H47.1724ZM55.676 0.496582V2.05113H55.589C55.589 1.66249 55.4585 1.36022 55.1758 1.12272C54.9148 0.885218 54.5886 0.755673 54.1971 0.755673H53.7839V0.496582H55.6543H55.676ZM59.2862 0.496582V0.755673H58.873C58.4816 0.755673 58.1553 0.885218 57.8944 1.12272C57.6334 1.36022 57.4811 1.68408 57.4811 2.05113H57.4376V0.496582H59.2862Z" fill="#2A2A5F"/>
<path d="M60.4607 0C60.6347 0.0647727 60.8957 0.129545 61.2654 0.215909C61.6134 0.280682 62.0266 0.345455 62.4616 0.388636C62.8965 0.431818 63.288 0.475 63.6577 0.475L60.4824 0.755682V0H60.4607ZM77.1635 0.475V1.55455H60.4607V0.475H77.1635ZM63.3532 1.48977V1.57614C62.5485 1.57614 61.9178 1.83523 61.4394 2.31023C60.9609 2.78523 60.7217 3.43295 60.7217 4.23182V4.5125H60.4607V1.48977H63.3532ZM66.92 16.7545V18.6545H64.8321V18.3955H65.1801C65.6368 18.3955 66.0283 18.2443 66.3328 17.9205C66.659 17.5966 66.833 17.208 66.833 16.7761H66.92V16.7545ZM70.7477 0.582955V18.633H66.833V0.561364H70.7477V0.582955ZM70.6607 16.7545H70.7477C70.7477 17.208 70.9434 17.5966 71.2479 17.8989C71.5741 18.2227 71.9656 18.3739 72.4006 18.3739H72.7486V18.633H70.6607V16.733V16.7545ZM77.1418 0.0215909V0.777273L73.9665 0.496591C74.3579 0.496591 74.7494 0.475 75.1844 0.410227C75.6194 0.367045 76.0108 0.302273 76.3806 0.2375C76.7503 0.172727 77.0113 0.107955 77.1635 0.0215909H77.1418ZM77.1418 1.48977V4.55568H76.8808V4.25341C76.8808 3.43295 76.6415 2.80682 76.1631 2.33182C75.6846 1.85682 75.0322 1.61932 74.2275 1.59773V1.51136H77.1418V1.48977Z" fill="#2A2A5F"/>
<path d="M80.6867 2.37499H80.5997C80.5997 1.92158 80.404 1.53295 80.0995 1.23067C79.795 0.9284 79.3818 0.755673 78.9469 0.755673H78.5989V0.496582H80.6867V2.39658V2.37499ZM80.6867 16.7329V18.6329H78.5989V18.3739H78.9469C79.4036 18.3739 79.795 18.2227 80.0995 17.8989C80.4258 17.575 80.5997 17.1864 80.5997 16.7545H80.6867V16.7329ZM84.5145 0.496582V18.6329H80.5997V0.496582H84.5145ZM93.2138 9.04658V10.1693H84.2535V9.04658H93.2138ZM84.4492 2.39658V0.496582H86.5371V0.755673H86.1891C85.7324 0.755673 85.3409 0.906809 85.0364 1.23067C84.7102 1.55454 84.5362 1.94317 84.5362 2.37499H84.4492V2.39658ZM84.4492 16.7545H84.5362C84.5362 17.2079 84.7319 17.5966 85.0364 17.8989C85.3626 18.2227 85.7541 18.3739 86.1891 18.3739H86.5371V18.6329H84.4492V16.7329V16.7545ZM93.0616 2.39658H92.9746C92.9746 1.94317 92.8006 1.55454 92.4744 1.25226C92.1482 0.9284 91.7567 0.777264 91.3 0.777264H90.952V0.518173H93.0398V2.41817L93.0616 2.39658ZM93.0616 16.7545V18.6545H90.9737V18.3954H91.3217C91.7784 18.3954 92.1699 18.2443 92.4961 17.9204C92.8224 17.5966 92.9963 17.2079 92.9963 16.7761H93.0833L93.0616 16.7545ZM96.8893 0.518173V18.6545H92.9746V0.496582H96.8893V0.518173ZM96.8023 2.41817V0.496582H98.8902V0.755673H98.5422C98.0855 0.755673 97.694 0.906809 97.3895 1.23067C97.0633 1.55454 96.8893 1.94317 96.8893 2.37499H96.8023V2.41817ZM96.8023 16.7761H96.8893C96.8893 17.2295 97.0851 17.6182 97.3895 17.9204C97.694 18.2227 98.1072 18.3954 98.5422 18.3954H98.8902V18.6545H96.8023V16.7545V16.7761Z" fill="#2A2A5F"/>
<path d="M111.548 0.129547C113.636 0.129547 115.441 0.518183 116.985 1.27387C118.529 2.05114 119.725 3.13068 120.552 4.53409C121.4 5.9375 121.813 7.6 121.813 9.56477C121.813 11.5295 121.4 13.1705 120.552 14.5739C119.703 15.9773 118.507 17.0784 116.985 17.8341C115.441 18.6114 113.636 18.9784 111.548 18.9784C109.46 18.9784 107.655 18.5898 106.111 17.8341C104.567 17.0568 103.392 15.9773 102.544 14.5739C101.718 13.1705 101.283 11.508 101.283 9.54318C101.283 7.57841 101.696 5.9375 102.544 4.53409C103.37 3.13068 104.567 2.02955 106.111 1.27387C107.655 0.496592 109.46 0.129547 111.548 0.129547ZM111.548 17.8989C112.787 17.8989 113.853 17.5534 114.723 16.8841C115.615 16.1932 116.289 15.2432 116.789 13.9909C117.268 12.7386 117.529 11.2705 117.529 9.56477C117.529 7.85909 117.289 6.36932 116.789 5.13864C116.289 3.90796 115.615 2.93636 114.723 2.24546C113.831 1.55455 112.766 1.23068 111.548 1.23068C110.33 1.23068 109.264 1.57614 108.373 2.24546C107.481 2.91477 106.785 3.88637 106.306 5.13864C105.828 6.39091 105.567 7.85909 105.567 9.56477C105.567 11.2705 105.806 12.7602 106.306 13.9909C106.785 15.2432 107.481 16.1932 108.373 16.8841C109.264 17.575 110.33 17.8989 111.548 17.8989Z" fill="#2A2A5F"/>
<path d="M126.141 2.37499H126.054C126.054 1.92158 125.858 1.53295 125.554 1.23067C125.249 0.9284 124.836 0.755673 124.401 0.755673H124.053V0.496582H126.141V2.39658V2.37499ZM126.141 16.7329V18.6329H124.053V18.3739H124.401C124.858 18.3739 125.249 18.2227 125.554 17.8989C125.88 17.575 126.054 17.1864 126.054 16.7545H126.141V16.7329ZM129.969 0.496582V18.6329H126.054V0.496582H129.969ZM129.882 2.39658V0.496582H131.97V0.755673H131.622C131.165 0.755673 130.773 0.906809 130.469 1.23067C130.143 1.55454 129.969 1.94317 129.969 2.37499H129.882V2.39658ZM136.841 17.5318L137.472 18.6545H129.882V17.5318H136.841ZM138.755 13.3432L137.559 18.6545H132.448L133.383 17.5318C134.253 17.5318 135.014 17.3591 135.689 17.0352C136.341 16.6898 136.906 16.2148 137.385 15.5886C137.863 14.9625 138.233 14.2068 138.516 13.3432H138.777H138.755Z" fill="#2A2A5F"/>
<path d="M150.586 0.129547C152.674 0.129547 154.479 0.518183 156.023 1.27387C157.568 2.05114 158.764 3.13068 159.59 4.53409C160.438 5.9375 160.852 7.6 160.852 9.56477C160.852 11.5295 160.438 13.1705 159.59 14.5739C158.742 15.9773 157.546 17.0784 156.023 17.8341C154.479 18.6114 152.674 18.9784 150.586 18.9784C148.498 18.9784 146.693 18.5898 145.149 17.8341C143.605 17.0568 142.431 15.9773 141.582 14.5739C140.756 13.1705 140.321 11.508 140.321 9.54318C140.321 7.57841 140.734 5.9375 141.582 4.53409C142.409 3.13068 143.605 2.02955 145.149 1.27387C146.693 0.496592 148.498 0.129547 150.586 0.129547ZM150.586 17.8989C151.826 17.8989 152.892 17.5534 153.762 16.8841C154.653 16.1932 155.327 15.2432 155.828 13.9909C156.306 12.7386 156.567 11.2705 156.567 9.56477C156.567 7.85909 156.328 6.36932 155.828 5.13864C155.327 3.90796 154.653 2.93636 153.762 2.24546C152.87 1.55455 151.804 1.23068 150.586 1.23068C149.368 1.23068 148.303 1.57614 147.411 2.24546C146.519 2.91477 145.823 3.88637 145.345 5.13864C144.866 6.39091 144.605 7.85909 144.605 9.56477C144.605 11.2705 144.845 12.7602 145.345 13.9909C145.823 15.2432 146.519 16.1932 147.411 16.8841C148.303 17.575 149.368 17.8989 150.586 17.8989Z" fill="#2A2A5F"/>
<path d="M181.687 11.3784V15.6534C181.273 16.1716 180.643 16.6898 179.816 17.2079C178.99 17.7261 178.011 18.1579 176.858 18.4818C175.706 18.8273 174.423 18.9784 173.031 18.9784C171.052 18.9784 169.312 18.5898 167.833 17.8341C166.354 17.0568 165.201 15.9773 164.396 14.5523C163.592 13.1273 163.179 11.4648 163.179 9.52158C163.179 7.57839 163.592 5.91589 164.396 4.51249C165.201 3.10908 166.354 2.02953 167.876 1.25226C169.377 0.474986 171.16 0.107941 173.205 0.107941C174.162 0.107941 175.097 0.172713 175.988 0.302259C176.902 0.431804 177.728 0.604532 178.489 0.79885C179.251 1.01476 179.881 1.25226 180.403 1.53294L180.447 5.95908H180.208C179.881 4.79317 179.403 3.84317 178.772 3.15226C178.142 2.46135 177.424 1.94317 176.597 1.6409C175.771 1.33862 174.901 1.18749 173.966 1.18749C172.552 1.18749 171.356 1.53294 170.377 2.20226C169.399 2.89317 168.659 3.86476 168.159 5.11703C167.659 6.3693 167.42 7.88067 167.42 9.65112C167.42 11.3136 167.659 12.7602 168.115 13.9909C168.572 15.2216 169.246 16.1716 170.138 16.8409C171.03 17.5102 172.095 17.8557 173.379 17.8557C174.031 17.8557 174.64 17.7477 175.249 17.5534C175.858 17.3591 176.38 17.0568 176.837 16.6898C177.293 16.3011 177.62 15.8477 177.794 15.2863V11.3136C177.815 10.5363 177.38 10.1477 176.489 10.1477H176.075V9.88862H183.405V10.1477H183.013C182.1 10.1477 181.665 10.5363 181.708 11.3136L181.687 11.3784Z" fill="#2A2A5F"/>
<path d="M190.386 2.35342L185.971 2.26705C185.732 1.87841 185.362 1.51137 184.905 1.2091C184.427 0.906824 183.927 0.734097 183.361 0.734097H182.991V0.475006H191.626V0.734097H191.278C190.886 0.734097 190.603 0.906824 190.408 1.27387C190.212 1.64092 190.19 1.98637 190.364 2.35342H190.386ZM189.364 0.518188L194.714 10.1477L191.017 10.5148L184.905 0.518188H189.364ZM191.017 16.733V18.633H188.929V18.3739H189.277C189.733 18.3739 190.125 18.2227 190.429 17.8989C190.756 17.575 190.93 17.1864 190.93 16.7546H191.017V16.733ZM194.844 10.2773V18.6114H190.93V10.2773H194.844ZM199.042 0.518188H201.086L194.583 10.7955L193.257 10.5364L199.042 0.518188ZM194.757 16.733H194.844C194.844 17.1864 195.018 17.575 195.345 17.8773C195.671 18.2011 196.062 18.3523 196.519 18.3523H196.823V18.6114H194.757V16.7114V16.733ZM197.976 2.35342C198.128 2.11592 198.172 1.85682 198.107 1.61932C198.041 1.36023 197.911 1.16592 197.715 0.993188C197.519 0.820461 197.302 0.755688 197.063 0.755688H196.758V0.496597H203V0.755688H202.63C202.087 0.755688 201.586 0.906824 201.108 1.23069C200.629 1.53296 200.26 1.90001 199.999 2.28864L197.998 2.37501L197.976 2.35342Z" fill="#2A2A5F"/>
</g>
<defs>
<clipPath id="clip0_1308_6432">
<rect width="203" height="19" fill="white"/>
</clipPath>
</defs>
</svg>
