<svg width="63" height="55" viewBox="0 0 63 55" fill="none" xmlns="http://www.w3.org/2000/svg">
<g clip-path="url(#clip0_93_266)">
<path d="M31.2271 33.0099C34.2701 33.0099 36.7369 30.543 36.7369 27.5C36.7369 24.4571 34.2701 21.9902 31.2271 21.9902C28.1841 21.9902 25.7173 24.4571 25.7173 27.5C25.7173 30.543 28.1841 33.0099 31.2271 33.0099Z" fill="#61DAFB"/>
<path d="M31.2271 38.7885C47.5553 38.7885 60.792 33.7345 60.792 27.5001C60.792 21.2657 47.5553 16.2117 31.2271 16.2117C14.8989 16.2117 1.66223 21.2657 1.66223 27.5001C1.66223 33.7345 14.8989 38.7885 31.2271 38.7885Z" stroke="#61DAFB"/>
<path d="M21.451 33.1443C29.6152 47.2849 40.6104 56.2212 46.0095 53.104C51.4087 49.9868 49.1672 35.9965 41.0031 21.8559C32.839 7.71522 21.8438 -1.22105 16.4447 1.89615C11.0455 5.01336 13.2869 19.0036 21.451 33.1443Z" stroke="#61DAFB"/>
<path d="M21.4511 21.8558C13.287 35.9965 11.0455 49.9867 16.4447 53.1039C21.8438 56.2211 32.839 47.2849 41.0032 33.1442C49.1673 19.0035 51.4087 5.01329 46.0095 1.89608C40.6104 -1.22112 29.6152 7.71515 21.4511 21.8558Z" stroke="#61DAFB"/>
</g>
<defs>
<clipPath id="clip0_93_266">
<rect width="61.8174" height="55" fill="white" transform="translate(0.318359)"/>
</clipPath>
</defs>
</svg>
