<svg width="54" height="55" viewBox="0 0 54 55" fill="none" xmlns="http://www.w3.org/2000/svg">
<g clip-path="url(#clip0_92_253)">
<path d="M31.5561 53.678C30.1643 55.4307 27.3424 54.4704 27.3088 52.2324L26.8185 19.4995H48.828C52.8146 19.4995 55.0379 24.104 52.559 27.2261L31.5561 53.678Z" fill="url(#paint0_linear_92_253)"/>
<path d="M31.5561 53.678C30.1643 55.4307 27.3424 54.4704 27.3088 52.2324L26.8185 19.4995H48.828C52.8146 19.4995 55.0379 24.104 52.559 27.2261L31.5561 53.678Z" fill="url(#paint1_linear_92_253)" fill-opacity="0.2"/>
<path d="M22.6049 1.00802C23.9967 -0.744874 26.8188 0.215585 26.8523 2.45358L27.0672 35.1865H5.33306C1.34641 35.1865 -0.877015 30.582 1.602 27.4598L22.6049 1.00802Z" fill="#3ECF8E"/>
</g>
<defs>
<linearGradient id="paint0_linear_92_253" x1="26.8185" y1="26.7572" x2="46.3798" y2="34.9612" gradientUnits="userSpaceOnUse">
<stop stop-color="#249361"/>
<stop offset="1" stop-color="#3ECF8E"/>
</linearGradient>
<linearGradient id="paint1_linear_92_253" x1="18.146" y1="14.8831" x2="27.067" y2="31.6764" gradientUnits="userSpaceOnUse">
<stop/>
<stop offset="1" stop-opacity="0"/>
</linearGradient>
<clipPath id="clip0_92_253">
<rect width="53.0531" height="55" fill="white" transform="translate(0.548004)"/>
</clipPath>
</defs>
</svg>
