<svg width="56" height="55" viewBox="0 0 56 55" fill="none" xmlns="http://www.w3.org/2000/svg">
<path d="M41.0884 14.1677C42.5515 14.5081 43.881 15.2742 44.9092 16.3694C45.4755 16.9622 45.9673 17.6219 46.3735 18.334C46.3924 18.4113 43.737 20.1954 42.1265 21.1905C42.0681 21.2301 41.836 20.9774 41.5731 20.589C41.2789 20.0833 40.8613 19.6604 40.3593 19.3598C39.8574 19.0592 39.2874 18.8908 38.7027 18.8702C36.8517 18.743 35.6588 19.7124 35.6674 21.3332C35.6514 21.7314 35.7422 22.1266 35.9304 22.4779C36.3377 23.3201 37.094 23.8254 39.4693 24.8549C43.8418 26.7369 45.7187 27.9779 46.8771 29.7413C47.5319 30.8555 47.9352 32.0994 48.0587 33.3859C48.1822 34.6723 48.023 35.9702 47.5921 37.1886C47 38.5249 46.061 39.6782 44.8726 40.529C43.6842 41.3798 42.2898 41.897 40.834 42.0269C39.2866 42.2044 37.723 42.1883 36.1796 41.9788C33.8155 41.5903 31.6376 40.4556 29.9646 38.7407C29.3325 38.0289 28.7973 37.2365 28.3731 36.3843C28.5514 36.2516 28.7393 36.1321 28.9351 36.0268C29.2067 35.8721 30.2345 35.2808 31.2038 34.7188L32.9638 33.6876L33.3317 34.2238C33.9512 35.1097 34.7397 35.8644 35.652 36.4444C36.5733 36.9498 37.6168 37.1892 38.6663 37.1361C39.7158 37.083 40.7298 36.7394 41.5954 36.1436C42.0419 35.7085 42.321 35.13 42.3839 34.5097C42.4467 33.8894 42.2893 33.2667 41.9392 32.7508C41.4648 32.0719 40.4954 31.5013 37.7402 30.3068C35.5799 29.5783 33.6121 28.3709 31.9842 26.7747C31.2089 25.8912 30.6363 24.8488 30.3067 23.7205C30.0629 22.4352 30.0269 21.1191 30.2001 19.8224C30.5235 18.3302 31.2979 16.9736 32.4182 15.9363C33.5385 14.899 34.9506 14.2312 36.4632 14.0233C38.0035 13.8393 39.5626 13.888 41.0884 14.1677ZM26.7488 16.7166L26.7677 19.2157H18.8099V41.8138H13.1982V19.2208H5.24041V16.7665C5.21924 15.9259 5.24219 15.0849 5.30916 14.2468C5.33837 14.2072 10.1767 14.1883 16.0427 14.1986L26.7179 14.2279L26.7488 16.7166Z" fill="#007ACC"/>
</svg>
