<svg width="26" height="26" viewBox="0 0 26 26" fill="none" xmlns="http://www.w3.org/2000/svg">
<path d="M14.5417 16.0429C14.5684 16.0695 14.5684 16.0962 14.5417 16.1229C14.5417 16.2029 14.5151 16.2829 14.4617 16.3629C14.4351 16.4429 14.4084 16.5362 14.3817 16.6429C14.3017 16.8295 14.2217 17.0029 14.1417 17.1629C13.9017 17.6962 13.6484 18.2162 13.3817 18.7229C13.1151 19.2295 12.8484 19.7362 12.5817 20.2429C12.2884 20.9095 11.8351 21.5629 11.2217 22.2029C10.6351 22.8162 9.92838 22.9629 9.10172 22.6429C8.48838 22.3229 8.00838 21.8295 7.66172 21.1629C7.34172 20.4962 7.10172 19.8562 6.94172 19.2429C6.56838 17.7762 6.38172 16.2962 6.38172 14.8029C6.30172 10.4829 6.80838 6.98952 7.90172 4.32286C8.27505 3.30952 8.79505 2.38952 9.46172 1.56286C9.83505 1.08286 10.3017 0.816189 10.8617 0.762857C11.5551 0.922856 11.9951 1.34952 12.1817 2.04286C12.2617 2.46952 12.2884 2.89619 12.2617 3.32286C12.1284 5.10952 11.4484 7.40286 10.2217 10.2029C9.18172 12.5495 8.30172 14.2829 7.58172 15.4029L7.18172 16.0029L7.30172 17.0829C7.38172 18.2295 7.63505 19.3229 8.06172 20.3629C8.70172 22.1495 9.56838 22.7095 10.6617 22.0429C11.3017 21.8829 12.2217 20.5629 13.4217 18.0829C13.5284 17.8429 13.6484 17.6029 13.7817 17.3629C13.8884 17.1495 13.9951 16.9229 14.1017 16.6829C14.1817 16.5495 14.2484 16.4162 14.3017 16.2829C14.3551 16.2029 14.3951 16.1362 14.4217 16.0829C14.4751 16.0562 14.5151 16.0429 14.5417 16.0429ZM7.14172 13.3229L7.10172 15.6429L7.30172 15.4029C7.46172 15.1895 7.78172 14.6029 8.26172 13.6429C9.83505 10.5762 10.8884 7.97619 11.4217 5.84286C11.6617 4.93619 11.8217 4.01619 11.9017 3.08286C12.0084 2.38952 11.8484 1.80286 11.4217 1.32286C11.0217 1.08286 10.6217 1.16286 10.2217 1.56286C9.82172 1.93619 9.52838 2.29619 9.34172 2.64286C8.56838 4.05619 8.03505 5.56286 7.74172 7.16286C7.39505 8.78952 7.19505 10.8429 7.14172 13.3229Z" fill="white"/>
<path d="M19.7598 16.8829C20.0265 16.4829 20.1998 16.2695 20.2798 16.2429C20.3598 16.1895 20.2932 16.3762 20.0798 16.8029C18.8265 18.9095 17.6265 20.0029 16.4798 20.0829H16.1198L16.3198 20.3629C16.9598 21.4829 17.2398 22.7362 17.1598 24.1229C16.8932 25.6162 16.3598 25.9895 15.5598 25.2429C14.7598 24.3095 14.2665 22.2162 14.0798 18.9629C13.9465 13.4162 14.7465 8.09619 16.4798 3.00286C16.6932 2.38952 16.9732 1.78952 17.3198 1.20286C17.6132 0.61619 18.0532 0.216191 18.6398 0.00285708C19.0132 -0.0238092 19.3065 0.13619 19.5198 0.482856C19.7598 0.802856 19.9065 1.12286 19.9598 1.44286C20.0665 2.24286 20.0532 3.02952 19.9198 3.80286C19.7598 4.84286 19.5465 5.86952 19.2798 6.88286C18.6132 9.28286 17.8265 11.4829 16.9198 13.4829C16.2798 14.7362 15.6398 15.8162 14.9998 16.7229C14.8665 16.8562 14.7865 16.9895 14.7598 17.1229C14.7332 17.2562 14.7198 17.5229 14.7198 17.9229V18.7629L15.0398 18.9629C15.2265 19.1229 15.4265 19.2829 15.6398 19.4429C15.8265 19.6562 16.0798 19.7495 16.3998 19.7229C17.5198 19.7229 18.6398 18.7762 19.7598 16.8829ZM14.7598 15.5629L14.7198 16.6429L15.1598 16.0029C15.4532 15.5495 15.7598 15.0295 16.0798 14.4429C16.3998 13.9095 16.7065 13.2829 16.9998 12.5629C17.3198 11.8162 17.6132 11.0429 17.8798 10.2429C18.4665 8.61619 18.9465 6.96286 19.3198 5.28286C19.4532 4.58952 19.5598 3.88286 19.6398 3.16286C19.6932 2.73619 19.7065 2.26952 19.6798 1.76286C19.6532 1.25619 19.4798 0.842857 19.1598 0.522858C18.8398 0.33619 18.5465 0.41619 18.2798 0.762857C17.4798 1.56286 16.7465 3.40286 16.0798 6.28286C15.4132 9.13619 14.9732 12.2295 14.7598 15.5629ZM16.5598 21.8029C16.2665 20.8962 15.9465 20.2829 15.5998 19.9629C15.4665 19.8829 15.3065 19.7762 15.1198 19.6429L14.7998 19.4029V19.8829C14.9598 21.9095 15.3332 23.5895 15.9198 24.9229C16.0532 25.1895 16.1998 25.2162 16.3598 25.0029C16.8132 24.3095 16.8798 23.2429 16.5598 21.8029Z" fill="white"/>
</svg>
