<?xml version="1.0" encoding="UTF-8"?>
<svg id="Layer_2" data-name="Layer 2" xmlns="http://www.w3.org/2000/svg" viewBox="0 0 129.39 172">
  <defs>
    <style>
      .cls-1 {
        stroke: #f8aa94;
      }

      .cls-1, .cls-2, .cls-3, .cls-4, .cls-5, .cls-6, .cls-7, .cls-8, .cls-9, .cls-10, .cls-11, .cls-12, .cls-13, .cls-14, .cls-15, .cls-16, .cls-17, .cls-18, .cls-19, .cls-20, .cls-21, .cls-22, .cls-23, .cls-24, .cls-25, .cls-26, .cls-27, .cls-28, .cls-29, .cls-30, .cls-31, .cls-32, .cls-33, .cls-34, .cls-35, .cls-36, .cls-37, .cls-38, .cls-39, .cls-40, .cls-41, .cls-42, .cls-43, .cls-44, .cls-45, .cls-46, .cls-47, .cls-48, .cls-49, .cls-50, .cls-51, .cls-52, .cls-53, .cls-54, .cls-55, .cls-56 {
        fill: none;
        stroke-width: 2px;
      }

      .cls-2 {
        stroke: #a61f5d;
      }

      .cls-3 {
        stroke: #ef424e;
      }

      .cls-4 {
        stroke: #fbbd8f;
      }

      .cls-5 {
        stroke: #522767;
      }

      .cls-6 {
        stroke: #8d2654;
      }

      .cls-7 {
        stroke: #974552;
      }

      .cls-8 {
        stroke: #9b8f99;
      }

      .cls-9 {
        stroke: #f7ac9a;
      }

      .cls-57 {
        fill: #2b2b60;
      }

      .cls-58 {
        fill: #de284d;
      }

      .cls-59 {
        fill: #f68746;
      }

      .cls-10 {
        stroke: #9b4481;
      }

      .cls-11 {
        stroke: #912754;
      }

      .cls-60 {
        fill: #ee2448;
      }

      .cls-61 {
        fill: #ee284a;
      }

      .cls-12 {
        stroke: #c34d5c;
      }

      .cls-13 {
        stroke: #8f4657;
      }

      .cls-62 {
        fill: #2a2a5f;
      }

      .cls-63 {
        fill: #f5843f;
      }

      .cls-14 {
        stroke: #8b4c5b;
      }

      .cls-64 {
        fill: #2e285d;
      }

      .cls-15 {
        stroke: #978e9f;
      }

      .cls-16 {
        stroke: #a11e5b;
      }

      .cls-17 {
        stroke: #41276a;
      }

      .cls-18 {
        stroke: #5b266c;
      }

      .cls-65 {
        fill: #bc6592;
      }

      .cls-19 {
        stroke: #c285ae;
      }

      .cls-20 {
        stroke: #935951;
      }

      .cls-21 {
        stroke: #95584e;
      }

      .cls-22 {
        stroke: #964858;
      }

      .cls-23 {
        stroke: #998e9b;
      }

      .cls-24 {
        stroke: #f4ae96;
      }

      .cls-66 {
        fill: #ee2449;
      }

      .cls-25 {
        stroke: #f8aa95;
      }

      .cls-26 {
        stroke: #f8ab95;
      }

      .cls-27 {
        stroke: #f9ac96;
      }

      .cls-67 {
        fill: #f16046;
      }

      .cls-28 {
        stroke: #9d464c;
      }

      .cls-29 {
        stroke: #958e9b;
      }

      .cls-30 {
        stroke: #da636c;
      }

      .cls-31 {
        stroke: #944552;
      }

      .cls-32 {
        stroke: #58276d;
      }

      .cls-33 {
        stroke: #a04250;
      }

      .cls-34 {
        stroke: #9c2251;
      }

      .cls-35 {
        stroke: #852956;
      }

      .cls-36 {
        stroke: #934552;
      }

      .cls-68 {
        fill: #e96c56;
      }

      .cls-69 {
        fill: #e92142;
      }

      .cls-37 {
        stroke: #744879;
      }

      .cls-38 {
        stroke: #f48a92;
      }

      .cls-70 {
        fill: #352954;
      }

      .cls-39 {
        stroke: #adc1e2;
      }

      .cls-40 {
        stroke: #978fa0;
      }

      .cls-71 {
        fill: #85267a;
      }

      .cls-41 {
        stroke: #9f8a9e;
      }

      .cls-42 {
        stroke: #bb8ca9;
      }

      .cls-72 {
        fill: #fcf6e5;
      }

      .cls-73 {
        fill: #fef1d9;
      }

      .cls-43 {
        stroke: #954653;
      }

      .cls-44 {
        stroke: #a45591;
      }

      .cls-45 {
        stroke: #9490a1;
      }

      .cls-46 {
        stroke: #445ca1;
      }

      .cls-47 {
        stroke: #948fa0;
      }

      .cls-48 {
        stroke: #948e9c;
      }

      .cls-49 {
        stroke: #998f9d;
      }

      .cls-74 {
        fill: #592872;
      }

      .cls-50 {
        stroke: #9590a2;
      }

      .cls-51 {
        stroke: #924553;
      }

      .cls-75 {
        fill: #fcf5e3;
      }

      .cls-52 {
        stroke: #8a2450;
      }

      .cls-76 {
        fill: #3a2951;
      }

      .cls-53 {
        stroke: #b81e5e;
      }

      .cls-54 {
        stroke: #dcaeba;
      }

      .cls-55 {
        stroke: #f3b19c;
      }

      .cls-77 {
        fill: #78256f;
      }

      .cls-78 {
        fill: #f16249;
      }

      .cls-79 {
        fill: #6489c6;
      }

      .cls-56 {
        stroke: #8f2553;
      }

      .cls-80 {
        fill: #f1624f;
      }

      .cls-81 {
        fill: #412159;
      }
    </style>
  </defs>
  <g id="Pin">
    <g>
      <path class="cls-62" d="m28.64,118.1l72.98-.19s-33,25.51-36.36,54.1c-4.99-28.8-36.62-53.9-36.62-53.9Z"/>
      <path class="cls-19" d="m24.28,18.01c-4.54,3.95-8.53,8.65-11.94,14.11-.79,1.26-1.33,2.23-1.61,2.9" vector-effect="non-scaling-stroke"/>
      <path class="cls-4" d="m10.73,35.02c-.18.12-.33.32-.48.59-5.16,9.78-7.55,20.18-7.16,31.2.35,9.99,2.94,19.34,7.78,28.05" vector-effect="non-scaling-stroke"/>
      <path class="cls-47" d="m10.87,94.87c.33.71.89,1.68,1.68,2.9,3.88,6,8.49,11.12,13.85,15.38" vector-effect="non-scaling-stroke"/>
      <path class="cls-25" d="m26.4,113.15c1.97,1.65,4.07,3.14,6.29,4.45" vector-effect="non-scaling-stroke"/>
      <path class="cls-15" d="m32.68,117.6l1.41.92" vector-effect="non-scaling-stroke"/>
      <path class="cls-25" d="m34.1,118.52c.35.26.73.44,1.15.54.08.02.18,0,.26-.05,1.77-1.08,3.21-2.41,4.31-3.97,1.05-1.49,2.17-3.34,3.35-5.55,1.52-2.83,3.74-5.69,6.67-8.59,1.35-1.34,2.4-2.82,3.13-4.43.41-.9.17-1.49-.71-1.75" vector-effect="non-scaling-stroke"/>
      <path class="cls-8" d="m52.26,94.73c1.51-.34,2.74.12,3.67,1.39.15.21.25.19.29-.07.18-1.11-.26-1.91-1.32-2.39-.66-.3-1.44-.39-2.36-.28-1.25.15-2.5.32-3.74.51" vector-effect="non-scaling-stroke"/>
      <path class="cls-25" d="m48.8,93.88c-.09-.08-.09-.14,0-.16.05-.01.09-.03.11-.04,3.31-1.89,5.75-4.59,7.31-8.07.03-.08.1-.1.19-.07" vector-effect="non-scaling-stroke"/>
      <path class="cls-47" d="m56.42,85.54c1.15,4.43,1.81,7.12,1.99,8.05.22,1.15.51,2.14.88,2.96.15.33.33.57.54.71.31.2.63.24.96.11.37-.15.58-.45.64-.91.06-.41,0-.82-.14-1.24-1.46-4.01-2.8-8.06-4.03-12.15" vector-effect="non-scaling-stroke"/>
      <path class="cls-41" d="m57.26,83.06l-.4-1.2" vector-effect="non-scaling-stroke"/>
      <path class="cls-25" d="m56.86,81.86l.14-.08c.07-.04.11-.12.11-.23-.08-3.32-.25-6.63-.52-9.94-.23-2.78.31-5.27,1.62-7.47.15-.25.22-.44.19-.57" vector-effect="non-scaling-stroke"/>
      <path class="cls-47" d="m58.41,63.58c1.2-.96,2.23-2.07,3.11-3.34" vector-effect="non-scaling-stroke"/>
      <path class="cls-26" d="m61.51,60.24c1.11,0,2.02.2,2.74.59,1.92,1.05,3.88,2.01,5.88,2.89" vector-effect="non-scaling-stroke"/>
      <path class="cls-47" d="m70.13,63.72c-.4.48-.67.95-.83,1.42-.91,2.69-.9,5.42,0,8.18.72,2.19,2.06,3.9,4.02,5.13,1.25.79,2.31,1.31,3.16,1.58,4.58,1.43,9.26,2.61,14.07,3.56.11.02.11.06.01.1-5.43,2.83-10.85,5.71-16.26,8.64-.16.08-.15.13,0,.12.03,0,.06,0,.08-.01,5.53-1.95,11.05-3.92,16.56-5.91" vector-effect="non-scaling-stroke"/>
      <path class="cls-25" d="m90.97,86.54c-.13,1.42-.11,2.83.06,4.24.06.48-.13.92-.58,1.31-.52.45-1.12,1.21-1.81,2.27-.6.92-1.06,1.76-1.38,2.54-1.09,2.64-1.25,5.32-.47,8.03.35,1.24.94,2.53,1.77,3.87.75,1.21,1.61,2.35,2.58,3.42,1.53,1.67,3.14,3.24,4.83,4.74.02.01.14.14.37.4.32.34.65.29.99-.16" vector-effect="non-scaling-stroke"/>
      <path class="cls-47" d="m97.33,117.18c2.29-1.41,4.43-3.01,6.43-4.8" vector-effect="non-scaling-stroke"/>
      <path class="cls-1" d="m103.76,112.38c.85-.54,1.66-1.26,2.43-2.15.08-.1.1-.24.05-.35-1.58-3.16-3.59-5.95-6.03-8.37-1.46-1.45-2.84-2.96-4.14-4.55-.47-.57-.74-1.23-.8-1.96-.08-.87-.3-1.7-.68-2.49-.29-.6-.46-1.34-.51-2.23" vector-effect="non-scaling-stroke"/>
      <path class="cls-47" d="m94.07,90.28c.61-.26,1.24-.39,1.91-.39.22,0,.26-.09.13-.26" vector-effect="non-scaling-stroke"/>
      <path class="cls-9" d="m96.11,89.63c.06-.46.01-.9-.14-1.34-.31-.85-.54-1.72-.69-2.61" vector-effect="non-scaling-stroke"/>
      <path class="cls-47" d="m95.27,85.69c.76-.28,1.54-.31,2.33-.09" vector-effect="non-scaling-stroke"/>
      <path class="cls-26" d="m97.61,85.6c.43.1.67-.04.71-.41.06-.54-.13-1.11-.56-1.7-.32-.44-.63-.88-.93-1.33-.17-.26-.17-.52,0-.77" vector-effect="non-scaling-stroke"/>
      <path class="cls-47" d="m96.83,81.38c.76-.4,1.55-.44,2.36-.14.54.21,1.06.38,1.55.53.09.03.17.08.23.16.22.26.38.42.49.5.24.18.25.08.03-.28-.19-.3-.4-.59-.64-.85" vector-effect="non-scaling-stroke"/>
      <path class="cls-9" d="m100.84,81.3c-1.1-1.63-2.4-3.05-3.9-4.28-.27-.22-1.05-.74-2.35-1.56-1.4-.88-2.63-1.97-3.7-3.26" vector-effect="non-scaling-stroke"/>
      <path class="cls-47" d="m90.9,72.2c-.2-.48-.12-.57.23-.29.08.07.15.12.21.15,1.1.65,2.26,1.19,3.46,1.61,1.23.43,1.95.7,2.18.81.7.34,1.36.74,1.99,1.22,1.16.88,2.24,1.85,3.22,2.91.78.84,1.66,1.98,2.65,3.42,3.99,5.85,7.2,12.14,9.61,18.86.04.1.09.11.15.02,1.29-1.84,2.5-3.76,3.64-5.76" vector-effect="non-scaling-stroke"/>
      <path class="cls-39" d="m118.24,95.14c2.23-3.69,3.97-7.6,5.23-11.72" vector-effect="non-scaling-stroke"/>
      <path class="cls-38" d="m123.47,83.42c1.69-5.06,2.63-10.45,2.81-16.17.43-13.37-2.9-25.46-10-36.29-1.03-1.57-2.13-3.09-3.31-4.57-4.58-5.73-9.93-10.5-16.05-14.32-7.67-4.79-16.04-7.69-25.11-8.7-1.82-.2-3.7-.32-5.63-.36-15.85-.32-29.82,4.68-41.9,15.02" vector-effect="non-scaling-stroke"/>
      <path class="cls-44" d="m123.47,83.42c-1.2-6.16-2.88-12.18-5.04-18.06-.03-.08-.14-.3-.32-.65" vector-effect="non-scaling-stroke"/>
      <path class="cls-52" d="m118.1,64.7c-1.81-4.41-3.96-8.65-6.45-12.71" vector-effect="non-scaling-stroke"/>
      <path class="cls-16" d="m111.65,51.99l-.08-2.24c0-.09-.06-.16-.14-.18-.43-.1-.78-.12-1.05-.05-.34.08-.6.04-.77-.14" vector-effect="non-scaling-stroke"/>
      <path class="cls-52" d="m109.62,49.37c-3.43-4.99-7.38-9.51-11.85-13.58-3.24-2.95-6.66-5.68-10.25-8.19-.32-.22-.49-.53-.52-.91-.16-1.99,0-3.98.49-5.99.19-.79.31-1.36.37-1.71.11-.72.18-1.3.21-1.75.22-3.65-1.02-6.52-3.74-8.62-2.28-1.76-4.87-2.71-7.77-2.84-2-.09-3.81.43-5.43,1.56-.08.05-.17.07-.26.05-2.04-.45-4.08-.71-6.11-.78-1.75-.06-3.63.05-5.63.34-8.12,1.16-15.31,4.47-21.56,9.94" vector-effect="non-scaling-stroke"/>
      <path class="cls-53" d="m37.57,16.89c-.82.08-1.65.12-2.47.14-3.47.05-6.89.5-10.25,1.34-.36.09-.55-.03-.57-.36" vector-effect="non-scaling-stroke"/>
      <path class="cls-17" d="m109.62,49.37l-.22.36" vector-effect="non-scaling-stroke"/>
      <path class="cls-56" d="m109.4,49.74l-2.6-.07c-.07,0-.14.06-.14.14,0,0,0,0,0,0l-.02,31.93c0,.3.1.61.3.93l2.4,3.85" vector-effect="non-scaling-stroke"/>
      <path class="cls-17" d="m109.34,86.53c.51,1.15,1.1,2.25,1.77,3.3.27.42.4.4.41-.05.03-12.17,0-24.33-.07-36.5,0-.01-.03-.21-.1-.58-.05-.27.05-.51.3-.71" vector-effect="non-scaling-stroke"/>
      <path class="cls-46" d="m118.1,64.7l.08,30.09s.02.1.06.22c0,.04.01.08,0,.12" vector-effect="non-scaling-stroke"/>
      <path class="cls-13" d="m90.9,72.2c-.21.99,0,1.82.62,2.48.89.94,1.99,1.72,3.32,2.33.84.39,1.38.67,1.62.85.5.37.94.8,1.33,1.29.57.73,1.25,1.35,2.03,1.86.32.21.66.3,1.03.29" vector-effect="non-scaling-stroke"/>
      <path class="cls-51" d="m96.83,81.38c-.47-.26-.88-.27-1.23-.03-.27.19-.44.5-.5.93-.14,1.01.27,1.82,1.21,2.43.54.35.99.61,1.35.78.03.02.03.03,0,.05-.03.01-.04.03-.05.06" vector-effect="non-scaling-stroke"/>
      <path class="cls-13" d="m95.27,85.69c-.91.03-1.36.47-1.34,1.33.03,1.38.75,2.25,2.18,2.61" vector-effect="non-scaling-stroke"/>
      <path class="cls-36" d="m94.07,90.28c-.88.56-1.13,1.35-.73,2.37.28.74.76,1.44,1.43,2.09.11.11.09.16-.06.17-.77.04-1.16.33-1.17.88-.03,1.43.32,2.76,1.03,4,1.33,2.3,3.09,4.22,5.26,5.75.69.49,1.24,1.15,1.64,1.98,1.21,2.55,1.98,4.17,2.29,4.86" vector-effect="non-scaling-stroke"/>
      <path class="cls-43" d="m97.33,117.18c0-.29-.08-.62-.22-.99-1.37-3.62-2.04-7.4-2-11.35,0-.09-.03-.18-.09-.25-1.58-1.93-2.6-4.1-3.06-6.52-.13-.69-.17-1.33-.11-1.92.06-.58.18-1.21.36-1.9.03-.11.01-.22-.04-.32-.97-1.67-.86-3.19.32-4.55.06-.07.08-.16.05-.24-.27-1.02-.27-2.1.02-3.24.03-.13,0-.17-.13-.11l-1.47.74" vector-effect="non-scaling-stroke"/>
      <path class="cls-51" d="m70.13,63.72c.65-.42,1.31-.67,1.96-.75.33-.04.34-.13.04-.27-2.29-1.04-4.49-2.22-6.62-3.56-.57-.36-1.04-.7-1.4-1.02-.46-.41-.86-.83-1.21-1.26-.11-.14-.2-.12-.26.05l-1.13,3.33" vector-effect="non-scaling-stroke"/>
      <path class="cls-43" d="m58.41,63.58c-1.15.65-2.25,1.05-3.32,1.19-1.78.23-3.28-.34-4.51-1.71-.45-.5-.8-1.01-1.06-1.53-.1-.21-.16-.19-.16.04v13.23c0,1.67-.16,3.46-.49,5.37-.52,3.01-1.7,5.63-3.55,7.87-.86,1.04-1.94,2.03-3.27,2.97-1.31.94-2.6,1.67-3.86,2.21-2.07.88-4.14,1.75-6.21,2.63-1.94.83-3.46,2.06-4.54,3.69-.84,1.28-1.39,2.94-1.64,5-.35,2.88-.15,5.75.6,8.61" vector-effect="non-scaling-stroke"/>
      <path class="cls-21" d="m10.87,94.87c1.62-2.67,3.92-3.7,6.91-3.1.96.19,1.49.29,1.58.29.97.02,1.35-.5,1.16-1.53-.07-.38-.25-.68-.55-.89-.27-.2-.6-.37-.98-.51-1.1-.4-2.2-.79-3.3-1.18-1.46-.51-2.7-1.3-3.71-2.36-1-1.04-1.69-2.28-2.07-3.71-.52-1.97-.34-3.91.55-5.8.97-2.08,2.36-3.68,4.17-4.8,1.42-.88,3.11-1.61,5.08-2.21" vector-effect="non-scaling-stroke"/>
      <path class="cls-32" d="m19.71,69.08c1.91-.35,3.77-.85,5.59-1.52,1.44-.53,2.5-1.14,3.2-1.83,1.25-1.24,1.93-2.83,2.04-4.78.09-1.53-.04-2.99-.38-4.38-.3-1.2-.85-3.22-1.65-6.07-.61-2.16-1.05-4.35-1.33-6.57-.67-5.45.1-10.66,2.31-15.65,1.88-4.23,4.38-7.8,7.5-10.71.34-.31.53-.54.58-.68" vector-effect="non-scaling-stroke"/>
      <path class="cls-2" d="m109.34,86.53c.1-.14.14-.29.12-.45-.04-.23-.06-.36-.06-.38v-35.96" vector-effect="non-scaling-stroke"/>
      <path class="cls-12" d="m19.71,69.08c-2.58-4.08-4.59-8.52-6.03-13.33-1.99-6.65-2.95-13.36-2.88-20.15,0-.28-.02-.47-.07-.58" vector-effect="non-scaling-stroke"/>
      <path class="cls-33" d="m56.86,81.86l-3.25-9.85c-.02-.06-.07-.09-.12-.07,0,0,0,0,0,0-.05.02-.06.07-.02.14.03.05.05.1.06.13.86,4.15,1.78,8.29,2.75,12.41" vector-effect="non-scaling-stroke"/>
      <path class="cls-43" d="m56.27,84.62l.14.92" vector-effect="non-scaling-stroke"/>
      <path class="cls-28" d="m48.8,93.88l-16.09,3.16c-.09.02-.17.07-.23.14-.29.39-.26.62.12.68.13.02.32.01.58-.03,4.97-.87,9.94-1.72,14.92-2.55,1.87-.31,3.26-.49,4.17-.55" vector-effect="non-scaling-stroke"/>
      <path class="cls-7" d="m34.1,118.52c.86-1.72,1.03-3.41.49-5.07-.63-1.92-1.78-4.72-3.46-8.39-.15-.33-.22-.32-.2.03,0,.05,0,.09.02.15.7,2.92,1.26,5.65,1.68,8.19.22,1.34.24,2.72.06,4.17" vector-effect="non-scaling-stroke"/>
      <path class="cls-23" d="m65.66,92.16c-.49.57-.72,1.19-.7,1.84.02.48.13.5.34.07.5-1.03,1.28-1.77,2.33-2.21.73-.31,1.46-.6,2.2-.86,1.06-.38,1.8-.67,2.21-.84,1.53-.68,3.01-1.46,4.44-2.35.31-.19.29-.23-.05-.12-2.12.68-4.25,1.35-6.38,2-1.11.34-2.16.8-3.17,1.38-.37.21-.78.58-1.22,1.11" vector-effect="non-scaling-stroke"/>
      <path class="cls-15" d="m55.37,125.86l1.98.31" vector-effect="non-scaling-stroke"/>
      <path class="cls-19" d="m57.35,126.16c4.56.61,9.34.63,14.34.06,7.07-.8,13.64-2.73,19.71-5.78" vector-effect="non-scaling-stroke"/>
      <path class="cls-15" d="m91.39,120.44l1.58-.82c.05-.03.07-.09.04-.14,0-.01-.01-.02-.02-.03-5.23-5.02-11.51-7.11-18.81-6.27-3.91.45-7.68,1.9-11.32,4.35" vector-effect="non-scaling-stroke"/>
      <path class="cls-26" d="m62.85,117.52c.37-2.1.96-4.13,1.77-6.1.6-1.45,1.21-2.89,1.83-4.34.04-.09.02-.09-.04-.02-3.35,3.78-6.58,7.65-9.7,11.61-1.43,1.81-2.31,3.94-2.65,6.39-.04.28.1.55.35.67.21.11.53.15.95.12" vector-effect="non-scaling-stroke"/>
      <path class="cls-31" d="m62.85,117.52l-3.02,2.44c-.14.11-.21.08-.19-.1.13-1.75.57-3.3,1.33-4.65.15-.27.24-.51.25-.71,0-.1-.02-.11-.09-.03-.72.86-1.4,1.74-2.05,2.65-1.03,1.45-1.58,3.04-1.65,4.79-.02.43-.1.77-.25,1.04-.17.3-.37.61-.61.92-.41.53-.81,1.19-1.2,1.97" vector-effect="non-scaling-stroke"/>
      <path class="cls-18" d="m91.39,120.44c-4.31-3.9-9.28-5.78-14.91-5.62-1.86.05-3.71.34-5.57.87-5.4,1.55-9.78,4.68-13.13,9.41-.23.32-.37.67-.44,1.06" vector-effect="non-scaling-stroke"/>
      <path class="cls-48" d="m40.98,121.81c1.38.67,2.88,1.26,4.5,1.77.15.05.31.01.42-.09l11.89-10.6c.4-.35.37-.39-.08-.1-4.02,2.55-8.12,5.04-12.3,7.47-.87.51-1.57.84-2.09,1-.72.22-1.49.35-2.31.38-.24.01-.25.07-.04.17" vector-effect="non-scaling-stroke"/>
      <path class="cls-11" d="m71.99,10.77c-2.47-.86-5.03-.97-7.66-.33-3.57.86-6.45,2.77-8.61,5.72-1.24,1.69-2.33,3.6-3.27,5.72-3.32,7.54-8.86,12.77-16.62,15.71-.42.16-.44.25-.06.27.06,0,.12,0,.18-.03,1.1-.42,2.2-.84,3.29-1.27,5.88-2.33,10.6-6.1,14.16-11.32.49-.72,1.83-2.61,4.02-5.67.48-.67.93-1.25,1.35-1.74.48-.56.97-1.1,1.47-1.64,1.51-1.61,3.27-2.9,5.26-3.86,2.62-1.26,5.31-1.45,8.09-.57.08.02.16,0,.21-.08.43-.69.99-1.23,1.7-1.63,2.19-1.25,4.4-1.27,6.62-.07,1.03.56,1.78,1.33,2.26,2.34.71,1.5.86,3.1.44,4.79-.41,1.67-1.16,3.16-2.25,4.48-.07.09-.06.13.05.12.13,0,.27-.08.44-.21,1.29-1.02,2.18-2.23,2.67-3.61.48-1.38.55-2.81.19-4.28-.37-1.53-1.2-2.81-2.47-3.83-1.55-1.25-3.36-1.97-5.43-2.16-1.13-.1-2.01-.1-2.66.02-.91.17-1.73.58-2.46,1.23-.49.44-.71,1.01-.66,1.71,0,.11-.07.2-.18.21-.03,0-.05,0-.08-.01" vector-effect="non-scaling-stroke"/>
      <path class="cls-51" d="m65.26,33.42c-1.13,1.43-2.17,2.55-3.12,3.36-.72.61-2.37,1.88-4.94,3.81-.2.15-.52.46-.97.92" vector-effect="non-scaling-stroke"/>
      <path class="cls-37" d="m56.22,41.52c-.24.14-.4.33-.51.58" vector-effect="non-scaling-stroke"/>
      <path class="cls-5" d="m55.71,42.1l-.48.34" vector-effect="non-scaling-stroke"/>
      <path class="cls-47" d="m55.23,42.44l-1,.93" vector-effect="non-scaling-stroke"/>
      <path class="cls-14" d="m54.23,43.37c-.4.32-.73.7-.98,1.15-.04.07-.01.15.06.19.48.29.91.72,1.29,1.3.04.07.02.15-.04.2,0,0-.01,0-.02,0-.52.26-.98.53-1.37.82-.38.28-.73.67-1.07,1.16-1.61,2.37-2.39,5.02-2.36,7.96.02,1.41.31,2.76.88,4.05.52,1.18,1.21,2.02,2.09,2.51.96.54,2.02.62,3.18.25,1.14-.37,2.02-.96,2.67-1.77" vector-effect="non-scaling-stroke"/>
      <path class="cls-47" d="m58.55,61.18c.84-.8,1.44-1.66,1.82-2.57,1.48-3.6,1.21-7.09-.81-10.47-.65-1.08-1.54-1.87-2.68-2.36-.08-.03-.11-.13-.07-.21,0,0,0,0,0,0l.55-1.07" vector-effect="non-scaling-stroke"/>
      <path class="cls-51" d="m57.36,44.5c1.38.51,2.49,1.37,3.33,2.59,1,1.47,1.69,3.07,2.06,4.82.19.91.54,1.68,1.05,2.32,1.04,1.3,2.3,2.39,3.76,3.27.45.27,1.46.8,3.01,1.58.9.45,1.93.94,3.08,1.47,1.68.77,3.36,1.26,5.03,1.46,1.36.17,2.64-.06,3.84-.68.04-.02.06-.04.06-.06,0-.03-.03-.06-.09-.09" vector-effect="non-scaling-stroke"/>
      <path class="cls-45" d="m82.49,61.18c1.24-.11,2.13-.64,2.66-1.58.31-.53.43-1.16.37-1.88-.05-.66-.21-1.3-.47-1.93-.42-.99-.2-1.85.64-2.59.18-.16.16-.27-.08-.32-.71-.17-1.4-.43-2.09-.78-.4-.21-1-.62-1.81-1.25-.78-.6-1.59-1.17-2.43-1.69-.08-.05-.07-.08.02-.11,1.4-.37,2.69-.96,3.86-1.77.68-.47,1.16-.77,1.43-.9.49-.23,1.02-.43,1.6-.59.1-.03.16-.13.13-.23,0,0,0,0,0,0-.11-.34-.18-.67-.21-.98-.08-.76.24-1.26.93-1.49.94-.31,1.64-.86,2.09-1.67.24-.44.31-.85.2-1.24-.12-.42-.38-.78-.79-1.1-1.56-1.21-3.22-2.76-4.98-4.62-.17-.18-.37-.52-.62-1.01-.17-.35-.25-.73-.24-1.12.02-.7.09-1.77.2-3.23.09-1.16-.1-2.47-.57-3.92-1.3-3.98-3.61-7.24-6.94-9.76-.54-.41-.98-.58-1.32-.52-1.76.32-3.16,1.21-4.19,2.66-.77,1.09-1.3,2.26-1.58,3.52-.05.2-.14,1.31-.29,3.33-.24,3.19-1.16,6.19-2.76,9" vector-effect="non-scaling-stroke"/>
      <path class="cls-27" d="m82.49,61.18c-2.08-.05-3.98-.36-5.72-.93-1.81-.59-3.63-1.36-5.46-2.3-2.03-1.05-3.51-2.06-4.44-3.04-1.22-1.28-2.17-2.86-2.83-4.74-1.15-3.26-1.65-6.42-1.5-9.46.02-.38.07-.72.16-1.02.11-.37.24-.7.38-.96.89-1.61,1.59-3.15,2.09-4.61.08-.22.1-.45.08-.69" vector-effect="non-scaling-stroke"/>
      <path class="cls-26" d="m57.36,44.5c-.08-.32-.13-.65-.14-.99,0-.26-.02-.23-.03.1,0,.06,0,.06,0,0-.02-.31-.08-.61-.18-.91,0-.02-.04-.19-.1-.52-.05-.26-.21-.46-.48-.59" vector-effect="non-scaling-stroke"/>
      <path class="cls-30" d="m56.43,41.59c-.05-.06-.12-.09-.21-.07" vector-effect="non-scaling-stroke"/>
      <path class="cls-54" d="m56.43,41.59c-.17,0-.25.08-.24.22,0,.15,0,.24,0,.28-.04.13-.09.25-.17.36" vector-effect="non-scaling-stroke"/>
      <path class="cls-10" d="m56.01,42.45c-.07-.15-.17-.26-.31-.35" vector-effect="non-scaling-stroke"/>
      <path class="cls-55" d="m58.55,61.18c-.21-.05-.38-.01-.52.1-.19.16-.3.24-.31.25-1.69.89-3.17.91-4.46.05-1-.67-1.73-1.76-2.2-3.26-.69-2.24-.5-4.64.58-7.18.09-.22.17-.45.22-.68.03-.15.14-.23.31-.24" vector-effect="non-scaling-stroke"/>
      <path class="cls-41" d="m52.18,50.22c-.41,1.58-.4,3.08.03,4.5.26.85.75,1.48,1.48,1.91.57.33,1.15.44,1.75.33.63-.11,1.18-.42,1.66-.93.5-.54.87-1.16,1.12-1.86" vector-effect="non-scaling-stroke"/>
      <path class="cls-55" d="m58.2,54.18c.91-2.21.77-4.27-.42-6.19-.31-.49-.63-.86-.97-1.11-.45-.33-.94-.49-1.45-.47-.29,0-.39-.08-.31-.25.05-.1.07-.19.06-.26-.11-.91-.4-1.75-.9-2.53" vector-effect="non-scaling-stroke"/>
      <path class="cls-42" d="m55.23,42.44c.11.02.18.06.21.14.06.14.1.22.12.24.28.26.43.14.46-.37" vector-effect="non-scaling-stroke"/>
      <path class="cls-22" d="m58.2,54.18c-.08-.42-.09-.84-.02-1.27.26-1.6-.03-3.08-.86-4.44-.96-1.56-2.16-1.75-3.6-.59-.59.47-1.1,1.26-1.55,2.35" vector-effect="non-scaling-stroke"/>
      <path class="cls-13" d="m55.01,36.46c-1.1-.74-1.8-1.15-2.12-1.21-2-.4-3.06.4-3.18,2.4-.05.84.1,1.76.45,2.76.02.05.07.07.13.05,0,0,.02,0,.03-.02l2.77-2.25c.13-.1.15-.29.05-.41,0-.01-.02-.02-.03-.03-.36-.34-.73-.51-1.1-.52-.39,0-.7.17-.94.52-.25.37-.3.8-.16,1.31.05.18.03.3-.05.36-.05.03-.12.01-.16-.05,0-.01-.01-.03-.02-.04-.26-.91-.15-1.65.32-2.23.44-.53.97-.65,1.62-.38.38.16.75.41,1.12.74.1.09.25.1.36.01l1.05-.76" vector-effect="non-scaling-stroke"/>
      <path class="cls-6" d="m55.16,36.72c1.74-1.05,3.39-2.21,4.96-3.5,1.4-1.15,2.41-2.55,3.03-4.19.26-.68.45-1.59.57-2.72.1-.93.19-1.85.25-2.78.15-2.07.7-4.01,1.65-5.84.06-.11.04-.15-.05-.1-.03.02-.06.05-.1.09-1.33,1.89-2.27,3.9-2.83,6.04-.45,1.75-.79,2.92-1.02,3.53-1.08,2.88-2.71,5.39-4.9,7.53-.1.1-.37.39-.83.88-.27.3-.57.56-.9.81" vector-effect="non-scaling-stroke"/>
      <path class="cls-3" d="m55.16,36.72c-.02-.1-.06-.19-.14-.26" vector-effect="non-scaling-stroke"/>
      <path class="cls-35" d="m90.44,54.39c1.21-.94,2.3-1.99,3.29-3.17,1.39-1.67,2.23-3.53,2.52-5.56.26-1.78.07-3.51-.57-5.2-.64-1.69-1.66-3.18-3.07-4.46-1.14-1.03-2.09-1.94-2.85-2.73-1.04-1.08-1.82-2.35-2.36-3.82-.04-.12-.09-.18-.13-.19-.05,0-.09.06-.09.15,0,.02,0,.03,0,.05.44,2.27,1.55,4.13,3.33,5.6,1.21,1,1.96,1.68,2.26,2.04,2.53,3.08,3.01,6.52,1.45,10.31-1.4,3.39-3.43,6.28-6.09,8.67-.05.05-.09.11-.09.16,0,.11.05.13.15.04.38-.31.75-.63,1.11-.96.35-.32.72-.63,1.12-.94" vector-effect="non-scaling-stroke"/>
      <path class="cls-6" d="m57.4,36.21c.39-.39.35-.43-.11-.13-2.59,1.68-5.12,3.68-7.6,6-4.33,4.06-6.33,9.11-5.98,15.14.01.22,0,.47-.03.75-.03.28-.04.53-.04.75-.02,3.53-1.49,6.2-4.4,8.01-2.55,1.59-5.38,2.11-8.48,1.57-.05,0-.09-.01-.13,0-.26.02-.25.08.01.18,1.2.42,2.42.65,3.66.69,1.22.04,2.44-.12,3.64-.48,3.38-1.01,5.53-3.24,6.45-6.7.19-.73.29-1.7.28-2.91,0-1.73.04-3.05.16-3.97.27-2.08,1.02-4.27,2.27-6.55,1.29-2.36,2.47-4.13,3.54-5.29,2.16-2.35,4.41-4.7,6.75-7.03" vector-effect="non-scaling-stroke"/>
      <path class="cls-6" d="m86.23,48.37c.15.09.28.2.38.33.12.15.34.18.49.06.02-.02.04-.03.06-.05,1.11-1.34.97-2.03-.42-2.06-.51-.01-1.02.08-1.53.27-.7.26-1.35.63-1.94,1.11-.47.38-.98.71-1.52.97-.06.03-.1.07-.1.12-.01.09.03.11.12.06,1.27-.59,2.61-.9,4-.93.18,0,.34.03.47.11" vector-effect="non-scaling-stroke"/>
      <path class="cls-11" d="m81.45,49.96c1.55,1.01,3.27,1.7,5.15,2.07.21.04.41-.08.47-.28.12-.37.09-.71-.08-1.02-.65-1.17-1.65-1.6-3.01-1.29-.77.18-1.6.3-2.49.36-.15.01-.17.06-.04.15" vector-effect="non-scaling-stroke"/>
      <path class="cls-20" d="m101.86,76.34c.94.96,1.81,1.95,2.62,2.95.08.1.12.09.12-.04l-.02-29.43c0-.08-.06-.14-.14-.14l-3.39-.04c-.12,0-.21.09-.21.21h0c-.09,8.47-.09,16.93.01,25.38,0,.1.03.19.09.25.12.15.25.28.4.4.29.25.47.4.53.46" vector-effect="non-scaling-stroke"/>
      <path class="cls-14" d="m90.34,70.35c.12-.1.24-.11.36-.03.45.3.84.57,1.17.83.23.18.29.14.16-.13-1.34-2.77-1.76-5.63-1.27-8.59.38-2.25,1.18-4.34,2.41-6.26.16-.25.29-.52.39-.8" vector-effect="non-scaling-stroke"/>
      <path class="cls-29" d="m93.57,55.38c.72-.54.68-.74-.13-.6-.15.02-.3.03-.43,0-.16-.02-.32-.05-.47-.07-.09-.01-.18.02-.23.09-1.35,1.87-2.38,3.9-3.1,6.09-.51,1.56-.75,3.16-.73,4.8.02,1.68.49,3.22,1.39,4.62.19.3.35.32.47.04" vector-effect="non-scaling-stroke"/>
      <path class="cls-24" d="m93.57,55.38c-.35-.08-.6-.03-.75.16-2.49,3.2-3.63,6.77-3.41,10.72.07,1.23.38,2.6.93,4.1" vector-effect="non-scaling-stroke"/>
      <path class="cls-11" d="m46.02,70.66c-.07.05-.11.12-.12.21-.01.12-.02.2-.03.22-1.3,4-3.88,6.86-7.73,8.58-3.63,1.62-7.16,1.53-10.59-.28-.26-.14-.52-.32-.79-.55-.25-.21-.5-.41-.75-.62-.38-.31-.44-.28-.2.1.03.04.06.08.1.11,1.77,1.67,3.84,2.81,6.2,3.43,2.26.59,4.44.6,6.55.03,1.98-.54,3.58-1.47,4.82-2.79,1.46-1.56,2.28-3.53,2.48-5.92.11-1.39.18-2.29.19-2.69,0-.06-.01-.07-.04-.01l-.02.05c-.04.08-.07.13-.09.14" vector-effect="non-scaling-stroke"/>
      <path class="cls-35" d="m20.25,82.16c1.34,1.16,2.93,1.94,4.77,2.32.89.18,1.77.31,2.64.38.86.07,1.76.05,2.68-.06.25-.03.25-.04,0-.05-3.18-.03-6.03-.89-8.54-2.6-2.58-1.75-3.91-4.19-3.99-7.34,0-.03,0-.06-.02-.08-.01-.03-.02-.06-.04-.08-.04-.08-.06-.08-.07,0-.51,3.07.35,5.57,2.57,7.5" vector-effect="non-scaling-stroke"/>
      <path class="cls-5" d="m24.35,105.73s-.03-.07-.07-.07h-.04s-.07.03-.07.07h0s-.07,5.04-.07,5.04c0,.04.03.07.07.07h.04s.07-.03.07-.07l.07-5.04" vector-effect="non-scaling-stroke"/>
      <path class="cls-50" d="m75.75,26.55c.71.32,1.37.73,1.98,1.23.61.49,1.28.89,2.01,1.18.4.16.7.05.91-.32.32-.58.27-1.13-.14-1.66-.35-.44-.76-.8-1.25-1.07-.87-.48-1.79-.84-2.74-1.08-1.03-.25-2-.3-2.9-.14-1.37.24-2.62.87-3.75,1.88-.85.76-1.5,1.48-1.94,2.14-.02.03-.05.06-.08.09-.12.1-.12.15,0,.14.05,0,.11-.03.15-.07,1.55-1.64,3.41-2.55,5.6-2.71.76-.05,1.48.07,2.16.38" vector-effect="non-scaling-stroke"/>
      <path class="cls-40" d="m74.61,33.14c-.04.14-.12.25-.25.33-.33.21-.33.32.01.31.33,0,.67-.04,1-.1.09-.02.18.05.2.14,0,.02,0,.04,0,.06-.08.55.1.63.54.23.12-.11.32-.08.45.07,0,0,.01.01.02.02l.31.38c.04.05.13.05.19,0,0,0,0,0,.01-.01.33-.32.64-.32.94.02.08.09.14.14.19.17.17.08.22-.03.14-.36-.04-.17-.01-.26.08-.27.06,0,.14.04.23.13.22.23.54.37.95.4.97.09,1.85-.14,2.63-.69.38-.27.34-.34-.1-.23-1.44.36-2.4-.12-2.89-1.44-.03-.08-.11-.13-.19-.12-1.67.15-3.33.04-4.96-.34-1-.23-2.01-.43-3.02-.6-.11-.02-.11,0-.02.04l3.46,1.64c.08.04.13.12.11.19" vector-effect="non-scaling-stroke"/>
      <path class="cls-49" d="m83.7,42.92c.27.2.55.23.85.07.22-.11.45-.21.69-.29.16-.05.41-.08.73-.08.29,0,.57-.04.85-.12.33-.09.47-.28.45-.55,0-.08-.08-.15-.17-.17-.82-.15-1.48.01-2,.47-.54.48-1.01.41-1.41-.21-.16-.25-.26-.48-.29-.69-.02-.11-.07-.19-.14-.19-.06,0-.1.06-.13.17-.16.66.02,1.19.57,1.6" vector-effect="non-scaling-stroke"/>
      <path class="cls-34" d="m54.31,56.38c1.25.12,2.44-1.68,2.66-4.02.22-2.34-.62-4.32-1.88-4.44-1.25-.12-2.44,1.68-2.66,4.02-.22,2.34.62,4.32,1.88,4.44" vector-effect="non-scaling-stroke"/>
      <path class="cls-75" d="m34.96,122.23c-11.81-6.19-20.83-15.01-27.06-26.45C3.18,87.11.57,77.72.08,67.6c-.09-1.9-.1-3.78-.03-5.65.44-10.73,3.34-20.71,8.72-29.93,4.03-6.91,9.26-12.91,15.7-17.99C36.47,4.56,50.12-.12,65.4,0c6.31.05,12.56,1.03,18.77,2.95,1.8.56,3.57,1.2,5.31,1.93,8.74,3.7,16.31,9.01,22.7,15.94,8.66,9.38,14.09,20.37,16.29,32.97.32,1.83.56,3.7.7,5.61,1.29,16.54-3.08,31.4-13.13,44.58-4.07,5.35-8.88,9.99-14.42,13.93-1.54,1.1-3.13,2.12-4.75,3.07-9.98,5.8-20.77,8.69-32.39,8.65-10.38-.04-20.21-2.5-29.52-7.38Zm21.63-50.61c-.23-2.78.31-5.27,1.62-7.47.15-.25.22-.44.19-.57,1.2-.96,2.23-2.07,3.11-3.34,1.11,0,2.02.2,2.74.59,1.92,1.05,3.88,2.01,5.88,2.89-.4.48-.67.95-.83,1.42-.91,2.69-.9,5.42,0,8.18.72,2.19,2.06,3.9,4.02,5.13,1.25.79,2.31,1.31,3.16,1.58,4.58,1.43,9.26,2.61,14.07,3.56.11.02.11.06.01.1-5.43,2.83-10.85,5.71-16.26,8.64-.16.08-.15.13,0,.12.03,0,.06,0,.08-.01,5.53-1.95,11.05-3.92,16.56-5.91-.13,1.42-.11,2.83.06,4.24.06.48-.13.92-.58,1.31-.52.45-1.12,1.21-1.81,2.27-.6.92-1.06,1.76-1.38,2.54-1.09,2.64-1.25,5.32-.47,8.03.35,1.24.94,2.53,1.77,3.87.75,1.21,1.61,2.35,2.58,3.42,1.53,1.67,3.14,3.24,4.83,4.74.02.01.14.14.37.4.32.34.65.29.99-.16,2.29-1.41,4.43-3.01,6.43-4.8.85-.54,1.66-1.26,2.43-2.15.08-.1.1-.24.05-.35-1.58-3.16-3.59-5.95-6.03-8.37-1.46-1.45-2.84-2.96-4.14-4.55-.47-.57-.74-1.23-.8-1.96-.08-.87-.3-1.7-.68-2.49-.29-.6-.46-1.34-.51-2.23.61-.26,1.24-.39,1.91-.39.22,0,.26-.09.13-.26.06-.46.01-.9-.14-1.34-.31-.85-.54-1.72-.69-2.61.76-.28,1.54-.31,2.33-.09.43.1.67-.04.71-.41.06-.54-.13-1.11-.56-1.7-.32-.44-.63-.88-.93-1.33-.17-.26-.17-.52,0-.77.76-.4,1.55-.44,2.36-.14.54.21,1.06.38,1.55.53.09.03.17.08.23.16.22.26.38.42.49.5.24.18.25.08.03-.28-.19-.3-.4-.59-.64-.85-1.1-1.63-2.4-3.05-3.9-4.28-.27-.22-1.05-.74-2.35-1.56-1.4-.88-2.63-1.97-3.7-3.26-.2-.48-.12-.57.23-.29.08.07.15.12.21.15,1.1.65,2.26,1.19,3.46,1.61,1.23.43,1.95.7,2.18.81.7.34,1.36.74,1.99,1.22,1.16.88,2.24,1.85,3.22,2.91.78.84,1.66,1.98,2.65,3.42,3.99,5.85,7.2,12.14,9.61,18.86.04.1.09.11.15.02,1.29-1.84,2.5-3.76,3.64-5.76,2.23-3.69,3.97-7.6,5.23-11.72,1.69-5.06,2.63-10.45,2.81-16.17.43-13.37-2.9-25.46-10-36.29-1.03-1.57-2.13-3.09-3.31-4.57-4.58-5.73-9.93-10.5-16.05-14.32-7.67-4.79-16.04-7.69-25.11-8.7-1.82-.2-3.7-.32-5.63-.36-15.85-.32-29.82,4.68-41.9,15.02-4.54,3.95-8.53,8.65-11.94,14.11-.79,1.26-1.33,2.23-1.61,2.9-.18.12-.33.32-.48.59-5.16,9.78-7.55,20.18-7.16,31.2.35,9.99,2.94,19.34,7.78,28.05.33.71.89,1.68,1.68,2.9,3.88,6,8.49,11.12,13.85,15.38,1.97,1.65,4.07,3.14,6.29,4.45l1.41.92c.35.26.73.44,1.15.54.08.02.18,0,.26-.05,1.77-1.08,3.21-2.41,4.31-3.97,1.05-1.49,2.17-3.34,3.35-5.55,1.52-2.83,3.74-5.69,6.67-8.59,1.35-1.34,2.4-2.82,3.13-4.43.41-.9.17-1.49-.71-1.75,1.51-.34,2.74.12,3.67,1.39.15.21.25.19.29-.07.18-1.11-.26-1.91-1.32-2.39-.66-.3-1.44-.39-2.36-.28-1.25.15-2.5.32-3.74.51-.09-.08-.09-.14,0-.16.05-.01.09-.03.11-.04,3.31-1.89,5.75-4.59,7.31-8.07m9.44,6.55c-.49.57-.72,1.19-.7,1.84.02.48.13.5.34.07.5-1.03,1.28-1.77,2.33-2.21.73-.31,1.46-.6,2.2-.86,1.06-.38,1.8-.67,2.21-.84,1.53-.68,3.01-1.46,4.44-2.35.31-.19.29-.23-.05-.12-2.12.68-4.25,1.35-6.38,2-1.11.34-2.16.8-3.17,1.38-.37.21-.78.58-1.22,1.11Zm-10.3,33.7l1.98.31c4.56.61,9.34.63,14.34.06,7.07-.8,13.64-2.73,19.71-5.78l1.58-.82c.05-.03.07-.09.04-.14,0-.01-.01-.02-.02-.03-5.23-5.02-11.51-7.11-18.81-6.27-3.91.45-7.68,1.9-11.32,4.35.37-2.1.96-4.13,1.77-6.1.6-1.45,1.21-2.89,1.83-4.34.04-.09.02-.09-.04-.02-3.35,3.78-6.58,7.65-9.7,11.61-1.43,1.81-2.31,3.94-2.65,6.39-.04.28.1.55.35.67.21.11.53.15.95.12Z"/>
      <path class="cls-62" d="m90.57,83.69c.1-.05.09-.08-.01-.1-4.8-.95-9.49-2.14-14.07-3.56-.86-.27-1.91-.79-3.16-1.58-1.96-1.23-3.29-2.94-4.02-5.13-.91-2.76-.91-5.49,0-8.18.16-.47.44-.94.83-1.42.65-.42,1.31-.67,1.96-.75.33-.04.34-.13.04-.27-2.29-1.04-4.49-2.22-6.62-3.56-.57-.36-1.04-.7-1.4-1.02-.46-.41-.86-.83-1.21-1.26-.11-.14-.2-.12-.26.05l-1.13,3.33c-.87,1.27-1.91,2.38-3.11,3.34-1.15.65-2.25,1.05-3.32,1.19-1.78.23-3.28-.34-4.51-1.71-.45-.5-.8-1.01-1.06-1.53-.1-.21-.16-.19-.16.04v13.23c0,1.67-.16,3.46-.49,5.37-.52,3.01-1.7,5.63-3.55,7.87-.86,1.04-1.94,2.03-3.27,2.97-1.31.94-2.6,1.67-3.86,2.21-2.07.88-4.14,1.75-6.21,2.63-1.94.83-3.46,2.06-4.54,3.69-.84,1.28-1.39,2.94-1.64,5-.35,2.88-.15,5.75.6,8.61-5.36-4.26-9.97-9.39-13.85-15.38-.79-1.23-1.35-2.19-1.68-2.9,1.62-2.67,3.92-3.7,6.91-3.1.96.19,1.49.29,1.58.29.97.02,1.35-.5,1.16-1.53-.07-.38-.25-.68-.55-.89-.27-.2-.6-.37-.98-.51-1.1-.4-2.2-.79-3.3-1.18-1.46-.51-2.7-1.3-3.71-2.36-1-1.04-1.69-2.28-2.07-3.71-.52-1.97-.34-3.91.55-5.8.97-2.08,2.36-3.68,4.17-4.8,1.42-.88,3.11-1.61,5.08-2.21,1.91-.35,3.77-.85,5.59-1.52,1.44-.53,2.5-1.14,3.2-1.83,1.25-1.24,1.93-2.83,2.04-4.78.09-1.53-.04-2.99-.38-4.38-.3-1.2-.85-3.22-1.65-6.07-.61-2.16-1.05-4.35-1.33-6.57-.67-5.45.1-10.66,2.31-15.65,1.88-4.23,4.38-7.8,7.5-10.71.34-.31.53-.54.58-.68,6.25-5.47,13.44-8.79,21.56-9.94,2-.28,3.88-.4,5.63-.34,2.03.07,4.07.33,6.11.78.09.02.18,0,.26-.05,1.62-1.13,3.43-1.65,5.43-1.56,2.9.13,5.49,1.08,7.77,2.84,2.72,2.1,3.97,4.97,3.74,8.62-.03.45-.1,1.03-.21,1.75-.06.36-.18.93-.37,1.71-.48,2-.65,4-.49,5.99.03.39.2.69.52.91,3.59,2.51,7.01,5.24,10.25,8.19,4.48,4.07,8.43,8.6,11.85,13.58l-.22.36-2.6-.07c-.07,0-.14.06-.14.14,0,0,0,0,0,0l-.02,31.93c0,.3.1.61.3.93l2.4,3.85c.51,1.15,1.1,2.25,1.77,3.3.27.42.4.4.41-.05.03-12.17,0-24.33-.07-36.5,0-.01-.03-.21-.1-.58-.05-.27.05-.51.3-.71,2.49,4.06,4.64,8.3,6.45,12.71l.08,30.09s.02.1.06.22c0,.04.01.08,0,.12-1.14,2.01-2.36,3.93-3.64,5.76-.06.09-.11.08-.15-.02-2.41-6.72-5.62-13-9.61-18.86-.98-1.44-1.87-2.58-2.65-3.42-.98-1.06-2.06-2.03-3.22-2.91-.63-.47-1.29-.88-1.99-1.22-.22-.11-.95-.38-2.18-.81-1.2-.42-2.36-.96-3.46-1.61-.06-.04-.13-.09-.21-.15-.36-.28-.43-.19-.23.29-.21.99,0,1.82.62,2.48.89.94,1.99,1.72,3.32,2.33.84.39,1.38.67,1.62.85.5.37.94.8,1.33,1.29.57.73,1.25,1.35,2.03,1.86.32.21.66.3,1.03.29.24.27.45.55.64.85.23.37.22.46-.03.28-.11-.08-.27-.24-.49-.5-.06-.07-.14-.13-.23-.16-.49-.15-1-.33-1.55-.53-.81-.31-1.6-.26-2.36.14-.47-.26-.88-.27-1.23-.03-.27.19-.44.5-.5.93-.14,1.01.27,1.82,1.21,2.43.54.35.99.61,1.35.78.03.02.03.03,0,.05-.03.01-.04.03-.05.06-.79-.21-1.57-.18-2.33.09-.91.03-1.36.47-1.34,1.33.03,1.38.75,2.25,2.18,2.61.13.17.09.26-.13.26-.66,0-1.3.13-1.91.39-.88.56-1.13,1.35-.73,2.37.28.74.76,1.44,1.43,2.09.11.11.09.16-.06.17-.77.04-1.16.33-1.17.88-.03,1.43.32,2.76,1.03,4,1.33,2.3,3.09,4.22,5.26,5.75.69.49,1.24,1.15,1.64,1.98,1.21,2.55,1.98,4.17,2.29,4.86-2,1.79-4.14,3.39-6.43,4.8,0-.29-.08-.62-.22-.99-1.37-3.62-2.04-7.4-2-11.35,0-.09-.03-.18-.09-.25-1.58-1.93-2.6-4.1-3.06-6.52-.13-.69-.17-1.33-.11-1.92.06-.58.18-1.21.36-1.9.03-.11.01-.22-.04-.32-.97-1.67-.86-3.19.32-4.55.06-.07.08-.16.05-.24-.27-1.02-.27-2.1.02-3.24.03-.13,0-.17-.13-.11l-1.47.74c-5.51,1.99-11.03,3.96-16.56,5.91-.03,0-.06.01-.08.01m-2.33-81.69c-2.47-.86-5.03-.97-7.66-.33-3.57.86-6.45,2.77-8.61,5.72-1.24,1.69-2.33,3.6-3.27,5.72-3.32,7.54-8.86,12.77-16.62,15.71-.42.16-.44.25-.06.27.06,0,.12,0,.18-.03,1.1-.42,2.2-.84,3.29-1.27,5.88-2.33,10.6-6.1,14.16-11.32.49-.72,1.83-2.61,4.02-5.67.48-.67.93-1.25,1.35-1.74.48-.56.97-1.1,1.47-1.64,1.51-1.61,3.27-2.9,5.26-3.86,2.62-1.26,5.31-1.45,8.09-.57.08.02.16,0,.21-.08.43-.69.99-1.23,1.7-1.63,2.19-1.25,4.4-1.27,6.62-.07,1.03.56,1.78,1.33,2.26,2.34.71,1.5.86,3.1.44,4.79-.41,1.67-1.16,3.16-2.25,4.48-.07.09-.06.13.05.12.13,0,.27-.08.44-.21,1.29-1.02,2.18-2.23,2.67-3.61.48-1.38.55-2.81.19-4.28-.37-1.53-1.2-2.81-2.47-3.83-1.55-1.25-3.36-1.97-5.43-2.16-1.13-.1-2.01-.1-2.66.02-.91.17-1.73.58-2.46,1.23-.49.44-.71,1.01-.66,1.71,0,.11-.07.2-.18.21-.03,0-.05,0-.08-.01Zm-6.74,22.65c-1.13,1.43-2.17,2.55-3.12,3.36-.72.61-2.37,1.88-4.94,3.81-.2.15-.52.46-.97.92-.24.14-.4.33-.51.58l-.48.34-1,.93c-.4.32-.73.7-.98,1.15-.04.07-.01.15.06.19.48.29.91.72,1.29,1.3.04.07.02.15-.04.2,0,0-.01,0-.02,0-.52.26-.98.53-1.37.82-.38.28-.73.67-1.07,1.16-1.61,2.37-2.39,5.02-2.36,7.96.02,1.41.31,2.76.88,4.05.52,1.18,1.21,2.02,2.09,2.51.96.54,2.02.62,3.18.25,1.14-.37,2.02-.96,2.67-1.77.84-.8,1.44-1.66,1.82-2.57,1.48-3.6,1.21-7.09-.81-10.47-.65-1.08-1.54-1.87-2.68-2.36-.08-.03-.11-.13-.07-.21,0,0,0,0,0,0l.55-1.07c1.38.51,2.49,1.37,3.33,2.59,1,1.47,1.69,3.07,2.06,4.82.19.91.54,1.68,1.05,2.32,1.04,1.3,2.3,2.39,3.76,3.27.45.27,1.46.8,3.01,1.58.9.45,1.93.94,3.08,1.47,1.68.77,3.36,1.26,5.03,1.46,1.36.17,2.64-.06,3.84-.68.04-.02.06-.04.06-.06,0-.03-.03-.06-.09-.09,1.24-.11,2.13-.64,2.66-1.58.31-.53.43-1.16.37-1.88-.05-.66-.21-1.3-.47-1.93-.42-.99-.2-1.85.64-2.59.18-.16.16-.27-.08-.32-.71-.17-1.4-.43-2.09-.78-.4-.21-1-.62-1.81-1.25-.78-.6-1.59-1.17-2.43-1.69-.08-.05-.07-.08.02-.11,1.4-.37,2.69-.96,3.86-1.77.68-.47,1.16-.77,1.43-.9.49-.23,1.02-.43,1.6-.59.1-.03.16-.13.13-.23,0,0,0,0,0,0-.11-.34-.18-.67-.21-.98-.08-.76.24-1.26.93-1.49.94-.31,1.64-.86,2.09-1.67.24-.44.31-.85.2-1.24-.12-.42-.38-.78-.79-1.1-1.56-1.21-3.22-2.76-4.98-4.62-.17-.18-.37-.52-.62-1.01-.17-.35-.25-.73-.24-1.12.02-.7.09-1.77.2-3.23.09-1.16-.1-2.47-.57-3.92-1.3-3.98-3.61-7.24-6.94-9.76-.54-.41-.98-.58-1.32-.52-1.76.32-3.16,1.21-4.19,2.66-.77,1.09-1.3,2.26-1.58,3.52-.05.2-.14,1.31-.29,3.33-.24,3.19-1.16,6.19-2.76,9Zm-10.24,3.04c-1.1-.74-1.8-1.15-2.12-1.21-2-.4-3.06.4-3.18,2.4-.05.84.1,1.76.45,2.76.02.05.07.07.13.05,0,0,.02,0,.03-.02l2.77-2.25c.13-.1.15-.29.05-.41,0-.01-.02-.02-.03-.03-.36-.34-.73-.51-1.1-.52-.39,0-.7.17-.94.52-.25.37-.3.8-.16,1.31.05.18.03.3-.05.36-.05.03-.12.01-.16-.05,0-.01-.01-.03-.02-.04-.26-.91-.15-1.65.32-2.23.44-.53.97-.65,1.62-.38.38.16.75.41,1.12.74.1.09.25.1.36.01l1.05-.76c1.74-1.05,3.39-2.21,4.96-3.5,1.4-1.15,2.41-2.55,3.03-4.19.26-.68.45-1.59.57-2.72.1-.93.19-1.85.25-2.78.15-2.07.7-4.01,1.65-5.84.06-.11.04-.15-.05-.1-.03.02-.06.05-.1.09-1.33,1.89-2.27,3.9-2.83,6.04-.45,1.75-.79,2.92-1.02,3.53-1.08,2.88-2.71,5.39-4.9,7.53-.1.1-.37.39-.83.88-.27.3-.57.56-.9.81Zm35.43,17.93c1.21-.94,2.3-1.99,3.29-3.17,1.39-1.67,2.23-3.53,2.52-5.56.26-1.78.07-3.51-.57-5.2-.64-1.69-1.66-3.18-3.07-4.46-1.14-1.03-2.09-1.94-2.85-2.73-1.04-1.08-1.82-2.35-2.36-3.82-.04-.12-.09-.18-.13-.19-.05,0-.09.06-.09.15,0,.02,0,.03,0,.05.44,2.27,1.55,4.13,3.33,5.6,1.21,1,1.96,1.68,2.26,2.04,2.53,3.08,3.01,6.52,1.45,10.31-1.4,3.39-3.43,6.28-6.09,8.67-.05.05-.09.11-.09.16,0,.11.05.13.15.04.38-.31.75-.63,1.11-.96.35-.32.72-.63,1.12-.94Zm-33.04-18.18c.39-.39.35-.43-.11-.13-2.59,1.68-5.12,3.68-7.6,6-4.33,4.06-6.33,9.11-5.98,15.14.01.22,0,.47-.03.75-.03.28-.04.53-.04.75-.02,3.53-1.49,6.2-4.4,8.01-2.55,1.59-5.38,2.11-8.48,1.57-.05,0-.09-.01-.13,0-.26.02-.25.08.01.18,1.2.42,2.42.65,3.66.69,1.22.04,2.44-.12,3.64-.48,3.38-1.01,5.53-3.24,6.45-6.7.19-.73.29-1.7.28-2.91,0-1.73.04-3.05.16-3.97.27-2.08,1.02-4.27,2.27-6.55,1.29-2.36,2.47-4.13,3.54-5.29,2.16-2.35,4.41-4.7,6.75-7.03Zm28.82,12.16c.15.09.28.2.38.33.12.15.34.18.49.06.02-.02.04-.03.06-.05,1.11-1.34.97-2.03-.42-2.06-.51-.01-1.02.08-1.53.27-.7.26-1.35.63-1.94,1.11-.47.38-.98.71-1.52.97-.06.03-.1.07-.1.12-.01.09.03.11.12.06,1.27-.59,2.61-.9,4-.93.18,0,.34.03.47.11Zm-4.78,1.58c1.55,1.01,3.27,1.7,5.15,2.07.21.04.41-.08.47-.28.12-.37.09-.71-.08-1.02-.65-1.17-1.65-1.6-3.01-1.29-.77.18-1.6.3-2.49.36-.15.01-.17.06-.04.15Zm20.42,26.39c.94.96,1.81,1.95,2.62,2.95.08.1.12.09.12-.04l-.02-29.43c0-.08-.06-.14-.14-.14l-3.39-.04c-.12,0-.21.09-.21.21h0c-.09,8.47-.09,16.93.01,25.38,0,.1.03.19.09.25.12.15.25.28.4.4.29.25.47.4.53.46Zm-11.52-5.99c.12-.1.24-.11.36-.03.45.3.84.57,1.17.83.23.18.29.14.16-.13-1.34-2.77-1.76-5.63-1.27-8.59.38-2.25,1.18-4.34,2.41-6.26.16-.25.29-.52.39-.8.72-.54.68-.74-.13-.6-.15.02-.3.03-.43,0-.16-.02-.32-.05-.47-.07-.09-.01-.18.02-.23.09-1.35,1.87-2.38,3.9-3.1,6.09-.51,1.56-.75,3.16-.73,4.8.02,1.68.49,3.22,1.39,4.62.19.3.35.32.47.04Zm-44.33.31c-.07.05-.11.12-.12.21-.01.12-.02.2-.03.22-1.3,4-3.88,6.86-7.73,8.58-3.63,1.62-7.16,1.53-10.59-.28-.26-.14-.52-.32-.79-.55-.25-.21-.5-.41-.75-.62-.38-.31-.44-.28-.2.1.03.04.06.08.1.11,1.77,1.67,3.84,2.81,6.2,3.43,2.26.59,4.44.6,6.55.03,1.98-.54,3.58-1.47,4.82-2.79,1.46-1.56,2.28-3.53,2.48-5.92.11-1.39.18-2.29.19-2.69,0-.06-.01-.07-.04-.01l-.02.05c-.04.08-.07.13-.09.14Zm-25.77,11.5c1.34,1.16,2.93,1.94,4.77,2.32.89.18,1.77.31,2.64.38.86.07,1.76.05,2.68-.06.25-.03.25-.04,0-.05-3.18-.03-6.03-.89-8.54-2.6-2.58-1.75-3.91-4.19-3.99-7.34,0-.03,0-.06-.02-.08-.01-.03-.02-.06-.04-.08-.04-.08-.06-.08-.07,0-.51,3.07.35,5.57,2.57,7.5Zm4.1,23.57s-.03-.07-.07-.07h-.04s-.07.03-.07.07h0s-.07,5.04-.07,5.04c0,.04.03.07.07.07h.04s.07-.03.07-.07l.07-5.04Z"/>
      <path class="cls-61" d="m71.99,10.77c.1.04.21-.02.25-.12,0-.03.01-.05.01-.08-.05-.7.16-1.27.66-1.71.73-.66,1.55-1.07,2.46-1.23.65-.12,1.54-.12,2.66-.02,2.07.19,3.88.91,5.43,2.16,1.27,1.02,2.1,2.3,2.47,3.83.36,1.47.29,2.9-.19,4.28-.49,1.39-1.38,2.59-2.67,3.61-.17.13-.31.2-.44.21-.11,0-.13-.03-.05-.12,1.09-1.32,1.84-2.81,2.25-4.48.41-1.69.27-3.28-.44-4.79-.47-1-1.23-1.78-2.26-2.34-2.22-1.2-4.43-1.17-6.62.07-.71.4-1.28.94-1.7,1.63-.04.07-.13.1-.21.08-2.77-.89-5.47-.7-8.09.57-1.99.96-3.75,2.25-5.26,3.86-.5.53-.99,1.08-1.47,1.64-.42.49-.87,1.07-1.35,1.74-2.19,3.07-3.53,4.96-4.02,5.67-3.56,5.22-8.28,8.99-14.16,11.32-1.09.43-2.19.86-3.29,1.27-.06.02-.12.03-.18.03-.38-.02-.36-.11.06-.27,7.76-2.93,13.29-8.17,16.62-15.71.93-2.12,2.02-4.03,3.27-5.72,2.17-2.95,5.04-4.86,8.61-5.72,2.63-.64,5.18-.53,7.66.33Z"/>
      <path class="cls-72" d="m82.49,61.18c-2.08-.05-3.98-.36-5.72-.93-1.81-.59-3.63-1.36-5.46-2.3-2.03-1.05-3.51-2.06-4.44-3.04-1.22-1.28-2.17-2.86-2.83-4.74-1.15-3.26-1.65-6.42-1.5-9.46.02-.38.07-.72.16-1.02.11-.37.24-.7.38-.96.89-1.61,1.59-3.15,2.09-4.61.08-.22.1-.45.08-.69,1.6-2.81,2.52-5.81,2.76-9,.15-2.02.25-3.13.29-3.33.28-1.26.81-2.44,1.58-3.52,1.03-1.45,2.43-2.34,4.19-2.66.34-.06.78.11,1.32.52,3.33,2.53,5.64,5.78,6.94,9.76.47,1.45.66,2.75.57,3.92-.11,1.46-.18,2.53-.2,3.23-.01.39.07.77.24,1.12.24.49.45.82.62,1.01,1.76,1.87,3.42,3.41,4.98,4.62.41.32.67.69.79,1.1.11.39.05.8-.2,1.24-.45.81-1.15,1.37-2.09,1.67-.7.23-1.01.72-.93,1.49.03.31.1.63.21.98.03.1-.02.2-.12.24,0,0,0,0,0,0-.57.17-1.11.37-1.6.59-.27.13-.75.43-1.43.9-1.18.82-2.47,1.41-3.86,1.77-.09.02-.1.06-.02.11.84.52,1.65,1.08,2.43,1.69.81.63,1.42,1.04,1.81,1.25.69.35,1.38.61,2.09.78.24.05.26.16.08.32-.84.73-1.06,1.6-.64,2.59.26.62.42,1.27.47,1.93.06.72-.07,1.35-.37,1.88-.54.94-1.42,1.47-2.66,1.58Zm-6.74-34.63c.71.32,1.37.73,1.98,1.23.61.49,1.28.89,2.01,1.18.4.16.7.05.91-.32.32-.58.27-1.13-.14-1.66-.35-.44-.76-.8-1.25-1.07-.87-.48-1.79-.84-2.74-1.08-1.03-.25-2-.3-2.9-.14-1.37.24-2.62.87-3.75,1.88-.85.76-1.5,1.48-1.94,2.14-.02.03-.05.06-.08.09-.12.1-.12.15,0,.14.05,0,.11-.03.15-.07,1.55-1.64,3.41-2.55,5.6-2.71.76-.05,1.48.07,2.16.38Zm-1.14,6.59c-.04.14-.12.25-.25.33-.33.21-.33.32.01.31.33,0,.67-.04,1-.1.09-.02.18.05.2.14,0,.02,0,.04,0,.06-.08.55.1.63.54.23.12-.11.32-.08.45.07,0,0,.01.01.02.02l.31.38c.04.05.13.05.19,0,0,0,0,0,.01-.01.33-.32.64-.32.94.02.08.09.14.14.19.17.17.08.22-.03.14-.36-.04-.17-.01-.26.08-.27.06,0,.14.04.23.13.22.23.54.37.95.4.97.09,1.85-.14,2.63-.69.38-.27.34-.34-.1-.23-1.44.36-2.4-.12-2.89-1.44-.03-.08-.11-.13-.19-.12-1.67.15-3.33.04-4.96-.34-1-.23-2.01-.43-3.02-.6-.11-.02-.11,0-.02.04l3.46,1.64c.08.04.13.12.11.19Zm9.09,9.77c.27.2.55.23.85.07.22-.11.45-.21.69-.29.16-.05.41-.08.73-.08.29,0,.57-.04.85-.12.33-.09.47-.28.45-.55,0-.08-.08-.15-.17-.17-.82-.15-1.48.01-2,.47-.54.48-1.01.41-1.41-.21-.16-.25-.26-.48-.29-.69-.02-.11-.07-.19-.14-.19-.06,0-.1.06-.13.17-.16.66.02,1.19.57,1.6Z"/>
      <path class="cls-71" d="m37.57,16.89c-.05.14-.25.37-.58.68-3.12,2.91-5.62,6.48-7.5,10.71-2.21,4.99-2.98,10.21-2.31,15.65.27,2.22.72,4.42,1.33,6.57.8,2.85,1.35,4.87,1.65,6.07.34,1.38.47,2.84.38,4.38-.11,1.95-.79,3.54-2.04,4.78-.7.69-1.77,1.3-3.2,1.83-1.81.66-3.68,1.17-5.59,1.52-2.58-4.08-4.59-8.52-6.03-13.33-1.99-6.65-2.95-13.36-2.88-20.15,0-.28-.02-.47-.07-.58.28-.68.82-1.64,1.61-2.9,3.42-5.46,7.4-10.16,11.94-14.11.02.33.21.45.57.36,3.36-.84,6.78-1.29,10.25-1.34.82-.01,1.65-.06,2.47-.14Z"/>
      <path class="cls-66" d="m55.16,36.72c-.02-.1-.06-.19-.14-.26.32-.24.62-.51.9-.81.45-.49.73-.78.83-.88,2.18-2.14,3.82-4.65,4.9-7.53.23-.61.57-1.78,1.02-3.53.55-2.14,1.5-4.15,2.83-6.04.03-.05.07-.08.1-.09.09-.05.11-.02.05.1-.95,1.83-1.5,3.77-1.65,5.84-.07.93-.15,1.86-.25,2.78-.12,1.13-.32,2.04-.57,2.72-.62,1.64-1.63,3.04-3.03,4.19-1.57,1.29-3.22,2.46-4.96,3.5Z"/>
      <path class="cls-57" d="m73.59,26.17c-2.19.16-4.06,1.06-5.6,2.71-.04.05-.1.07-.15.07-.12,0-.12-.04,0-.14.04-.03.06-.06.08-.09.45-.66,1.09-1.38,1.94-2.14,1.13-1.02,2.39-1.64,3.75-1.88.9-.16,1.86-.11,2.9.14.95.24,1.87.6,2.74,1.08.49.27.91.63,1.25,1.07.41.53.46,1.08.14,1.66-.21.37-.51.48-.91.32-.73-.29-1.4-.69-2.01-1.18-.61-.5-1.28-.91-1.98-1.23-.68-.31-1.4-.44-2.16-.38Z"/>
      <path class="cls-58" d="m89.32,55.33c-.36.33-.73.65-1.11.96-.1.08-.15.07-.15-.04,0-.06.03-.12.09-.16,2.66-2.39,4.69-5.29,6.09-8.67,1.57-3.79,1.08-7.23-1.45-10.31-.3-.37-1.06-1.05-2.26-2.04-1.78-1.47-2.89-3.33-3.33-5.6-.02-.09,0-.18.05-.2,0,0,.02,0,.03,0,.05,0,.09.07.13.19.53,1.47,1.32,2.74,2.36,3.82.76.79,1.71,1.7,2.85,2.73,1.41,1.28,2.43,2.76,3.07,4.46.64,1.68.83,3.42.57,5.2-.29,2.04-1.13,3.89-2.52,5.56-.98,1.18-2.08,2.24-3.29,3.17-.4.31-.77.62-1.12.94Z"/>
      <path class="cls-64" d="m74.5,32.95l-3.46-1.64c-.1-.05-.09-.06.02-.04,1.01.17,2.02.37,3.02.6,1.64.38,3.29.49,4.96.34.08,0,.16.04.19.12.49,1.31,1.45,1.79,2.89,1.44.45-.11.48-.04.1.23-.79.55-1.67.78-2.63.69-.41-.04-.73-.17-.95-.4-.08-.09-.17-.14-.23-.13-.09,0-.12.1-.08.27.08.32.03.44-.14.36-.05-.02-.11-.08-.19-.17-.3-.34-.61-.35-.94-.02-.06.06-.14.06-.19.02,0,0,0,0,0,0l-.31-.38c-.12-.15-.32-.2-.45-.1,0,0-.01,0-.02.01-.44.4-.62.32-.54-.23.01-.09-.05-.18-.15-.2-.02,0-.04,0-.06,0-.34.06-.67.09-1,.1-.34,0-.34-.1-.01-.31.13-.08.22-.19.25-.33.02-.07-.03-.15-.11-.19Z"/>
      <path class="cls-78" d="m65.26,33.42c.02.24,0,.47-.08.69-.5,1.46-1.2,3-2.09,4.61-.15.27-.28.59-.38.96-.09.3-.14.64-.16,1.02-.15,3.04.35,6.19,1.5,9.46.66,1.88,1.6,3.46,2.83,4.74.93.98,2.41,1.99,4.44,3.04,1.83.94,3.65,1.71,5.46,2.3,1.74.57,3.65.88,5.72.93.07.02.1.05.09.09,0,.02-.03.04-.06.06-1.2.62-2.48.85-3.84.68-1.67-.2-3.35-.69-5.03-1.46-1.16-.53-2.18-1.02-3.08-1.47-1.56-.79-2.56-1.31-3.01-1.58-1.46-.88-2.71-1.97-3.76-3.27-.51-.63-.86-1.41-1.05-2.32-.37-1.74-1.05-3.35-2.06-4.82-.83-1.22-1.94-2.08-3.33-2.59-.08-.32-.13-.65-.14-.99,0-.26-.02-.23-.03.1,0,.06,0,.06,0,0-.02-.31-.08-.61-.18-.91,0-.02-.04-.19-.1-.52-.05-.26-.21-.46-.48-.59-.05-.06-.12-.09-.21-.07.45-.47.77-.78.97-.92,2.58-1.93,4.23-3.2,4.94-3.81.95-.82,1.99-1.94,3.12-3.36Z"/>
      <path class="cls-63" d="m10.73,35.02c.05.11.07.3.07.58-.07,6.78.89,13.5,2.88,20.15,1.44,4.81,3.45,9.25,6.03,13.33-1.97.59-3.66,1.33-5.08,2.21-1.8,1.12-3.19,2.72-4.17,4.8-.88,1.89-1.07,3.82-.55,5.8.37,1.43,1.06,2.67,2.07,3.71,1.02,1.06,2.25,1.84,3.71,2.36,1.1.39,2.2.78,3.3,1.18.38.14.71.31.98.51.29.21.48.51.55.89.2,1.04-.19,1.55-1.16,1.53-.09,0-.62-.1-1.58-.29-2.99-.6-5.29.43-6.91,3.1-4.83-8.71-7.43-18.06-7.78-28.05-.39-11.02,2-21.42,7.16-31.2.14-.27.3-.47.48-.59Z"/>
      <path class="cls-80" d="m55.01,36.46c.08.07.13.16.14.26l-1.05.76c-.11.08-.26.08-.36-.01-.37-.33-.74-.58-1.12-.74-.64-.28-1.18-.15-1.62.38-.47.58-.58,1.32-.32,2.23.02.07.08.12.14.11.01,0,.02,0,.03-.01.09-.06.1-.18.05-.36-.14-.5-.09-.94.16-1.31.24-.35.56-.53.94-.52.37,0,.73.18,1.1.52.12.11.12.29,0,.41,0,.01-.02.02-.03.03l-2.77,2.25s-.1.03-.14-.01c0,0-.01-.02-.01-.03-.35-1-.5-1.92-.45-2.76.12-2,1.18-2.8,3.18-2.4.32.06,1.02.47,2.12,1.21Z"/>
      <path class="cls-66" d="m57.4,36.21c-2.34,2.34-4.59,4.68-6.75,7.03-1.07,1.17-2.25,2.93-3.54,5.29-1.25,2.29-2,4.47-2.27,6.55-.12.92-.17,2.24-.16,3.97,0,1.21-.09,2.18-.28,2.91-.92,3.46-3.07,5.7-6.45,6.7-1.21.36-2.42.52-3.64.48-1.25-.04-2.47-.27-3.66-.69-.27-.09-.27-.15-.01-.18.04,0,.08,0,.13,0,3.1.54,5.93.02,8.48-1.57,2.91-1.81,4.38-4.48,4.4-8.01,0-.23.02-.48.04-.75.03-.29.04-.54.03-.75-.35-6.03,1.65-11.08,5.98-15.14,2.48-2.32,5.01-4.32,7.6-6,.46-.3.5-.25.11.13Z"/>
      <path class="cls-70" d="m83.7,42.92c-.54-.41-.73-.95-.57-1.6.03-.11.07-.16.13-.17.06,0,.12.08.14.19.03.21.13.44.29.69.4.62.87.69,1.41.21.51-.46,1.18-.61,2-.47.09.02.16.08.17.17.03.28-.12.46-.45.55-.28.08-.56.12-.85.12-.32,0-.57.03-.73.08-.24.08-.47.17-.69.29-.3.16-.58.14-.85-.07Z"/>
      <path class="cls-65" d="m56.22,41.52c.09-.02.16,0,.21.07-.17,0-.25.08-.24.22,0,.15,0,.24,0,.28-.04.13-.09.25-.17.36-.07-.15-.17-.26-.31-.35.1-.24.27-.44.51-.58Z"/>
      <path class="cls-75" d="m56.43,41.59c.27.13.43.33.48.59.06.33.1.5.1.52.09.29.15.6.18.91,0,.06,0,.06,0,0,.02-.32.03-.35.03-.1,0,.34.05.66.14.99l-.55,1.07c-.04.08-.01.17.06.21,0,0,0,0,0,0,1.14.49,2.03,1.28,2.68,2.36,2.02,3.38,2.29,6.87.81,10.47-.38.91-.98,1.77-1.82,2.57-.21-.05-.38-.01-.52.1-.19.16-.3.24-.31.25-1.69.89-3.17.91-4.46.05-1-.67-1.73-1.76-2.2-3.26-.69-2.24-.5-4.64.58-7.18.09-.22.17-.45.22-.68.03-.15.14-.23.31-.24-.41,1.58-.4,3.08.03,4.5.26.85.75,1.48,1.48,1.91.57.33,1.15.44,1.75.33.63-.11,1.18-.42,1.66-.93.5-.54.87-1.16,1.12-1.86.91-2.21.77-4.27-.42-6.19-.31-.49-.63-.86-.97-1.11-.45-.33-.94-.49-1.45-.47-.29,0-.39-.08-.31-.25.05-.1.07-.19.06-.26-.11-.91-.4-1.75-.9-2.53l1-.93c.11.02.18.06.21.14.06.14.1.22.12.24.28.26.43.14.46-.37.08-.11.14-.23.17-.36,0-.03,0-.12,0-.28,0-.15.07-.22.24-.22Z"/>
      <path class="cls-77" d="m55.71,42.1c.13.09.24.21.31.35-.03.5-.18.63-.46.37-.02-.02-.06-.1-.12-.24-.03-.08-.1-.12-.21-.14l.48-.34Z"/>
      <path class="cls-68" d="m54.23,43.37c.49.77.79,1.62.9,2.53,0,.07-.02.16-.06.26-.09.18.02.26.31.25.51-.01.99.15,1.45.47.34.25.66.62.97,1.11,1.19,1.92,1.33,3.98.42,6.19-.08-.42-.09-.84-.02-1.27.26-1.6-.03-3.08-.86-4.44-.96-1.56-2.16-1.75-3.6-.59-.59.47-1.1,1.26-1.55,2.35-.17,0-.28.09-.31.24-.05.23-.13.46-.22.68-1.08,2.55-1.28,4.94-.58,7.18.46,1.5,1.2,2.58,2.2,3.26,1.28.86,2.77.85,4.46-.05.02,0,.12-.09.31-.25.14-.11.31-.15.52-.1-.64.82-1.53,1.41-2.67,1.77-1.16.37-2.22.29-3.18-.25-.87-.49-1.57-1.33-2.09-2.51-.57-1.29-.86-2.64-.88-4.05-.04-2.94.75-5.59,2.36-7.96.33-.49.69-.88,1.07-1.16.39-.29.85-.57,1.37-.82.07-.03.1-.12.07-.19,0,0,0-.01,0-.02-.38-.58-.81-1.01-1.29-1.3-.07-.04-.09-.13-.06-.19.25-.44.58-.83.98-1.15Z"/>
      <path class="cls-66" d="m85.76,48.26c-1.39.03-2.73.34-4,.93-.09.04-.13.02-.12-.06,0-.05.05-.1.1-.12.54-.27,1.05-.59,1.52-.97.59-.48,1.24-.85,1.94-1.11.51-.19,1.02-.28,1.53-.27,1.38.03,1.52.72.42,2.06-.12.15-.34.17-.49.05-.02-.02-.04-.04-.05-.06-.1-.13-.23-.24-.38-.33-.13-.08-.28-.11-.47-.11Z"/>
      <path class="cls-81" d="m58.2,54.18c-.24.7-.62,1.32-1.12,1.86-.47.51-1.02.82-1.66.93-.6.11-1.18,0-1.75-.33-.73-.43-1.22-1.06-1.48-1.91-.43-1.42-.44-2.93-.03-4.5.44-1.09.96-1.87,1.55-2.35,1.44-1.16,2.64-.97,3.6.59.84,1.36,1.13,2.84.86,4.44-.07.43-.07.85.02,1.27Zm-3.9,2.21c1.25.12,2.44-1.68,2.66-4.02.22-2.34-.62-4.32-1.88-4.44-1.25-.12-2.44,1.68-2.66,4.02-.22,2.34.62,4.32,1.88,4.44Z"/>
      <ellipse class="cls-61" cx="54.7" cy="52.16" rx="4.25" ry="2.28" transform="translate(-2.29 101.81) rotate(-84.7)"/>
      <path class="cls-61" d="m81.45,49.96c-.13-.08-.12-.13.04-.15.89-.07,1.72-.19,2.49-.36,1.35-.31,2.36.12,3.01,1.29.17.31.2.65.08,1.02-.06.2-.27.32-.47.28-1.88-.37-3.6-1.06-5.15-2.07Z"/>
      <path class="cls-74" d="m109.62,44.5c.17.2.42.25.77.16.27-.07.61-.05,1.05.06.08.02.13.1.14.2l.08,2.51c-.24.22-.34.49-.3.79.07.42.1.63.1.65.08,13.62.1,27.24.07,40.87,0,.51-.14.53-.41.06-.67-1.18-1.26-2.42-1.77-3.7.1-.16.02-.31,0-.49-.04-.26.06-.42.06-.44v-40.26l.22-.41Z"/>
      <path class="cls-59" d="m100.84,75.19c0-.3.01-1.84,0-1.98-.1-12.56-.1-25.15-.01-37.75,0-.17.1-.31.21-.31h0l3.39.05c.08,0,.14.1.14.21l.02,43.78c0,.19-.04.21-.12.06-1.11-1.29-1.13-1.31-2.23-2.51,0,0-.86-.83-1.31-1.27-.09-.08-.08-.22-.1-.29Z"/>
      <path class="cls-60" d="m109.53,86.93l-2.58-4.25c-.42-.56-.3-1.62-.3-1.99l.02-38.99c0-.1.06-.18.13-.18,0,0,0,0,0,0l2.6.09c0,14.64,0,29.24,0,43.87l.12,1.46Z"/>
      <path class="cls-73" d="m93.57,55.38c-.35-.08-.6-.03-.75.16-2.49,3.2-3.63,6.77-3.41,10.72.07,1.23.38,2.6.93,4.1-.12.27-.27.26-.47-.04-.91-1.4-1.37-2.94-1.39-4.62-.02-1.64.22-3.24.73-4.8.72-2.19,1.75-4.22,3.1-6.09.05-.07.14-.11.23-.09.16.02.31.05.47.07.13.02.28.02.43,0,.8-.14.85.07.13.6Z"/>
      <path class="cls-68" d="m93.57,55.38c-.1.28-.23.54-.39.8-1.23,1.92-2.03,4.01-2.41,6.26-.5,2.96-.08,5.83,1.27,8.59.13.27.08.31-.16.13-.33-.25-.72-.53-1.17-.83-.12-.08-.24-.07-.36.03-.55-1.5-.86-2.86-.93-4.1-.22-3.94.91-7.52,3.41-10.72.15-.19.4-.24.75-.16Z"/>
      <path class="cls-78" d="m70.13,63.72c-2-.88-3.96-1.84-5.88-2.89-.72-.39-1.63-.59-2.74-.59l1.13-3.33c.06-.17.14-.19.26-.05.35.43.75.85,1.21,1.26.37.32.83.66,1.4,1.02,2.12,1.34,4.33,2.52,6.62,3.56.31.14.29.23-.04.27-.65.08-1.3.33-1.96.75Z"/>
      <path class="cls-78" d="m56.22,85.61c-1.07,2.84-4.01,6.18-7.31,8.07-.02.01-.06.03-.11.04-.09.02-.08.08,0,.16l-16.09,3.16c-.09.02-.17.07-.23.14-.29.39-.26.62.12.68.13.02.32.01.58-.03,4.97-.87,9.94-1.72,14.92-2.55,1.87-.31,3.26-.49,4.17-.55.88.27,1.12.85.71,1.75-.73,1.61-1.78,3.09-3.13,4.43-2.93,2.9-5.15,5.76-6.67,8.59-1.18,2.2-2.3,4.05-3.35,5.55-1.1,1.56-2.54,2.88-4.31,3.97-.08.05-.17.07-.26.05-.42-.1-.8-.28-1.15-.54.86-1.72,1.03-3.41.49-5.07-.63-1.92-1.78-4.72-3.46-8.39-.15-.33-.22-.32-.2.03,0,.05,0,.09.02.15.7,2.92,1.26,5.65,1.68,8.19.22,1.34.24,2.72.06,4.17-2.22-1.31-4.31-2.8-6.29-4.45-.75-2.86-.94-5.74-.6-8.61.25-2.05.79-3.72,1.64-5,1.08-1.63,2.6-2.86,4.54-3.69,2.07-.88,4.14-1.76,6.21-2.63,1.27-.54,2.56-1.27,3.86-2.21,1.32-.95,2.41-1.94,3.27-2.97,1.84-2.24,3.03-4.86,3.55-7.87.33-1.91.49-3.7.49-5.37v-13.23c0-.23.05-.24.16-.04.26.52.61,1.03,1.06,1.53,1.22,1.37,2.73,1.95,4.51,1.71,1.07-.14,2.17-.54,3.32-1.19.02.13-.04.32-.19.57-1.31,2.2-1.85,4.69-1.62,7.47,0,0,.7,11.16-.37,13.99Z"/>
      <path class="cls-79" d="m118.1,64.7c.19.35.29.57.32.65,2.16,5.89,3.84,11.91,5.04,18.06-1.26,4.12-3,8.03-5.23,11.72,0-.04,0-.08,0-.12-.04-.13-.06-.2-.06-.22l-.08-30.09Z"/>
      <path class="cls-61" d="m46.11,70.52l.02-.05c.03-.05.04-.05.04.01-.02.4-.08,1.29-.19,2.69-.2,2.39-1.02,4.37-2.48,5.92-1.24,1.32-2.85,2.25-4.82,2.79-2.11.57-4.3.57-6.55-.03-2.36-.62-4.43-1.76-6.2-3.43-.04-.03-.07-.07-.1-.11-.24-.37-.18-.41.2-.1.25.21.5.41.75.62.27.23.53.41.79.55,3.43,1.81,6.96,1.9,10.59.28,3.85-1.72,6.43-4.58,7.73-8.58,0-.02.02-.1.03-.22,0-.09.05-.16.12-.21.02-.02.05-.06.09-.14Z"/>
      <path class="cls-80" d="m90.9,72.2c1.06,1.29,2.3,2.38,3.7,3.26,1.3.82,2.09,1.34,2.35,1.56,1.5,1.23,2.8,2.65,3.9,4.28-.37,0-.72-.09-1.03-.29-.78-.5-1.46-1.12-2.03-1.86-.39-.5-.83-.93-1.33-1.29-.24-.18-.79-.46-1.62-.85-1.33-.61-2.43-1.39-3.32-2.33-.63-.66-.83-1.49-.62-2.48Z"/>
      <path class="cls-58" d="m20.25,82.16c-2.22-1.92-3.07-4.42-2.57-7.5.01-.09.04-.09.07,0,.01.03.03.06.04.08.01.03.02.05.02.08.08,3.14,1.42,5.59,3.99,7.34,2.51,1.7,5.35,2.57,8.54,2.6.25,0,.25.02,0,.05-.92.11-1.82.13-2.68.06-.87-.07-1.75-.2-2.64-.38-1.84-.38-3.43-1.16-4.77-2.32Z"/>
      <path class="cls-78" d="m96.83,81.38c-.18.26-.18.51,0,.77.3.45.61.89.93,1.33.43.59.61,1.15.56,1.7-.04.37-.27.51-.71.41,0-.03.03-.05.05-.06.04-.02.04-.03,0-.05-.36-.17-.81-.43-1.35-.78-.95-.61-1.35-1.42-1.21-2.43.06-.43.23-.74.5-.93.35-.24.76-.23,1.23.03Z"/>
      <path class="cls-80" d="m95.27,85.69c.15.89.38,1.76.69,2.61.16.44.21.88.14,1.34-1.42-.36-2.15-1.23-2.18-2.61-.02-.86.43-1.3,1.34-1.33Z"/>
      <path class="cls-78" d="m97.33,117.18c-.34.45-.68.51-.99.16-.23-.25-.36-.38-.37-.4-1.7-1.49-3.31-3.07-4.83-4.74-.97-1.06-1.83-2.2-2.58-3.42-.82-1.34-1.41-2.63-1.77-3.87-.77-2.71-.61-5.38.47-8.03.32-.77.78-1.62,1.38-2.54.69-1.06,1.3-1.82,1.81-2.27.44-.39.64-.83.58-1.31-.17-1.41-.19-2.83-.06-4.24l1.47-.74c.12-.06.16-.02.13.11-.28,1.15-.29,2.23-.02,3.24.02.08,0,.18-.05.24-1.18,1.36-1.29,2.88-.32,4.55.06.1.07.21.04.32-.18.69-.3,1.33-.36,1.9-.06.58-.02,1.22.11,1.92.46,2.42,1.48,4.59,3.06,6.52.06.07.09.16.09.25-.04,3.95.62,7.74,2,11.35.14.37.21.7.22.99Z"/>
      <path class="cls-70" d="m65.66,92.16c.44-.52.85-.89,1.22-1.11,1-.58,2.06-1.04,3.17-1.38,2.13-.66,4.26-1.33,6.38-2,.34-.11.36-.07.05.12-1.42.89-2.9,1.67-4.44,2.35-.41.18-1.14.46-2.21.84-.74.27-1.48.56-2.2.86-1.05.45-1.83,1.19-2.33,2.21-.21.43-.32.4-.34-.07-.02-.65.21-1.26.7-1.84Z"/>
      <path class="cls-67" d="m94.07,90.28c.05.89.23,1.63.51,2.23.38.79.61,1.62.68,2.49.06.74.33,1.39.8,1.96,1.3,1.59,2.68,3.1,4.14,4.55,2.44,2.42,4.45,5.21,6.03,8.37.06.11.04.25-.05.35-.77.89-1.58,1.6-2.43,2.15-.31-.69-1.07-2.31-2.29-4.86-.4-.83-.94-1.49-1.64-1.98-2.18-1.53-3.93-3.44-5.26-5.75-.72-1.24-1.06-2.57-1.03-4,.01-.55.4-.85,1.17-.88.15,0,.18-.06.06-.17-.67-.66-1.15-1.35-1.43-2.09-.4-1.02-.15-1.82.73-2.37Z"/>
      <path class="cls-76" d="m52.26,94.73c-.91.06-2.3.24-4.17.55-4.98.82-9.95,1.67-14.92,2.55-.25.04-.44.05-.58.03-.37-.06-.41-.29-.12-.68.05-.07.13-.12.23-.14l16.09-3.16c1.24-.18,2.49-.35,3.74-.51.92-.11,1.7-.02,2.36.28,1.06.48,1.5,1.28,1.32,2.39-.04.26-.14.28-.29.07-.93-1.27-2.15-1.73-3.67-1.39Z"/>
      <path class="cls-64" d="m34.1,118.52l-1.41-.92c.18-1.44.16-2.83-.06-4.17-.42-2.54-.98-5.27-1.68-8.19-.01-.05-.02-.1-.02-.15-.02-.35.05-.36.2-.03,1.68,3.67,2.83,6.46,3.46,8.39.54,1.66.38,3.35-.49,5.07Z"/>
      <rect class="cls-77" x="21.63" y="108.16" width="5.19" height=".19" rx=".07" ry=".07" transform="translate(-84.36 130.96) rotate(-89.2)"/>
      <path class="cls-78" d="m62.85,117.52l-3.02,2.44c-.14.11-.21.08-.19-.1.13-1.75.57-3.3,1.33-4.65.15-.27.24-.51.25-.71,0-.1-.02-.11-.09-.03-.72.86-1.4,1.74-2.05,2.65-1.03,1.45-1.58,3.04-1.65,4.79-.02.43-.1.77-.25,1.04-.17.3-.37.61-.61.92-.41.53-.81,1.19-1.2,1.97-.43.02-.75-.02-.95-.12-.25-.13-.39-.4-.35-.67.34-2.45,1.23-4.58,2.65-6.39,3.12-3.96,6.36-7.83,9.7-11.61.06-.07.08-.06.04.02-.62,1.44-1.23,2.89-1.83,4.34-.81,1.97-1.4,4-1.77,6.1Z"/>
      <path class="cls-64" d="m91.39,120.44c-4.31-3.9-9.28-5.78-14.91-5.62-1.86.05-3.71.34-5.57.87-5.4,1.55-9.78,4.68-13.13,9.41-.23.32-.37.67-.44,1.06l-1.98-.31c.39-.78.79-1.43,1.2-1.97.24-.31.44-.62.61-.92.15-.27.23-.62.25-1.04.07-1.75.61-3.35,1.65-4.79.65-.91,1.33-1.79,2.05-2.65.07-.08.1-.07.09.03-.01.2-.1.44-.25.71-.76,1.35-1.2,2.9-1.33,4.65-.01.18.05.21.19.1l3.02-2.44c3.64-2.45,7.41-3.9,11.32-4.35,7.31-.84,13.58,1.25,18.81,6.27.04.04.05.11,0,.15,0,0-.02.02-.03.02l-1.58.82Z"/>
      <path class="cls-71" d="m91.39,120.44c-6.07,3.05-12.64,4.98-19.71,5.78-5,.57-9.78.55-14.34-.06.07-.39.21-.74.44-1.06,3.35-4.73,7.72-7.86,13.13-9.41,1.86-.53,3.71-.82,5.57-.87,5.64-.16,10.61,1.71,14.91,5.62Z"/>
      <path class="cls-69" d="m109.62,49.37c-4.6-6.85-7.38-9.51-11.85-13.58-3.24-2.95-6.66-5.68-10.25-8.19-.32-.22-.49-.53-.52-.91-.16-1.99,0-3.98.49-5.99.19-.79.31-1.36.37-1.71.11-.72.18-1.3.21-1.75.22-3.65-1.02-6.52-3.74-8.62-2.28-1.76-4.87-2.71-7.77-2.84-2-.09-3.81.43-5.43,1.56-.08.05-.17.07-.26.05-2.04-.45-4.08-.71-6.11-.78-1.75-.06-3.63.05-5.63.34-8.12,1.16-15.31,4.47-21.56,9.94-.82.08-1.65.12-2.47.14-3.47.05-6.89.5-10.25,1.34-.36.09-.55-.03-.57-.36C36.36,7.68,50.32,2.67,66.18,3c1.93.04,3.81.16,5.63.36,9.07,1.01,17.44,3.91,25.11,8.7,6.12,3.82,11.47,8.6,16.05,14.32,1.18,1.48,2.29,3,3.31,4.57,7.1,10.83,10.44,22.92,10,36.29-.18,5.72-1.12,11.11-2.81,16.17-1.2-6.16-2.88-12.18-5.04-18.06-.03-.08-.14-.3-.32-.65,0,0-2.89-7.93-8.48-15.33Z"/>
    </g>
  </g>
</svg>