<svg width="71" height="55" viewBox="0 0 71 55" fill="none" xmlns="http://www.w3.org/2000/svg">
<g clip-path="url(#clip0_92_259)">
<path d="M69.4147 22.598C67.7063 21.4481 63.2171 20.9569 59.9534 21.836C59.7774 18.5852 58.1014 15.8458 55.0349 13.4556L53.8997 12.6936L53.1432 13.8362C51.656 16.0936 51.0294 19.1012 51.2515 21.8351C51.4265 23.5194 52.0126 25.413 53.1432 26.7868C48.8954 29.2507 44.9802 28.6914 27.6408 28.6914H0.869658C0.791336 32.6065 1.42067 40.1383 6.21025 46.2695C6.73915 46.9467 7.31965 47.6019 7.94898 48.233C11.8429 52.1325 17.7263 54.9917 26.524 55C39.9456 55.012 51.445 47.7576 58.4395 30.2164C60.7412 30.2541 66.8171 30.6292 69.7906 24.8831C69.8634 24.7864 70.5471 23.3591 70.5471 23.3591L69.4137 22.5971L69.4147 22.598ZM18.3408 19.0173H10.8128V26.5454H18.3408V19.0173ZM28.0665 19.0173H20.5384V26.5454H28.0665V19.0173ZM37.7922 19.0173H30.2641V26.5454H37.7922V19.0173ZM47.5178 19.0173H39.9898V26.5454H47.5178V19.0173ZM8.61518 19.0173H1.08711V26.5454H8.61518V19.0173ZM18.3408 9.50913H10.8128V17.0372H18.3408V9.50913ZM28.0665 9.50913H20.5384V17.0372H28.0665V9.50913ZM37.7922 9.50913H30.2641V17.0372H37.7922V9.50913ZM37.7922 0H30.2641V7.52806H37.7922V0Z" fill="#1D63ED"/>
</g>
<defs>
<clipPath id="clip0_92_259">
<rect width="69.6839" height="55" fill="white" transform="translate(0.864136)"/>
</clipPath>
</defs>
</svg>
