<svg width="22" height="21" viewBox="0 0 22 21" fill="none" xmlns="http://www.w3.org/2000/svg">
<path fill-rule="evenodd" clip-rule="evenodd" d="M10.9964 0C8.42605 0.0013336 5.93999 0.911696 3.98276 2.5683C2.02552 4.22491 0.724726 6.51974 0.312971 9.04245C-0.0987831 11.5652 0.405347 14.1512 1.73523 16.3383C3.06511 18.5253 5.13401 20.1707 7.572 20.9802C8.10986 21.0801 8.31246 20.7467 8.31246 20.4633C8.31246 20.1798 8.3017 19.358 8.29811 18.4595C5.28609 19.1102 4.64963 17.1885 4.64963 17.1885C4.15839 15.9406 3.44841 15.6126 3.44841 15.6126C2.46592 14.9459 3.52192 14.9584 3.52192 14.9584C4.61019 15.035 5.18212 16.069 5.18212 16.069C6.14668 17.7144 7.71543 17.2384 8.33218 16.9603C8.42899 16.2633 8.71048 15.7891 9.02064 15.5199C6.61461 15.249 4.08667 14.3255 4.08667 10.2004C4.07176 9.13061 4.47102 8.09603 5.20184 7.31073C5.09068 7.03976 4.71955 5.9452 5.30761 4.45846C5.30761 4.45846 6.2166 4.16966 8.28557 5.56193C10.0602 5.07939 11.9326 5.07939 13.7072 5.56193C15.7744 4.16966 16.6816 4.45846 16.6816 4.45846C17.2714 5.94164 16.9003 7.0362 16.7891 7.31073C17.5223 8.09615 17.9224 9.13254 17.9061 10.204C17.9061 14.338 15.3728 15.249 12.9632 15.5146C13.3504 15.8497 13.6964 16.5039 13.6964 17.5094C13.6964 18.9498 13.6839 20.1085 13.6839 20.4633C13.6839 20.7503 13.8793 21.0854 14.4279 20.9802C16.8662 20.1706 18.9353 18.5249 20.2652 16.3375C21.595 14.1501 22.0989 11.5636 21.6867 9.04069C21.2744 6.51775 19.973 4.2229 18.0151 2.56657C16.0572 0.910251 13.5706 0.000488298 11 0H10.9964Z" fill="#1D3557"/>
<path d="M4.2692 15.4575C4.2459 15.511 4.15984 15.527 4.08992 15.4896C4.02 15.4522 3.96801 15.3826 3.99311 15.3274C4.01821 15.2721 4.10247 15.2578 4.17239 15.2953C4.24231 15.3327 4.2961 15.404 4.2692 15.4575Z" fill="#1D3557"/>
<path d="M4.70856 15.9441C4.67143 15.9627 4.62895 15.9679 4.58839 15.9587C4.54784 15.9496 4.51173 15.9268 4.48624 15.8941C4.41632 15.8193 4.40197 15.7159 4.45576 15.6695C4.50954 15.6232 4.60637 15.6446 4.67629 15.7194C4.74621 15.7943 4.76234 15.8977 4.70856 15.9441Z" fill="#1D3557"/>
<path d="M5.13529 16.5629C5.06895 16.6092 4.956 16.5629 4.89325 16.4702C4.87589 16.4536 4.8621 16.4336 4.85267 16.4116C4.84324 16.3895 4.83838 16.3658 4.83838 16.3418C4.83838 16.3179 4.84324 16.2942 4.85267 16.2721C4.8621 16.2501 4.87589 16.2301 4.89325 16.2135C4.95958 16.1689 5.07254 16.2135 5.13529 16.3044C5.19804 16.3953 5.19983 16.5165 5.13529 16.5629V16.5629Z" fill="#1D3557"/>
<path d="M5.71437 17.1617C5.65521 17.2277 5.53509 17.2099 5.43648 17.1207C5.33787 17.0316 5.31456 16.9104 5.37372 16.8462C5.43289 16.782 5.55301 16.7998 5.6552 16.8872C5.7574 16.9745 5.77712 17.0975 5.71437 17.1617V17.1617Z" fill="#1D3557"/>
<path d="M6.52653 17.5111C6.49964 17.5949 6.37772 17.6323 6.25581 17.5967C6.13389 17.561 6.05321 17.4612 6.07652 17.3756C6.09983 17.29 6.22354 17.2508 6.34725 17.29C6.47095 17.3293 6.54984 17.4237 6.52653 17.5111Z" fill="#1D3557"/>
<path d="M7.41235 17.5717C7.41235 17.6591 7.31195 17.7339 7.18286 17.7357C7.05378 17.7375 6.948 17.6662 6.948 17.5788C6.948 17.4915 7.04839 17.4166 7.17748 17.4148C7.30657 17.413 7.41235 17.4826 7.41235 17.5717Z" fill="#1D3557"/>
<path d="M8.23688 17.4345C8.25301 17.5218 8.16337 17.6127 8.03428 17.6341C7.9052 17.6555 7.79225 17.6038 7.77611 17.5183C7.75997 17.4327 7.8532 17.34 7.9787 17.3168C8.10421 17.2936 8.22074 17.3471 8.23688 17.4345Z" fill="#1D3557"/>
</svg>
