<?xml version="1.0" encoding="UTF-8"?>
<svg id="Logo" xmlns="http://www.w3.org/2000/svg" xmlns:xlink="http://www.w3.org/1999/xlink" viewBox="0 0 192 192">
  <defs>
    <style>
      .cls-1 {
        fill: #87acdb;
        filter: url(#drop-shadow-2);
      }

      .cls-2 {
        fill: url(#radial-gradient);
        filter: url(#drop-shadow-1);
      }
    </style>
    <radialGradient id="radial-gradient" cx="96.25" cy="95.58" fx="96.25" fy="95.58" r="79.68" gradientUnits="userSpaceOnUse">
      <stop offset="0" stop-color="#87acdb"/>
      <stop offset="1" stop-color="#213f99"/>
    </radialGradient>
    <filter id="drop-shadow-1" filterUnits="userSpaceOnUse">
      <feOffset dx="0" dy="3"/>
      <feGaussianBlur result="blur" stdDeviation="6"/>
      <feFlood flood-color="#231f20" flood-opacity=".16"/>
      <feComposite in2="blur" operator="in"/>
      <feComposite in="SourceGraphic"/>
    </filter>
    <filter id="drop-shadow-2" filterUnits="userSpaceOnUse">
      <feOffset dx="0" dy="1"/>
      <feGaussianBlur result="blur-2" stdDeviation="3"/>
      <feFlood flood-color="#231f20" flood-opacity=".12"/>
      <feComposite in2="blur-2" operator="in"/>
      <feComposite in="SourceGraphic"/>
    </filter>
  </defs>
  <g id="Blue2">
    <g>
      <path class="cls-2" d="M120.02,39.46c-6.86,10.78-13.96,21.32-20.82,32.1,3.22,.2,13.4,1.25,22.39,9.27,10.93,9.75,12.04,22.61,12.22,25.56,.13,2.16,.76,16.7-10.41,28.28-9.03,9.36-22.87,13.78-36.19,10.41-12.34-3.12-21.83-12.32-25.79-23.07-.45-1.22-3.98-11.24-.9-22.39,1.7-6.18,5.5-11.75,7.07-14.31,0,0,26.35-40.8,36.82-57.29l-30.54-18.44-37.32,57.23c-3.96,6.01-10.63,18.32-12.27,31.5-4.69,29.12,11.89,51.6,13.86,54.23,14.71,19.77,35.1,25.56,40.49,26.92,4.89,1.23,30.69,7.18,56.1-8.6,23.84-14.79,30.6-38.3,32.12-44.34,1.59-6.28,6.22-28.11-5.66-51.35-13.63-26.44-35.86-33.57-41.16-35.72Z"/>
      <circle class="cls-1" cx="96.25" cy="108.89" r="18.38"/>
    </g>
  </g>
</svg>