<svg width="21" height="22" viewBox="0 0 21 22" fill="none" xmlns="http://www.w3.org/2000/svg">
<path d="M13.1272 4.81598C12.3769 5.99504 11.6003 7.14785 10.85 8.32691C11.2022 8.34879 12.3156 8.46363 13.2989 9.34082C14.4944 10.4072 14.6158 11.8138 14.6355 12.1364C14.6497 12.3727 14.7186 13.963 13.4969 15.2296C12.5092 16.2533 10.9955 16.7368 9.5386 16.3682C8.18891 16.0269 7.15094 15.0207 6.71782 13.8449C6.6686 13.7114 6.2825 12.6155 6.61938 11.396C6.80532 10.72 7.22094 10.1108 7.39266 9.83082C7.39266 9.83082 10.2747 5.36832 11.4198 3.56473L8.07953 1.54785L3.99766 7.80738C3.56453 8.46473 2.835 9.81113 2.65563 11.2527C2.14266 14.4377 3.9561 16.8964 4.17157 17.1841C5.78047 19.3464 8.01063 19.9797 8.60016 20.1285C9.135 20.263 11.9569 20.9138 14.7361 19.1879C17.3436 17.5702 18.083 14.9988 18.2492 14.3382C18.4231 13.6513 18.9295 11.2636 17.6302 8.72176C16.1394 5.82988 13.708 5.05004 13.1283 4.81488L13.1272 4.81598Z" fill="url(#paint0_radial_4_6)"/>
<path d="M10.5273 14.4202C11.6376 14.4202 12.5377 13.5201 12.5377 12.4098C12.5377 11.2996 11.6376 10.3995 10.5273 10.3995C9.41708 10.3995 8.51704 11.2996 8.51704 12.4098C8.51704 13.5201 9.41708 14.4202 10.5273 14.4202Z" fill="#87ACDB"/>
<defs>
<radialGradient id="paint0_radial_4_6" cx="0" cy="0" r="1" gradientUnits="userSpaceOnUse" gradientTransform="translate(10.5273 10.9541) scale(8.715)">
<stop stop-color="#87ACDB"/>
<stop offset="1" stop-color="#213F99"/>
</radialGradient>
</defs>
</svg>
