<?xml version="1.0" encoding="UTF-8"?>
<svg id="Layer_2" data-name="Layer 2" xmlns="http://www.w3.org/2000/svg" viewBox="0 0 192 192">
  <defs>
    <style>
      .cls-1 {
        fill: #f1624f;
      }

      .cls-1, .cls-2, .cls-3, .cls-4, .cls-5, .cls-6, .cls-7, .cls-8, .cls-9, .cls-10, .cls-11, .cls-12, .cls-13, .cls-14, .cls-15, .cls-16, .cls-17, .cls-18, .cls-19, .cls-20, .cls-21, .cls-22, .cls-23, .cls-24, .cls-25, .cls-26 {
        stroke-width: 0px;
      }

      .cls-2 {
        fill: #bc6592;
      }

      .cls-27 {
        stroke: #f8aa94;
      }

      .cls-27, .cls-28, .cls-29, .cls-30, .cls-31, .cls-32, .cls-33, .cls-34, .cls-35, .cls-36, .cls-37, .cls-38, .cls-39, .cls-40, .cls-41, .cls-42, .cls-43, .cls-44, .cls-45, .cls-46, .cls-47, .cls-48, .cls-49, .cls-50, .cls-51, .cls-52, .cls-53, .cls-54, .cls-55, .cls-56, .cls-57, .cls-10, .cls-58, .cls-59, .cls-60, .cls-61, .cls-62, .cls-63, .cls-64, .cls-65, .cls-66, .cls-67, .cls-68, .cls-69, .cls-70, .cls-71, .cls-72, .cls-73, .cls-74, .cls-75, .cls-76, .cls-77, .cls-78, .cls-79, .cls-80, .cls-81, .cls-82, .cls-83 {
        fill: none;
      }

      .cls-27, .cls-28, .cls-29, .cls-30, .cls-31, .cls-32, .cls-33, .cls-34, .cls-35, .cls-36, .cls-37, .cls-38, .cls-39, .cls-40, .cls-41, .cls-42, .cls-43, .cls-44, .cls-45, .cls-46, .cls-47, .cls-48, .cls-49, .cls-50, .cls-51, .cls-52, .cls-53, .cls-54, .cls-55, .cls-56, .cls-57, .cls-58, .cls-59, .cls-60, .cls-61, .cls-62, .cls-63, .cls-64, .cls-65, .cls-66, .cls-67, .cls-68, .cls-69, .cls-70, .cls-71, .cls-72, .cls-73, .cls-74, .cls-75, .cls-76, .cls-77, .cls-78, .cls-79, .cls-80, .cls-81, .cls-82, .cls-83 {
        stroke-width: 2px;
      }

      .cls-28 {
        stroke: #a61f5d;
      }

      .cls-29 {
        stroke: #ef424e;
      }

      .cls-3 {
        fill: #352954;
      }

      .cls-4 {
        fill: #2a2a5f;
      }

      .cls-30 {
        stroke: #fbbd8f;
      }

      .cls-31 {
        stroke: #522767;
      }

      .cls-32 {
        stroke: #8d2654;
      }

      .cls-33 {
        stroke: #974552;
      }

      .cls-34 {
        stroke: #9b8f99;
      }

      .cls-35 {
        stroke: #f7ac9a;
      }

      .cls-36 {
        stroke: #9b4481;
      }

      .cls-37 {
        stroke: #912754;
      }

      .cls-38 {
        stroke: #c34d5c;
      }

      .cls-39 {
        stroke: #8f4657;
      }

      .cls-5 {
        fill: #de284d;
      }

      .cls-40 {
        stroke: #8b4c5b;
      }

      .cls-41 {
        stroke: #978e9f;
      }

      .cls-42 {
        stroke: #a11e5b;
      }

      .cls-6 {
        fill: #85267a;
      }

      .cls-7 {
        fill: #ee2449;
      }

      .cls-43 {
        stroke: #41276a;
      }

      .cls-44 {
        stroke: #5b266c;
      }

      .cls-45 {
        stroke: #c285ae;
      }

      .cls-46 {
        stroke: #935951;
      }

      .cls-47 {
        stroke: #95584e;
      }

      .cls-48 {
        stroke: #964858;
      }

      .cls-49 {
        stroke: #998e9b;
      }

      .cls-50 {
        stroke: #f4ae96;
      }

      .cls-8 {
        fill: #2b2b60;
      }

      .cls-9 {
        fill: #3a2951;
      }

      .cls-51 {
        stroke: #f8aa95;
      }

      .cls-52 {
        stroke: #f8ab95;
      }

      .cls-53 {
        stroke: #f9ac96;
      }

      .cls-54 {
        stroke: #9d464c;
      }

      .cls-55 {
        stroke: #958e9b;
      }

      .cls-56 {
        stroke: #da636c;
      }

      .cls-57 {
        stroke: #944552;
      }

      .cls-58 {
        stroke: #58276d;
      }

      .cls-59 {
        stroke: #a04250;
      }

      .cls-11 {
        fill: #412159;
      }

      .cls-60 {
        stroke: #9c2251;
      }

      .cls-61 {
        stroke: #852956;
      }

      .cls-62 {
        stroke: #934552;
      }

      .cls-63 {
        stroke: #744879;
      }

      .cls-12 {
        fill: #78256f;
      }

      .cls-64 {
        stroke: #f48a92;
      }

      .cls-13 {
        fill: #592872;
      }

      .cls-65 {
        stroke: #adc1e2;
      }

      .cls-14 {
        fill: #fcf6e5;
      }

      .cls-66 {
        stroke: #978fa0;
      }

      .cls-67 {
        stroke: #9591a2;
      }

      .cls-68 {
        stroke: #9f8a9e;
      }

      .cls-69 {
        stroke: #bb8ca9;
      }

      .cls-70 {
        stroke: #954653;
      }

      .cls-15 {
        fill: #f68746;
      }

      .cls-71 {
        stroke: #a45591;
      }

      .cls-72 {
        stroke: #9490a1;
      }

      .cls-73 {
        stroke: #445ca1;
      }

      .cls-16 {
        fill: #2e285d;
      }

      .cls-74 {
        stroke: #948fa0;
      }

      .cls-17 {
        fill: #f16249;
      }

      .cls-75 {
        stroke: #948e9c;
      }

      .cls-18 {
        fill: #ee2448;
      }

      .cls-19 {
        fill: #ee284a;
      }

      .cls-76 {
        stroke: #998f9d;
      }

      .cls-77 {
        stroke: #9590a2;
      }

      .cls-78 {
        stroke: #924553;
      }

      .cls-20 {
        fill: #f16046;
      }

      .cls-79 {
        stroke: #8a2450;
      }

      .cls-80 {
        stroke: #b81e5e;
      }

      .cls-81 {
        stroke: #dcaeba;
      }

      .cls-21 {
        fill: #fcf5e3;
      }

      .cls-82 {
        stroke: #f3b19c;
      }

      .cls-22 {
        fill: #e96c56;
      }

      .cls-83 {
        stroke: #8f2553;
      }

      .cls-23 {
        fill: #f5843f;
      }

      .cls-24 {
        fill: #e92142;
      }

      .cls-25 {
        fill: #6489c6;
      }

      .cls-26 {
        fill: #fef1d9;
      }
    </style>
  </defs>
  <g id="Logo">
    <rect class="cls-10" width="192" height="192"/>
    <g>
      <path class="cls-67" d="m56.48,172.29c12.36,6.49,25.44,9.76,39.24,9.81,15.45.06,29.8-3.78,43.06-11.49,2.16-1.26,4.26-2.62,6.31-4.07,7.36-5.24,13.75-11.41,19.17-18.52,13.35-17.52,19.17-37.27,17.45-59.26-.2-2.53-.51-5.01-.94-7.45-2.93-16.74-10.15-31.35-21.66-43.82-8.5-9.21-18.56-16.28-30.17-21.19-2.3-.97-4.65-1.83-7.05-2.57-8.25-2.55-16.57-3.85-24.95-3.92-20.31-.16-38.45,6.06-54.41,18.65-8.56,6.75-15.52,14.72-20.87,23.91-7.14,12.26-11,25.52-11.59,39.79-.1,2.49-.09,4.99.03,7.51.66,13.45,4.13,25.94,10.4,37.46,8.29,15.21,20.28,26.93,35.97,35.16" vector-effect="non-scaling-stroke"/>
      <path class="cls-45" d="m42.27,33.75c-6.04,5.25-11.33,11.5-15.88,18.76-1.05,1.67-1.76,2.96-2.14,3.86" vector-effect="non-scaling-stroke"/>
      <path class="cls-30" d="m24.26,56.36c-.23.17-.44.43-.63.79-6.86,13-10.03,26.83-9.52,41.48.47,13.29,3.91,25.72,10.34,37.29" vector-effect="non-scaling-stroke"/>
      <path class="cls-74" d="m24.45,135.92c.43.94,1.18,2.23,2.23,3.86,5.15,7.97,11.29,14.79,18.41,20.45" vector-effect="non-scaling-stroke"/>
      <path class="cls-51" d="m45.09,160.22c2.62,2.2,5.41,4.17,8.36,5.92" vector-effect="non-scaling-stroke"/>
      <path class="cls-41" d="m53.45,166.14l1.88,1.22" vector-effect="non-scaling-stroke"/>
      <path class="cls-51" d="m55.33,167.36c.46.34.97.58,1.52.71.11.03.24,0,.34-.06,2.36-1.44,4.27-3.2,5.73-5.28,1.4-1.99,2.89-4.44,4.46-7.37,2.02-3.76,4.98-7.56,8.87-11.41,1.8-1.78,3.19-3.74,4.16-5.89.54-1.2.23-1.97-.94-2.33" vector-effect="non-scaling-stroke"/>
      <path class="cls-34" d="m79.47,135.73c2.01-.45,3.64.16,4.87,1.85.21.28.33.25.39-.09.24-1.48-.35-2.54-1.75-3.18-.87-.4-1.92-.52-3.14-.38-1.66.2-3.32.43-4.98.67" vector-effect="non-scaling-stroke"/>
      <path class="cls-51" d="m74.87,134.6c-.12-.11-.12-.18,0-.21.07-.02.12-.04.15-.05,4.4-2.52,7.64-6.1,9.72-10.73.05-.11.13-.14.26-.1" vector-effect="non-scaling-stroke"/>
      <path class="cls-74" d="m85,123.51c1.52,5.89,2.41,9.46,2.64,10.7.29,1.53.68,2.84,1.17,3.94.2.44.44.75.72.94.42.27.84.32,1.27.14.49-.2.77-.6.86-1.21.08-.55.01-1.09-.19-1.65-1.94-5.33-3.73-10.72-5.35-16.15" vector-effect="non-scaling-stroke"/>
      <path class="cls-68" d="m86.12,120.22l-.53-1.6" vector-effect="non-scaling-stroke"/>
      <path class="cls-51" d="m85.59,118.63l.18-.1c.09-.05.15-.16.15-.3-.1-4.41-.33-8.82-.69-13.22-.3-3.69.41-7,2.15-9.93.2-.34.29-.59.26-.76" vector-effect="non-scaling-stroke"/>
      <path class="cls-74" d="m87.64,94.32c1.59-1.28,2.97-2.76,4.13-4.44" vector-effect="non-scaling-stroke"/>
      <path class="cls-52" d="m91.77,89.88c1.47,0,2.69.27,3.64.79,2.55,1.39,5.16,2.67,7.82,3.84" vector-effect="non-scaling-stroke"/>
      <path class="cls-74" d="m103.23,94.51c-.53.63-.89,1.26-1.1,1.89-1.2,3.58-1.2,7.2.01,10.87.96,2.91,2.74,5.19,5.34,6.82,1.67,1.05,3.07,1.75,4.2,2.1,6.08,1.9,12.32,3.47,18.7,4.74.14.03.15.07.02.14-7.22,3.77-14.43,7.59-21.61,11.49-.21.11-.2.17.01.17.04,0,.08,0,.11-.02,7.35-2.59,14.69-5.21,22.01-7.85" vector-effect="non-scaling-stroke"/>
      <path class="cls-51" d="m130.93,124.84c-.17,1.88-.14,3.76.09,5.64.08.64-.18,1.22-.77,1.74-.69.6-1.49,1.6-2.41,3.01-.8,1.22-1.41,2.35-1.83,3.37-1.44,3.51-1.66,7.07-.63,10.67.47,1.65,1.25,3.36,2.35,5.15.99,1.61,2.14,3.13,3.43,4.54,2.03,2.21,4.17,4.31,6.43,6.3.02.02.18.19.49.53.42.46.86.38,1.32-.22" vector-effect="non-scaling-stroke"/>
      <path class="cls-74" d="m139.39,165.57c3.04-1.88,5.89-4,8.54-6.38" vector-effect="non-scaling-stroke"/>
      <path class="cls-27" d="m147.93,159.19c1.13-.72,2.2-1.68,3.23-2.85.11-.13.14-.31.06-.47-2.11-4.2-4.78-7.91-8.02-11.12-1.94-1.92-3.77-3.94-5.5-6.05-.63-.76-.98-1.63-1.06-2.61-.1-1.16-.4-2.26-.91-3.31-.38-.79-.61-1.78-.68-2.97" vector-effect="non-scaling-stroke"/>
      <path class="cls-74" d="m135.06,129.82c.81-.34,1.65-.51,2.54-.52.29,0,.35-.12.17-.34" vector-effect="non-scaling-stroke"/>
      <path class="cls-35" d="m137.76,128.96c.08-.61.02-1.2-.19-1.78-.41-1.13-.72-2.28-.92-3.47" vector-effect="non-scaling-stroke"/>
      <path class="cls-74" d="m136.65,123.71c1.01-.37,2.04-.41,3.1-.12" vector-effect="non-scaling-stroke"/>
      <path class="cls-52" d="m139.75,123.59c.57.13.89-.05.94-.55.08-.72-.17-1.47-.74-2.25-.42-.58-.84-1.17-1.24-1.77-.23-.35-.23-.69,0-1.03" vector-effect="non-scaling-stroke"/>
      <path class="cls-74" d="m138.72,117.99c1.01-.53,2.06-.59,3.14-.18.72.27,1.41.51,2.05.71.12.04.23.11.31.21.29.34.5.56.65.66.32.24.33.11.03-.38-.25-.4-.53-.78-.85-1.13" vector-effect="non-scaling-stroke"/>
      <path class="cls-35" d="m144.06,117.88c-1.46-2.16-3.19-4.06-5.18-5.69-.35-.29-1.39-.98-3.12-2.07-1.86-1.17-3.5-2.62-4.92-4.34" vector-effect="non-scaling-stroke"/>
      <path class="cls-74" d="m130.83,105.78c-.27-.63-.17-.76.31-.39.11.09.21.16.29.2,1.47.86,3,1.58,4.6,2.14,1.63.57,2.59.93,2.89,1.08.93.45,1.81.99,2.64,1.62,1.55,1.17,2.97,2.46,4.28,3.87,1.04,1.12,2.21,2.63,3.52,4.54,5.31,7.78,9.57,16.13,12.78,25.07.05.14.12.15.2.03,1.71-2.44,3.33-5,4.84-7.66" vector-effect="non-scaling-stroke"/>
      <path class="cls-65" d="m167.18,136.28c2.96-4.91,5.28-10.1,6.95-15.59" vector-effect="non-scaling-stroke"/>
      <path class="cls-64" d="m174.13,120.69c2.25-6.73,3.5-13.9,3.74-21.5.57-17.77-3.86-33.85-13.3-48.24-1.36-2.08-2.83-4.11-4.41-6.07-6.09-7.61-13.2-13.96-21.33-19.04-10.2-6.37-21.32-10.23-33.37-11.57-2.42-.27-4.92-.43-7.49-.48-21.07-.43-39.64,6.22-55.7,19.96" vector-effect="non-scaling-stroke"/>
      <path class="cls-71" d="m174.13,120.69c-1.59-8.18-3.83-16.19-6.7-24.01-.04-.11-.18-.4-.43-.87" vector-effect="non-scaling-stroke"/>
      <path class="cls-79" d="m167,95.81c-2.41-5.86-5.26-11.5-8.57-16.9" vector-effect="non-scaling-stroke"/>
      <path class="cls-42" d="m158.42,78.91l-.11-2.98c0-.11-.08-.21-.18-.23-.57-.14-1.04-.16-1.39-.07-.45.11-.79.05-1.02-.19" vector-effect="non-scaling-stroke"/>
      <path class="cls-79" d="m155.73,75.44c-4.55-6.63-9.81-12.65-15.76-18.06-4.31-3.92-8.85-7.55-13.63-10.89-.42-.3-.65-.7-.69-1.21-.21-2.64.01-5.29.65-7.96.25-1.04.42-1.8.49-2.28.15-.95.24-1.73.28-2.32.3-4.85-1.36-8.67-4.98-11.45-3.03-2.34-6.48-3.6-10.33-3.78-2.66-.12-5.07.57-7.21,2.08-.1.07-.23.1-.35.07-2.71-.6-5.42-.95-8.12-1.04-2.33-.08-4.82.07-7.48.45-10.8,1.54-20.35,5.94-28.66,13.22" vector-effect="non-scaling-stroke"/>
      <path class="cls-80" d="m59.94,32.26c-1.09.11-2.19.17-3.29.18-4.61.07-9.16.66-13.63,1.78-.48.12-.73-.04-.75-.48" vector-effect="non-scaling-stroke"/>
      <path class="cls-43" d="m155.73,75.44l-.3.48" vector-effect="non-scaling-stroke"/>
      <path class="cls-83" d="m155.43,75.92l-3.46-.1c-.1,0-.18.08-.18.19,0,0,0,0,0,0l-.02,42.45c0,.4.13.82.39,1.24l3.19,5.12" vector-effect="non-scaling-stroke"/>
      <path class="cls-43" d="m155.35,124.82c.67,1.52,1.46,2.99,2.35,4.39.36.56.54.54.54-.07.04-16.17.01-32.35-.09-48.52,0-.02-.04-.27-.13-.77-.06-.36.07-.68.39-.94" vector-effect="non-scaling-stroke"/>
      <path class="cls-73" d="m167,95.81l.1,40.01s.03.13.08.3c.01.05.02.11.01.17" vector-effect="non-scaling-stroke"/>
      <path class="cls-39" d="m130.83,105.78c-.28,1.32,0,2.41.82,3.29,1.18,1.25,2.65,2.28,4.41,3.09,1.11.51,1.83.89,2.16,1.13.66.49,1.25,1.06,1.77,1.72.76.97,1.66,1.8,2.69,2.47.42.27.88.4,1.37.39" vector-effect="non-scaling-stroke"/>
      <path class="cls-78" d="m138.72,117.99c-.63-.35-1.17-.36-1.63-.05-.37.25-.59.66-.66,1.24-.18,1.34.36,2.42,1.61,3.23.72.47,1.32.81,1.79,1.04.04.02.04.04,0,.06-.04.02-.06.04-.07.08" vector-effect="non-scaling-stroke"/>
      <path class="cls-39" d="m136.65,123.71c-1.21.04-1.81.63-1.78,1.77.04,1.84,1,2.99,2.9,3.47" vector-effect="non-scaling-stroke"/>
      <path class="cls-62" d="m135.06,129.82c-1.17.74-1.5,1.79-.97,3.15.38.98,1.01,1.91,1.9,2.78.15.14.12.22-.09.23-1.02.05-1.54.44-1.55,1.17-.04,1.9.42,3.68,1.37,5.32,1.77,3.06,4.11,5.61,7,7.64.92.65,1.65,1.52,2.17,2.63,1.61,3.39,2.63,5.54,3.04,6.46" vector-effect="non-scaling-stroke"/>
      <path class="cls-70" d="m139.39,165.57c-.01-.39-.11-.83-.3-1.31-1.83-4.81-2.71-9.84-2.66-15.09,0-.12-.04-.24-.12-.33-2.1-2.56-3.46-5.45-4.07-8.66-.18-.92-.22-1.77-.14-2.55.08-.77.24-1.61.48-2.53.04-.14.02-.3-.06-.42-1.28-2.22-1.14-4.24.43-6.04.08-.09.1-.21.07-.32-.36-1.35-.35-2.79.02-4.31.05-.18-.01-.23-.17-.15l-1.96.99" vector-effect="non-scaling-stroke"/>
      <path class="cls-78" d="m103.23,94.51c.87-.56,1.74-.89,2.6-1,.44-.06.46-.17.05-.36-3.04-1.38-5.97-2.95-8.8-4.73-.76-.48-1.38-.93-1.86-1.36-.61-.54-1.14-1.1-1.6-1.68-.15-.19-.26-.16-.34.06l-1.51,4.42" vector-effect="non-scaling-stroke"/>
      <path class="cls-70" d="m87.64,94.32c-1.52.87-2.99,1.39-4.41,1.58-2.37.31-4.37-.45-5.99-2.28-.59-.67-1.06-1.35-1.4-2.03-.14-.27-.21-.26-.21.05v17.59c0,2.22-.22,4.6-.66,7.14-.69,4-2.27,7.49-4.72,10.46-1.14,1.38-2.59,2.69-4.35,3.95-1.74,1.24-3.45,2.22-5.14,2.94-2.75,1.16-5.5,2.33-8.25,3.5-2.58,1.1-4.6,2.74-6.04,4.91-1.12,1.7-1.85,3.91-2.18,6.64-.46,3.83-.2,7.64.79,11.45" vector-effect="non-scaling-stroke"/>
      <path class="cls-47" d="m24.45,135.92c2.15-3.55,5.22-4.92,9.19-4.12,1.28.26,1.98.39,2.1.39,1.29.02,1.8-.66,1.54-2.04-.1-.51-.34-.9-.73-1.18-.37-.26-.8-.49-1.31-.67-1.46-.53-2.92-1.05-4.39-1.57-1.94-.68-3.59-1.73-4.94-3.14-1.33-1.39-2.25-3.03-2.75-4.94-.69-2.62-.45-5.19.73-7.71,1.29-2.77,3.14-4.89,5.54-6.38,1.88-1.17,4.13-2.14,6.75-2.93" vector-effect="non-scaling-stroke"/>
      <path class="cls-58" d="m36.2,101.63c2.54-.46,5.01-1.14,7.43-2.02,1.91-.7,3.33-1.51,4.26-2.43,1.66-1.65,2.56-3.76,2.71-6.35.12-2.04-.06-3.98-.51-5.82-.4-1.59-1.13-4.28-2.19-8.07-.81-2.87-1.4-5.78-1.76-8.74-.89-7.24.13-14.17,3.07-20.81,2.49-5.63,5.82-10.37,9.97-14.24.45-.42.7-.72.77-.9" vector-effect="non-scaling-stroke"/>
      <path class="cls-28" d="m155.35,124.82c.14-.19.19-.39.15-.6-.05-.31-.08-.48-.08-.5v-47.8" vector-effect="non-scaling-stroke"/>
      <path class="cls-38" d="m36.2,101.63c-3.44-5.42-6.11-11.33-8.02-17.72-2.65-8.84-3.92-17.77-3.83-26.78,0-.37-.03-.62-.09-.77" vector-effect="non-scaling-stroke"/>
      <path class="cls-59" d="m85.59,118.63l-4.32-13.1c-.03-.07-.1-.12-.16-.1,0,0,0,0,0,0-.07.03-.08.09-.03.18.04.07.07.13.08.18,1.14,5.52,2.36,11.02,3.65,16.5" vector-effect="non-scaling-stroke"/>
      <path class="cls-70" d="m84.81,122.29l.19,1.22" vector-effect="non-scaling-stroke"/>
      <path class="cls-54" d="m74.87,134.6l-21.39,4.2c-.12.02-.23.09-.3.18-.39.52-.34.83.15.91.18.03.43.02.77-.04,6.61-1.16,13.22-2.29,19.83-3.38,2.49-.41,4.33-.66,5.54-.74" vector-effect="non-scaling-stroke"/>
      <path class="cls-33" d="m55.33,167.36c1.15-2.29,1.37-4.53.65-6.74-.83-2.56-2.37-6.27-4.6-11.15-.2-.44-.29-.42-.27.04,0,.06.01.13.03.2.93,3.88,1.67,7.51,2.23,10.89.3,1.78.32,3.62.08,5.54" vector-effect="non-scaling-stroke"/>
      <path class="cls-49" d="m97.29,132.31c-.65.76-.95,1.58-.92,2.44.02.64.17.67.45.1.67-1.37,1.7-2.35,3.1-2.94.97-.41,1.94-.79,2.93-1.15,1.41-.51,2.39-.89,2.93-1.12,2.04-.9,4-1.94,5.9-3.12.41-.26.38-.31-.07-.17-2.82.9-5.65,1.79-8.48,2.66-1.47.45-2.88,1.06-4.21,1.83-.49.29-1.03.78-1.62,1.47" vector-effect="non-scaling-stroke"/>
      <path class="cls-41" d="m83.6,177.11l2.63.41" vector-effect="non-scaling-stroke"/>
      <path class="cls-45" d="m86.23,177.51c6.06.81,12.41.83,19.06.08,9.39-1.06,18.13-3.63,26.2-7.68" vector-effect="non-scaling-stroke"/>
      <path class="cls-41" d="m131.49,169.91l2.1-1.09c.07-.03.09-.12.06-.19,0-.02-.02-.03-.03-.04-6.96-6.68-15.29-9.46-25.01-8.34-5.2.6-10.21,2.53-15.05,5.78" vector-effect="non-scaling-stroke"/>
      <path class="cls-52" d="m93.56,166.03c.49-2.79,1.27-5.49,2.35-8.11.8-1.93,1.61-3.85,2.43-5.77.05-.12.03-.13-.05-.03-4.45,5.02-8.75,10.16-12.9,15.43-1.9,2.41-3.07,5.24-3.53,8.5-.05.37.14.73.47.89.28.14.7.19,1.27.16" vector-effect="non-scaling-stroke"/>
      <path class="cls-57" d="m93.56,166.03l-4.02,3.25c-.19.15-.28.11-.26-.13.17-2.32.76-4.38,1.77-6.18.2-.36.31-.67.33-.94.01-.14-.03-.15-.12-.04-.95,1.14-1.86,2.32-2.73,3.53-1.37,1.92-2.1,4.05-2.19,6.37-.02.57-.13,1.03-.33,1.39-.22.4-.49.81-.81,1.22-.54.71-1.08,1.58-1.6,2.61" vector-effect="non-scaling-stroke"/>
      <path class="cls-44" d="m131.49,169.91c-5.73-5.19-12.34-7.68-19.83-7.47-2.47.07-4.93.46-7.4,1.16-7.18,2.06-13,6.23-17.45,12.51-.3.42-.49.89-.58,1.4" vector-effect="non-scaling-stroke"/>
      <path class="cls-75" d="m64.47,171.73c1.83.89,3.83,1.68,5.99,2.35.2.06.41.02.56-.12l15.8-14.09c.53-.47.49-.52-.11-.14-5.35,3.39-10.8,6.69-16.35,9.93-1.16.68-2.08,1.12-2.78,1.33-.96.3-1.98.47-3.07.51-.32.01-.33.09-.05.23" vector-effect="non-scaling-stroke"/>
      <path class="cls-37" d="m105.71,24.12c-3.29-1.14-6.68-1.29-10.18-.44-4.75,1.15-8.57,3.69-11.45,7.61-1.66,2.25-3.1,4.78-4.34,7.6-4.41,10.02-11.78,16.98-22.09,20.88-.56.21-.58.33-.08.36.08,0,.16-.01.24-.04,1.46-.55,2.92-1.12,4.38-1.69,7.82-3.09,14.09-8.11,18.82-15.05.65-.95,2.43-3.47,5.34-7.54.64-.89,1.24-1.67,1.8-2.31.63-.74,1.28-1.47,1.95-2.18,2.01-2.15,4.35-3.86,7-5.13,3.48-1.68,7.06-1.93,10.75-.75.1.03.21-.01.27-.11.57-.91,1.32-1.63,2.26-2.17,2.91-1.66,5.84-1.69,8.8-.1,1.37.74,2.37,1.77,3,3.11.94,2,1.14,4.12.59,6.36-.55,2.22-1.54,4.21-2.99,5.96-.1.12-.07.18.07.17.17-.01.37-.11.59-.28,1.72-1.36,2.9-2.96,3.55-4.8.64-1.84.73-3.73.25-5.69-.5-2.04-1.59-3.74-3.28-5.1-2.07-1.66-4.47-2.61-7.22-2.87-1.5-.14-2.68-.13-3.54.03-1.21.22-2.3.77-3.27,1.64-.66.59-.95,1.35-.88,2.27,0,.14-.1.27-.24.28-.04,0-.07,0-.1-.01" vector-effect="non-scaling-stroke"/>
      <path class="cls-78" d="m96.75,54.23c-1.5,1.9-2.89,3.39-4.15,4.47-.95.81-3.14,2.5-6.57,5.07-.27.2-.7.61-1.29,1.23" vector-effect="non-scaling-stroke"/>
      <path class="cls-63" d="m84.73,65c-.31.19-.54.44-.67.77" vector-effect="non-scaling-stroke"/>
      <path class="cls-31" d="m84.06,65.77l-.64.45" vector-effect="non-scaling-stroke"/>
      <path class="cls-74" d="m83.42,66.22l-1.33,1.24" vector-effect="non-scaling-stroke"/>
      <path class="cls-40" d="m82.09,67.46c-.54.43-.97.93-1.3,1.52-.05.09-.02.21.08.26.64.38,1.21.96,1.71,1.73.06.09.03.2-.06.26,0,0-.01,0-.02.01-.69.34-1.3.7-1.82,1.09-.5.38-.98.89-1.42,1.54-2.14,3.15-3.18,6.67-3.14,10.58.03,1.88.41,3.67,1.16,5.38.69,1.57,1.61,2.68,2.78,3.33,1.28.71,2.69.82,4.23.33,1.51-.49,2.69-1.27,3.55-2.35" vector-effect="non-scaling-stroke"/>
      <path class="cls-74" d="m87.83,91.13c1.11-1.06,1.92-2.2,2.42-3.42,1.97-4.79,1.61-9.43-1.08-13.92-.86-1.44-2.04-2.48-3.56-3.13-.1-.04-.15-.17-.1-.28,0,0,0,0,0-.01l.73-1.42" vector-effect="non-scaling-stroke"/>
      <path class="cls-78" d="m86.25,68.96c1.84.68,3.32,1.83,4.42,3.45,1.33,1.95,2.25,4.08,2.73,6.4.26,1.21.72,2.24,1.39,3.08,1.39,1.73,3.05,3.18,5,4.35.6.36,1.94,1.06,4.01,2.1,1.19.6,2.56,1.25,4.1,1.95,2.24,1.02,4.47,1.67,6.69,1.94,1.81.22,3.51-.08,5.11-.9.05-.03.08-.06.09-.09,0-.05-.03-.08-.12-.12" vector-effect="non-scaling-stroke"/>
      <path class="cls-72" d="m119.66,91.13c1.65-.15,2.83-.85,3.54-2.1.41-.71.57-1.55.5-2.51-.07-.88-.28-1.73-.63-2.56-.55-1.31-.27-2.46.85-3.44.25-.21.21-.36-.11-.43-.94-.22-1.86-.57-2.78-1.04-.53-.27-1.33-.83-2.41-1.66-1.04-.8-2.11-1.55-3.23-2.25-.11-.07-.1-.11.02-.14,1.86-.49,3.57-1.27,5.14-2.35.9-.63,1.54-1.03,1.9-1.2.65-.3,1.36-.57,2.13-.79.13-.04.21-.18.17-.31,0,0,0,0,0,0-.15-.46-.24-.89-.28-1.3-.1-1.01.31-1.67,1.24-1.98,1.25-.41,2.18-1.15,2.78-2.22.33-.58.41-1.13.26-1.65-.16-.55-.51-1.04-1.05-1.46-2.08-1.61-4.29-3.66-6.62-6.15-.23-.24-.5-.69-.82-1.34-.23-.47-.34-.96-.32-1.49.03-.92.12-2.35.27-4.29.12-1.55-.14-3.28-.76-5.21-1.72-5.29-4.8-9.62-9.22-12.98-.71-.54-1.3-.77-1.75-.69-2.34.43-4.2,1.61-5.57,3.54-1.02,1.44-1.73,3.01-2.1,4.68-.06.27-.19,1.74-.39,4.42-.32,4.24-1.54,8.23-3.67,11.97" vector-effect="non-scaling-stroke"/>
      <path class="cls-53" d="m119.66,91.13c-2.76-.07-5.29-.48-7.61-1.24-2.41-.79-4.83-1.81-7.26-3.06-2.7-1.39-4.67-2.74-5.91-4.04-1.63-1.7-2.88-3.8-3.76-6.31-1.53-4.34-2.19-8.53-1.99-12.57.03-.51.1-.96.21-1.36.14-.5.31-.93.51-1.28,1.19-2.14,2.12-4.18,2.78-6.13.1-.3.14-.6.11-.92" vector-effect="non-scaling-stroke"/>
      <path class="cls-52" d="m86.25,68.96c-.11-.43-.17-.87-.18-1.31,0-.34-.02-.3-.04.13,0,.08,0,.08-.01,0-.03-.41-.11-.81-.23-1.21,0-.02-.05-.25-.13-.69-.07-.35-.28-.61-.64-.79" vector-effect="non-scaling-stroke"/>
      <path class="cls-56" d="m85.01,65.09c-.07-.08-.16-.11-.28-.09" vector-effect="non-scaling-stroke"/>
      <path class="cls-81" d="m85.01,65.09c-.22,0-.33.1-.32.3.01.2.01.33,0,.37-.05.17-.12.33-.23.48" vector-effect="non-scaling-stroke"/>
      <path class="cls-36" d="m84.46,66.24c-.09-.19-.23-.35-.41-.47" vector-effect="non-scaling-stroke"/>
      <path class="cls-82" d="m87.83,91.13c-.28-.06-.51-.02-.69.13-.26.21-.39.32-.41.33-2.25,1.19-4.22,1.21-5.92.06-1.33-.9-2.3-2.34-2.92-4.33-.92-2.98-.66-6.16.77-9.55.13-.29.22-.59.29-.9.05-.2.18-.3.41-.32" vector-effect="non-scaling-stroke"/>
      <path class="cls-68" d="m79.36,76.56c-.55,2.1-.53,4.09.04,5.99.34,1.13,1,1.97,1.96,2.54.75.44,1.52.59,2.32.44.84-.15,1.57-.56,2.2-1.24.67-.72,1.16-1.54,1.49-2.47" vector-effect="non-scaling-stroke"/>
      <path class="cls-82" d="m87.37,81.82c1.21-2.93,1.03-5.67-.56-8.23-.41-.65-.84-1.14-1.29-1.47-.6-.44-1.24-.65-1.92-.63-.39.01-.52-.1-.41-.33.07-.13.1-.25.09-.35-.14-1.21-.54-2.33-1.19-3.36" vector-effect="non-scaling-stroke"/>
      <path class="cls-69" d="m83.42,66.22c.15.02.24.08.28.18.08.19.13.29.16.32.37.34.57.18.61-.49" vector-effect="non-scaling-stroke"/>
      <path class="cls-48" d="m87.37,81.82c-.11-.56-.12-1.12-.02-1.69.35-2.13-.04-4.1-1.15-5.9-1.27-2.07-2.87-2.33-4.78-.78-.78.63-1.47,1.67-2.06,3.12" vector-effect="non-scaling-stroke"/>
      <path class="cls-39" d="m83.13,58.27c-1.46-.99-2.4-1.53-2.82-1.61-2.65-.53-4.06.53-4.23,3.19-.07,1.12.13,2.34.59,3.67.02.07.1.1.17.07.01,0,.02-.01.04-.02l3.68-3c.17-.14.2-.38.07-.55-.01-.01-.02-.03-.04-.04-.48-.45-.97-.68-1.46-.69-.52,0-.93.22-1.25.69-.33.49-.4,1.07-.21,1.74.07.24.04.4-.07.48-.06.05-.16.02-.21-.07-.01-.02-.02-.04-.02-.05-.34-1.21-.2-2.2.43-2.97.58-.7,1.3-.87,2.15-.5.5.22,1,.55,1.49.98.13.12.33.13.48.02l1.4-1.01" vector-effect="non-scaling-stroke"/>
      <path class="cls-32" d="m83.32,58.62c2.31-1.39,4.51-2.94,6.6-4.66,1.86-1.53,3.2-3.39,4.03-5.57.34-.9.6-2.11.76-3.62.14-1.23.25-2.47.34-3.7.2-2.75.94-5.33,2.2-7.76.08-.15.06-.2-.07-.13-.04.02-.08.06-.13.12-1.77,2.51-3.02,5.19-3.76,8.03-.6,2.32-1.06,3.88-1.36,4.69-1.43,3.83-3.6,7.17-6.51,10.01-.13.13-.5.52-1.1,1.16-.37.39-.76.75-1.19,1.07" vector-effect="non-scaling-stroke"/>
      <path class="cls-29" d="m83.32,58.62c-.02-.14-.08-.25-.19-.35" vector-effect="non-scaling-stroke"/>
      <path class="cls-61" d="m130.23,82.11c1.61-1.24,3.06-2.65,4.37-4.22,1.85-2.22,2.96-4.69,3.35-7.4.34-2.37.09-4.67-.75-6.91-.85-2.25-2.21-4.23-4.08-5.92-1.51-1.37-2.77-2.58-3.79-3.63-1.38-1.43-2.42-3.12-3.13-5.08-.06-.16-.11-.24-.18-.25-.07-.01-.12.08-.12.2,0,.02,0,.05,0,.07.59,3.01,2.06,5.49,4.42,7.44,1.6,1.32,2.61,2.23,3.01,2.72,3.36,4.1,4,8.67,1.92,13.71-1.86,4.5-4.55,8.35-8.09,11.53-.07.06-.11.14-.12.22,0,.15.06.17.2.06.51-.41,1-.84,1.48-1.28.46-.42.96-.84,1.49-1.25" vector-effect="non-scaling-stroke"/>
      <path class="cls-32" d="m86.31,57.94c.52-.51.47-.57-.14-.18-3.44,2.23-6.81,4.89-10.1,7.97-5.76,5.4-8.41,12.11-7.95,20.12.02.29,0,.62-.03,1-.04.37-.05.7-.06,1-.03,4.69-1.97,8.24-5.85,10.65-3.39,2.11-7.15,2.8-11.27,2.08-.06-.01-.12-.02-.17-.01-.34.03-.34.11.02.24,1.59.56,3.22.87,4.87.92,1.62.05,3.24-.16,4.84-.64,4.49-1.34,7.35-4.31,8.57-8.91.26-.97.38-2.26.37-3.87-.01-2.3.06-4.05.21-5.27.35-2.77,1.36-5.67,3.02-8.71,1.71-3.14,3.28-5.49,4.71-7.04,2.88-3.13,5.87-6.24,8.97-9.35" vector-effect="non-scaling-stroke"/>
      <path class="cls-32" d="m124.62,74.11c.2.12.37.27.5.44.16.2.45.24.65.08.03-.02.05-.05.07-.07,1.47-1.78,1.29-2.7-.55-2.74-.67-.02-1.35.1-2.04.35-.93.34-1.79.83-2.58,1.47-.63.51-1.3.94-2.02,1.3-.08.04-.13.1-.14.17-.02.12.04.14.16.09,1.69-.79,3.47-1.2,5.32-1.23.25,0,.45.04.62.15" vector-effect="non-scaling-stroke"/>
      <path class="cls-37" d="m118.27,76.21c2.06,1.35,4.34,2.27,6.84,2.76.27.05.54-.11.63-.37.16-.49.12-.94-.11-1.36-.87-1.55-2.2-2.12-4-1.71-1.02.23-2.13.39-3.31.48-.21.02-.22.08-.05.2" vector-effect="non-scaling-stroke"/>
      <path class="cls-46" d="m145.41,111.29c1.25,1.28,2.41,2.59,3.48,3.92.11.13.16.12.16-.05l-.02-39.13c0-.11-.08-.19-.18-.19l-4.51-.05c-.15,0-.28.12-.28.27h0c-.12,11.26-.11,22.51.02,33.74,0,.13.04.25.12.34.16.2.33.37.53.54.39.33.62.53.7.61" vector-effect="non-scaling-stroke"/>
      <path class="cls-40" d="m130.1,103.32c.16-.13.32-.14.48-.03.6.4,1.12.76,1.56,1.1.31.24.38.19.21-.17-1.78-3.68-2.34-7.49-1.68-11.42.5-2.99,1.57-5.77,3.2-8.32.21-.34.39-.69.52-1.06" vector-effect="non-scaling-stroke"/>
      <path class="cls-55" d="m134.38,83.42c.96-.72.9-.98-.17-.8-.2.03-.39.04-.57.01-.21-.03-.42-.06-.63-.09-.12-.02-.23.03-.3.12-1.8,2.48-3.17,5.18-4.12,8.09-.68,2.07-1,4.2-.97,6.38.03,2.23.65,4.28,1.85,6.14.26.4.47.42.62.06" vector-effect="non-scaling-stroke"/>
      <path class="cls-50" d="m134.38,83.42c-.47-.11-.8-.04-1,.21-3.32,4.26-4.82,9.01-4.53,14.25.09,1.64.5,3.45,1.24,5.45" vector-effect="non-scaling-stroke"/>
      <path class="cls-37" d="m71.17,103.74c-.09.07-.14.16-.15.28-.02.17-.03.26-.04.29-1.73,5.32-5.15,9.12-10.27,11.41-4.82,2.15-9.51,2.03-14.07-.37-.35-.18-.7-.42-1.06-.72-.33-.28-.66-.55-.99-.83-.5-.41-.59-.37-.26.13.04.05.08.1.13.15,2.35,2.22,5.1,3.74,8.24,4.56,3,.79,5.91.8,8.71.03,2.63-.72,4.76-1.95,6.41-3.71,1.94-2.07,3.04-4.7,3.3-7.88.15-1.85.24-3.04.26-3.57,0-.08-.01-.09-.05-.02l-.03.06c-.06.11-.1.17-.12.19" vector-effect="non-scaling-stroke"/>
      <path class="cls-61" d="m36.92,119.03c1.79,1.55,3.9,2.58,6.34,3.09,1.18.25,2.35.41,3.51.51,1.15.09,2.34.07,3.57-.08.33-.04.33-.06,0-.06-4.23-.04-8.01-1.19-11.35-3.45-3.43-2.32-5.19-5.57-5.31-9.75,0-.04-.01-.08-.03-.11-.02-.04-.03-.08-.05-.11-.05-.11-.08-.11-.1.01-.68,4.09.46,7.41,3.41,9.96" vector-effect="non-scaling-stroke"/>
      <path class="cls-31" d="m42.37,150.36c0-.05-.04-.1-.1-.1h-.05c-.05,0-.1.04-.1.1h0s-.09,6.7-.09,6.7c0,.05.04.1.1.1h.05c.05,0,.1-.04.1-.1l.09-6.7" vector-effect="non-scaling-stroke"/>
      <path class="cls-77" d="m110.69,45.1c.94.43,1.82.97,2.64,1.64.81.66,1.7,1.18,2.67,1.57.53.21.93.07,1.21-.43.43-.77.36-1.5-.18-2.2-.46-.59-1.02-1.06-1.67-1.42-1.16-.64-2.38-1.12-3.64-1.43-1.37-.34-2.66-.4-3.85-.19-1.82.32-3.48,1.16-4.99,2.51-1.13,1.01-1.99,1.96-2.58,2.84-.03.04-.07.08-.11.12-.16.13-.16.2,0,.19.07,0,.15-.04.2-.1,2.06-2.19,4.54-3.39,7.45-3.6,1.01-.07,1.97.1,2.87.51" vector-effect="non-scaling-stroke"/>
      <path class="cls-66" d="m109.18,53.86c-.05.18-.16.33-.34.44-.44.28-.44.42.02.42.44,0,.89-.05,1.33-.13.12-.02.24.06.27.19,0,.02,0,.05,0,.07-.11.73.13.84.72.3.16-.14.42-.1.59.09,0,0,.01.02.02.03l.41.51c.06.07.17.07.25,0,0,0,.01,0,.01-.01.44-.43.85-.42,1.25.03.1.12.18.19.25.22.23.11.29-.05.18-.47-.05-.23-.02-.34.1-.35.07,0,.19.06.3.18.29.31.71.49,1.27.54,1.29.12,2.45-.19,3.5-.92.5-.35.46-.45-.14-.3-1.91.47-3.19-.16-3.84-1.91-.04-.1-.14-.17-.25-.16-2.22.2-4.42.05-6.6-.45-1.33-.31-2.67-.58-4.01-.8-.15-.03-.15,0-.02.06l4.59,2.19c.11.05.17.16.14.26" vector-effect="non-scaling-stroke"/>
      <path class="cls-76" d="m121.27,66.85c.36.27.73.3,1.13.09.29-.15.59-.28.91-.38.22-.07.54-.11.97-.11.39,0,.76-.06,1.13-.16.43-.12.63-.37.59-.74-.01-.11-.1-.2-.22-.22-1.09-.19-1.97.02-2.66.62-.72.64-1.34.54-1.88-.28-.22-.34-.35-.64-.39-.92-.02-.15-.1-.26-.18-.26-.08,0-.14.08-.17.22-.22.87.03,1.58.75,2.13" vector-effect="non-scaling-stroke"/>
      <path class="cls-60" d="m82.2,84.76c1.66.15,3.25-2.24,3.54-5.34.29-3.1-.83-5.75-2.49-5.9-1.66-.15-3.25,2.24-3.54,5.34-.29,3.1.83,5.75,2.49,5.9" vector-effect="non-scaling-stroke"/>
      <path class="cls-21" d="m56.48,172.29c-15.7-8.24-27.69-19.96-35.97-35.16-6.28-11.52-9.74-24.01-10.4-37.46-.13-2.52-.14-5.03-.03-7.51.58-14.26,4.45-27.53,11.59-39.79,5.35-9.19,12.31-17.16,20.87-23.91,15.96-12.59,34.1-18.8,54.41-18.65,8.38.07,16.7,1.37,24.95,3.92,2.4.74,4.75,1.59,7.05,2.57,11.62,4.91,21.68,11.98,30.17,21.19,11.51,12.47,18.73,27.08,21.66,43.82.43,2.44.74,4.92.94,7.45,1.72,21.99-4.1,41.74-17.45,59.26-5.42,7.11-11.81,13.28-19.17,18.52-2.05,1.46-4.16,2.82-6.31,4.07-13.26,7.72-27.61,11.55-43.06,11.49-13.79-.05-26.87-3.32-39.24-9.81Zm28.75-67.28c-.3-3.69.41-7,2.15-9.93.2-.34.29-.59.26-.76,1.59-1.28,2.97-2.76,4.13-4.44,1.47,0,2.69.27,3.64.79,2.55,1.39,5.16,2.67,7.82,3.84-.53.63-.89,1.26-1.1,1.89-1.2,3.58-1.2,7.2.01,10.87.96,2.91,2.74,5.19,5.34,6.82,1.67,1.05,3.07,1.75,4.2,2.1,6.08,1.9,12.32,3.47,18.7,4.74.14.03.15.07.02.14-7.22,3.77-14.43,7.59-21.61,11.49-.21.11-.2.17.01.17.04,0,.08,0,.11-.02,7.35-2.59,14.69-5.21,22.01-7.85-.17,1.88-.14,3.76.09,5.64.08.64-.18,1.22-.77,1.74-.69.6-1.49,1.6-2.41,3.01-.8,1.22-1.41,2.35-1.83,3.37-1.44,3.51-1.66,7.07-.63,10.67.47,1.65,1.25,3.36,2.35,5.15.99,1.61,2.14,3.13,3.43,4.54,2.03,2.21,4.17,4.31,6.43,6.3.02.02.18.19.49.53.42.46.86.38,1.32-.22,3.04-1.88,5.89-4,8.54-6.38,1.13-.72,2.2-1.68,3.23-2.85.11-.13.14-.31.06-.47-2.11-4.2-4.78-7.91-8.02-11.12-1.94-1.92-3.77-3.94-5.5-6.05-.63-.76-.98-1.63-1.06-2.61-.1-1.16-.4-2.26-.91-3.31-.38-.79-.61-1.78-.68-2.97.81-.34,1.65-.51,2.54-.52.29,0,.35-.12.17-.34.08-.61.02-1.2-.19-1.78-.41-1.13-.72-2.28-.92-3.47,1.01-.37,2.04-.41,3.1-.12.57.13.89-.05.94-.55.08-.72-.17-1.47-.74-2.25-.42-.58-.84-1.17-1.24-1.77-.23-.35-.23-.69,0-1.03,1.01-.53,2.06-.59,3.14-.18.72.27,1.41.51,2.05.71.12.04.23.11.31.21.29.34.5.56.65.66.32.24.33.11.03-.38-.25-.4-.53-.78-.85-1.13-1.46-2.16-3.19-4.06-5.18-5.69-.35-.29-1.39-.98-3.12-2.07-1.86-1.17-3.5-2.62-4.92-4.34-.27-.63-.17-.76.31-.39.11.09.21.16.29.2,1.47.86,3,1.58,4.6,2.14,1.63.57,2.59.93,2.89,1.08.93.45,1.81.99,2.64,1.62,1.55,1.17,2.97,2.46,4.28,3.87,1.04,1.12,2.21,2.63,3.52,4.54,5.31,7.78,9.57,16.13,12.78,25.07.05.14.12.15.2.03,1.71-2.44,3.33-5,4.84-7.66,2.96-4.91,5.28-10.1,6.95-15.59,2.25-6.73,3.5-13.9,3.74-21.5.57-17.77-3.86-33.85-13.3-48.24-1.36-2.08-2.83-4.11-4.41-6.07-6.09-7.61-13.2-13.96-21.33-19.04-10.2-6.37-21.32-10.23-33.37-11.57-2.42-.27-4.92-.43-7.49-.48-21.07-.43-39.64,6.22-55.7,19.96-6.04,5.25-11.33,11.5-15.88,18.76-1.05,1.67-1.76,2.96-2.14,3.86-.23.17-.44.43-.63.79-6.86,13-10.03,26.83-9.52,41.48.47,13.29,3.91,25.72,10.34,37.29.43.94,1.18,2.23,2.23,3.86,5.15,7.97,11.29,14.79,18.41,20.45,2.62,2.2,5.41,4.17,8.36,5.92l1.88,1.22c.46.34.97.58,1.52.71.11.03.24,0,.34-.06,2.36-1.44,4.27-3.2,5.73-5.28,1.4-1.99,2.89-4.44,4.46-7.37,2.02-3.76,4.98-7.56,8.87-11.41,1.8-1.78,3.19-3.74,4.16-5.89.54-1.2.23-1.97-.94-2.33,2.01-.45,3.64.16,4.87,1.85.21.28.33.25.39-.09.24-1.48-.35-2.54-1.75-3.18-.87-.4-1.92-.52-3.14-.38-1.66.2-3.32.43-4.98.67-.12-.11-.12-.18,0-.21.07-.02.12-.04.15-.05,4.4-2.52,7.64-6.1,9.72-10.73m12.55,8.71c-.65.76-.95,1.58-.92,2.44.02.64.17.67.45.1.67-1.37,1.7-2.35,3.1-2.94.97-.41,1.94-.79,2.93-1.15,1.41-.51,2.39-.89,2.93-1.12,2.04-.9,4-1.94,5.9-3.12.41-.26.38-.31-.07-.17-2.82.9-5.65,1.79-8.48,2.66-1.47.45-2.88,1.06-4.21,1.83-.49.29-1.03.78-1.62,1.47Zm-13.69,44.79l2.63.41c6.06.81,12.41.83,19.06.08,9.39-1.06,18.13-3.63,26.2-7.68l2.1-1.09c.07-.03.09-.12.06-.19,0-.02-.02-.03-.03-.04-6.96-6.68-15.29-9.46-25.01-8.34-5.2.6-10.21,2.53-15.05,5.78.49-2.79,1.27-5.49,2.35-8.11.8-1.93,1.61-3.85,2.43-5.77.05-.12.03-.13-.05-.03-4.45,5.02-8.75,10.16-12.9,15.43-1.9,2.41-3.07,5.24-3.53,8.5-.05.37.14.73.47.89.28.14.7.19,1.27.16Z"/>
      <path class="cls-4" d="m130.4,121.06c.13-.07.12-.11-.02-.14-6.39-1.26-12.62-2.84-18.7-4.74-1.14-.35-2.54-1.05-4.2-2.1-2.6-1.63-4.38-3.9-5.34-6.82-1.21-3.67-1.22-7.3-.01-10.87.21-.62.58-1.25,1.1-1.89.87-.56,1.74-.89,2.6-1,.44-.06.46-.17.05-.36-3.04-1.38-5.97-2.95-8.8-4.73-.76-.48-1.38-.93-1.86-1.36-.61-.54-1.14-1.1-1.6-1.68-.15-.19-.26-.16-.34.06l-1.51,4.42c-1.16,1.69-2.54,3.17-4.13,4.44-1.52.87-2.99,1.39-4.41,1.58-2.37.31-4.37-.45-5.99-2.28-.59-.67-1.06-1.35-1.4-2.03-.14-.27-.21-.26-.21.05v17.59c0,2.22-.22,4.6-.66,7.14-.69,4-2.27,7.49-4.72,10.46-1.14,1.38-2.59,2.69-4.35,3.95-1.74,1.24-3.45,2.22-5.14,2.94-2.75,1.16-5.5,2.33-8.25,3.5-2.58,1.1-4.6,2.74-6.04,4.91-1.12,1.7-1.85,3.91-2.18,6.64-.46,3.83-.2,7.64.79,11.45-7.12-5.66-13.26-12.48-18.41-20.45-1.05-1.63-1.8-2.92-2.23-3.86,2.15-3.55,5.22-4.92,9.19-4.12,1.28.26,1.98.39,2.1.39,1.29.02,1.8-.66,1.54-2.04-.1-.51-.34-.9-.73-1.18-.37-.26-.8-.49-1.31-.67-1.46-.53-2.92-1.05-4.39-1.57-1.94-.68-3.59-1.73-4.94-3.14-1.33-1.39-2.25-3.03-2.75-4.94-.69-2.62-.45-5.19.73-7.71,1.29-2.77,3.14-4.89,5.54-6.38,1.88-1.17,4.13-2.14,6.75-2.93,2.54-.46,5.01-1.14,7.43-2.02,1.91-.7,3.33-1.51,4.26-2.43,1.66-1.65,2.56-3.76,2.71-6.35.12-2.04-.06-3.98-.51-5.82-.4-1.59-1.13-4.28-2.19-8.07-.81-2.87-1.4-5.78-1.76-8.74-.89-7.24.13-14.17,3.07-20.81,2.49-5.63,5.82-10.37,9.97-14.24.45-.42.7-.72.77-.9,8.31-7.27,17.87-11.68,28.66-13.22,2.66-.38,5.15-.53,7.48-.45,2.7.09,5.41.44,8.12,1.04.12.03.25,0,.35-.07,2.15-1.51,4.55-2.2,7.21-2.08,3.85.18,7.29,1.44,10.33,3.78,3.62,2.79,5.27,6.61,4.98,11.45-.04.6-.13,1.37-.28,2.32-.08.48-.24,1.24-.49,2.28-.64,2.66-.86,5.32-.65,7.96.04.51.27.92.69,1.21,4.77,3.34,9.31,6.97,13.63,10.89,5.95,5.41,11.2,11.43,15.76,18.06l-.3.48-3.46-.1c-.1,0-.18.08-.18.19,0,0,0,0,0,0l-.02,42.45c0,.4.13.82.39,1.24l3.19,5.12c.67,1.52,1.46,2.99,2.35,4.39.36.56.54.54.54-.07.04-16.17.01-32.35-.09-48.52,0-.02-.04-.27-.13-.77-.06-.36.07-.68.39-.94,3.31,5.4,6.17,11.04,8.57,16.9l.1,40.01s.03.13.08.3c.01.05.02.11.01.17-1.52,2.67-3.13,5.22-4.84,7.66-.08.12-.15.11-.2-.03-3.21-8.93-7.47-17.29-12.78-25.07-1.31-1.91-2.48-3.43-3.52-4.54-1.31-1.41-2.73-2.7-4.28-3.87-.83-.63-1.72-1.17-2.64-1.62-.3-.15-1.26-.5-2.89-1.08-1.6-.56-3.13-1.28-4.6-2.14-.08-.05-.18-.12-.29-.2-.47-.38-.58-.25-.31.39-.28,1.32,0,2.41.82,3.29,1.18,1.25,2.65,2.28,4.41,3.09,1.11.51,1.83.89,2.16,1.13.66.49,1.25,1.06,1.77,1.72.76.97,1.66,1.8,2.69,2.47.42.27.88.4,1.37.39.32.35.6.73.85,1.13.3.49.29.61-.03.38-.14-.1-.36-.32-.65-.66-.08-.1-.19-.17-.31-.21-.65-.2-1.33-.44-2.05-.71-1.08-.41-2.13-.35-3.14.18-.63-.35-1.17-.36-1.63-.05-.37.25-.59.66-.66,1.24-.18,1.34.36,2.42,1.61,3.23.72.47,1.32.81,1.79,1.04.04.02.04.04,0,.06-.04.02-.06.04-.07.08-1.05-.29-2.09-.24-3.1.12-1.21.04-1.81.63-1.78,1.77.04,1.84,1,2.99,2.9,3.47.18.23.12.34-.17.34-.88,0-1.73.18-2.54.52-1.17.74-1.5,1.79-.97,3.15.38.98,1.01,1.91,1.9,2.78.15.14.12.22-.09.23-1.02.05-1.54.44-1.55,1.17-.04,1.9.42,3.68,1.37,5.32,1.77,3.06,4.11,5.61,7,7.64.92.65,1.65,1.52,2.17,2.63,1.61,3.39,2.63,5.54,3.04,6.46-2.66,2.38-5.5,4.51-8.54,6.38-.01-.39-.11-.83-.3-1.31-1.83-4.81-2.71-9.84-2.66-15.09,0-.12-.04-.24-.12-.33-2.1-2.56-3.46-5.45-4.07-8.66-.18-.92-.22-1.77-.14-2.55.08-.77.24-1.61.48-2.53.04-.14.02-.3-.06-.42-1.28-2.22-1.14-4.24.43-6.04.08-.09.1-.21.07-.32-.36-1.35-.35-2.79.02-4.31.05-.18-.01-.23-.17-.15l-1.96.99c-7.33,2.65-14.66,5.26-22.01,7.85-.04.01-.08.02-.11.02m-3.09-108.59c-3.29-1.14-6.68-1.29-10.18-.44-4.75,1.15-8.57,3.69-11.45,7.61-1.66,2.25-3.1,4.78-4.34,7.6-4.41,10.02-11.78,16.98-22.09,20.88-.56.21-.58.33-.08.36.08,0,.16-.01.24-.04,1.46-.55,2.92-1.12,4.38-1.69,7.82-3.09,14.09-8.11,18.82-15.05.65-.95,2.43-3.47,5.34-7.54.64-.89,1.24-1.67,1.8-2.31.63-.74,1.28-1.47,1.95-2.18,2.01-2.15,4.35-3.86,7-5.13,3.48-1.68,7.06-1.93,10.75-.75.1.03.21-.01.27-.11.57-.91,1.32-1.63,2.26-2.17,2.91-1.66,5.84-1.69,8.8-.1,1.37.74,2.37,1.77,3,3.11.94,2,1.14,4.12.59,6.36-.55,2.22-1.54,4.21-2.99,5.96-.1.12-.07.18.07.17.17-.01.37-.11.59-.28,1.72-1.36,2.9-2.96,3.55-4.8.64-1.84.73-3.73.25-5.69-.5-2.04-1.59-3.74-3.28-5.1-2.07-1.66-4.47-2.61-7.22-2.87-1.5-.14-2.68-.13-3.54.03-1.21.22-2.3.77-3.27,1.64-.66.59-.95,1.35-.88,2.27,0,.14-.1.27-.24.28-.04,0-.07,0-.1-.01Zm-8.96,30.11c-1.5,1.9-2.89,3.39-4.15,4.47-.95.81-3.14,2.5-6.57,5.07-.27.2-.7.61-1.29,1.23-.31.19-.54.44-.67.77l-.64.45-1.33,1.24c-.54.43-.97.93-1.3,1.52-.05.09-.02.21.08.26.64.38,1.21.96,1.71,1.73.06.09.03.2-.06.26,0,0-.01,0-.02.01-.69.34-1.3.7-1.82,1.09-.5.38-.98.89-1.42,1.54-2.14,3.15-3.18,6.67-3.14,10.58.03,1.88.41,3.67,1.16,5.38.69,1.57,1.61,2.68,2.78,3.33,1.28.71,2.69.82,4.23.33,1.51-.49,2.69-1.27,3.55-2.35,1.11-1.06,1.92-2.2,2.42-3.42,1.97-4.79,1.61-9.43-1.08-13.92-.86-1.44-2.04-2.48-3.56-3.13-.1-.04-.15-.17-.1-.28,0,0,0,0,0-.01l.73-1.42c1.84.68,3.32,1.83,4.42,3.45,1.33,1.95,2.25,4.08,2.73,6.4.26,1.21.72,2.24,1.39,3.08,1.39,1.73,3.05,3.18,5,4.35.6.36,1.94,1.06,4.01,2.1,1.19.6,2.56,1.25,4.1,1.95,2.24,1.02,4.47,1.67,6.69,1.94,1.81.22,3.51-.08,5.11-.9.05-.03.08-.06.09-.09,0-.05-.03-.08-.12-.12,1.65-.15,2.83-.85,3.54-2.1.41-.71.57-1.55.5-2.51-.07-.88-.28-1.73-.63-2.56-.55-1.31-.27-2.46.85-3.44.25-.21.21-.36-.11-.43-.94-.22-1.86-.57-2.78-1.04-.53-.27-1.33-.83-2.41-1.66-1.04-.8-2.11-1.55-3.23-2.25-.11-.07-.1-.11.02-.14,1.86-.49,3.57-1.27,5.14-2.35.9-.63,1.54-1.03,1.9-1.2.65-.3,1.36-.57,2.13-.79.13-.04.21-.18.17-.31,0,0,0,0,0,0-.15-.46-.24-.89-.28-1.3-.1-1.01.31-1.67,1.24-1.98,1.25-.41,2.18-1.15,2.78-2.22.33-.58.41-1.13.26-1.65-.16-.55-.51-1.04-1.05-1.46-2.08-1.61-4.29-3.66-6.62-6.15-.23-.24-.5-.69-.82-1.34-.23-.47-.34-.96-.32-1.49.03-.92.12-2.35.27-4.29.12-1.55-.14-3.28-.76-5.21-1.72-5.29-4.8-9.62-9.22-12.98-.71-.54-1.3-.77-1.75-.69-2.34.43-4.2,1.61-5.57,3.54-1.02,1.44-1.73,3.01-2.1,4.68-.06.27-.19,1.74-.39,4.42-.32,4.24-1.54,8.23-3.67,11.97Zm-13.61,4.04c-1.46-.99-2.4-1.53-2.82-1.61-2.65-.53-4.06.53-4.23,3.19-.07,1.12.13,2.34.59,3.67.02.07.1.1.17.07.01,0,.02-.01.04-.02l3.68-3c.17-.14.2-.38.07-.55-.01-.01-.02-.03-.04-.04-.48-.45-.97-.68-1.46-.69-.52,0-.93.22-1.25.69-.33.49-.4,1.07-.21,1.74.07.24.04.4-.07.48-.06.05-.16.02-.21-.07-.01-.02-.02-.04-.02-.05-.34-1.21-.2-2.2.43-2.97.58-.7,1.3-.87,2.15-.5.5.22,1,.55,1.49.98.13.12.33.13.48.02l1.4-1.01c2.31-1.39,4.51-2.94,6.6-4.66,1.86-1.53,3.2-3.39,4.03-5.57.34-.9.6-2.11.76-3.62.14-1.23.25-2.47.34-3.7.2-2.75.94-5.33,2.2-7.76.08-.15.06-.2-.07-.13-.04.02-.08.06-.13.12-1.77,2.51-3.02,5.19-3.76,8.03-.6,2.32-1.06,3.88-1.36,4.69-1.43,3.83-3.6,7.17-6.51,10.01-.13.13-.5.52-1.1,1.16-.37.39-.76.75-1.19,1.07Zm47.09,23.84c1.61-1.24,3.06-2.65,4.37-4.22,1.85-2.22,2.96-4.69,3.35-7.4.34-2.37.09-4.67-.75-6.91-.85-2.25-2.21-4.23-4.08-5.92-1.51-1.37-2.77-2.58-3.79-3.63-1.38-1.43-2.42-3.12-3.13-5.08-.06-.16-.11-.24-.18-.25-.07-.01-.12.08-.12.2,0,.02,0,.05,0,.07.59,3.01,2.06,5.49,4.42,7.44,1.6,1.32,2.61,2.23,3.01,2.72,3.36,4.1,4,8.67,1.92,13.71-1.86,4.5-4.55,8.35-8.09,11.53-.07.06-.11.14-.12.22,0,.15.06.17.2.06.51-.41,1-.84,1.48-1.28.46-.42.96-.84,1.49-1.25Zm-43.92-24.16c.52-.51.47-.57-.14-.18-3.44,2.23-6.81,4.89-10.1,7.97-5.76,5.4-8.41,12.11-7.95,20.12.02.29,0,.62-.03,1-.04.37-.05.7-.06,1-.03,4.69-1.97,8.24-5.85,10.65-3.39,2.11-7.15,2.8-11.27,2.08-.06-.01-.12-.02-.17-.01-.34.03-.34.11.02.24,1.59.56,3.22.87,4.87.92,1.62.05,3.24-.16,4.84-.64,4.49-1.34,7.35-4.31,8.57-8.91.26-.97.38-2.26.37-3.87-.01-2.3.06-4.05.21-5.27.35-2.77,1.36-5.67,3.02-8.71,1.71-3.14,3.28-5.49,4.71-7.04,2.88-3.13,5.87-6.24,8.97-9.35Zm38.32,16.16c.2.12.37.27.5.44.16.2.45.24.65.08.03-.02.05-.05.07-.07,1.47-1.78,1.29-2.7-.55-2.74-.67-.02-1.35.1-2.04.35-.93.34-1.79.83-2.58,1.47-.63.51-1.3.94-2.02,1.3-.08.04-.13.1-.14.17-.02.12.04.14.16.09,1.69-.79,3.47-1.2,5.32-1.23.25,0,.45.04.62.15Zm-6.35,2.1c2.06,1.35,4.34,2.27,6.84,2.76.27.05.54-.11.63-.37.16-.49.12-.94-.11-1.36-.87-1.55-2.2-2.12-4-1.71-1.02.23-2.13.39-3.31.48-.21.02-.22.08-.05.2Zm27.14,35.07c1.25,1.28,2.41,2.59,3.48,3.92.11.13.16.12.16-.05l-.02-39.13c0-.11-.08-.19-.18-.19l-4.51-.05c-.15,0-.28.12-.28.27h0c-.12,11.26-.11,22.51.02,33.74,0,.13.04.25.12.34.16.2.33.37.53.54.39.33.62.53.7.61Zm-15.31-7.96c.16-.13.32-.14.48-.03.6.4,1.12.76,1.56,1.1.31.24.38.19.21-.17-1.78-3.68-2.34-7.49-1.68-11.42.5-2.99,1.57-5.77,3.2-8.32.21-.34.39-.69.52-1.06.96-.72.9-.98-.17-.8-.2.03-.39.04-.57.01-.21-.03-.42-.06-.63-.09-.12-.02-.23.03-.3.12-1.8,2.48-3.17,5.18-4.12,8.09-.68,2.07-1,4.2-.97,6.38.03,2.23.65,4.28,1.85,6.14.26.4.47.42.62.06Zm-58.92.42c-.09.07-.14.16-.15.28-.02.17-.03.26-.04.29-1.73,5.32-5.15,9.12-10.27,11.41-4.82,2.15-9.51,2.03-14.07-.37-.35-.18-.7-.42-1.06-.72-.33-.28-.66-.55-.99-.83-.5-.41-.59-.37-.26.13.04.05.08.1.13.15,2.35,2.22,5.1,3.74,8.24,4.56,3,.79,5.91.8,8.71.03,2.63-.72,4.76-1.95,6.41-3.71,1.94-2.07,3.04-4.7,3.3-7.88.15-1.85.24-3.04.26-3.57,0-.08-.01-.09-.05-.02l-.03.06c-.06.11-.1.17-.12.19Zm-34.26,15.29c1.79,1.55,3.9,2.58,6.34,3.09,1.18.25,2.35.41,3.51.51,1.15.09,2.34.07,3.57-.08.33-.04.33-.06,0-.06-4.23-.04-8.01-1.19-11.35-3.45-3.43-2.32-5.19-5.57-5.31-9.75,0-.04-.01-.08-.03-.11-.02-.04-.03-.08-.05-.11-.05-.11-.08-.11-.1.01-.68,4.09.46,7.41,3.41,9.96Zm5.46,31.33c0-.05-.04-.1-.1-.1h-.05c-.05,0-.1.04-.1.1h0s-.09,6.7-.09,6.7c0,.05.04.1.1.1h.05c.05,0,.1-.04.1-.1l.09-6.7Z"/>
      <path class="cls-19" d="m105.71,24.12c.13.05.28-.02.33-.16.01-.03.02-.07.01-.11-.07-.93.22-1.68.88-2.27.97-.87,2.06-1.42,3.27-1.64.86-.16,2.04-.16,3.54-.03,2.75.25,5.15,1.21,7.22,2.87,1.69,1.36,2.79,3.06,3.28,5.1.48,1.96.39,3.85-.25,5.69-.65,1.84-1.83,3.44-3.55,4.8-.22.18-.42.27-.59.28-.15.01-.17-.05-.07-.17,1.44-1.76,2.44-3.74,2.99-5.96.55-2.24.35-4.36-.59-6.36-.63-1.33-1.63-2.37-3-3.11-2.95-1.59-5.88-1.56-8.8.1-.94.53-1.7,1.26-2.26,2.17-.06.09-.17.14-.27.11-3.69-1.18-7.27-.93-10.75.75-2.65,1.28-4.98,2.99-7,5.13-.67.71-1.32,1.44-1.95,2.18-.56.65-1.15,1.42-1.8,2.31-2.91,4.08-4.7,6.59-5.34,7.54-4.73,6.94-11,11.95-18.82,15.05-1.45.58-2.91,1.14-4.38,1.69-.08.03-.16.04-.24.04-.51-.03-.48-.15.08-.36,10.31-3.9,17.67-10.86,22.09-20.88,1.24-2.82,2.69-5.35,4.34-7.6,2.88-3.92,6.7-6.46,11.45-7.61,3.5-.85,6.89-.7,10.18.44Z"/>
      <path class="cls-14" d="m119.66,91.13c-2.76-.07-5.29-.48-7.61-1.24-2.41-.79-4.83-1.81-7.26-3.06-2.7-1.39-4.67-2.74-5.91-4.04-1.63-1.7-2.88-3.8-3.76-6.31-1.53-4.34-2.19-8.53-1.99-12.57.03-.51.1-.96.21-1.36.14-.5.31-.93.51-1.28,1.19-2.14,2.12-4.18,2.78-6.13.1-.3.14-.6.11-.92,2.13-3.74,3.36-7.73,3.67-11.97.2-2.68.33-4.16.39-4.42.38-1.68,1.08-3.24,2.1-4.68,1.37-1.93,3.23-3.11,5.57-3.54.46-.08,1.04.15,1.75.69,4.42,3.36,7.5,7.68,9.22,12.98.63,1.93.88,3.66.76,5.21-.15,1.94-.24,3.37-.27,4.29-.02.52.09,1.02.32,1.49.32.65.59,1.1.82,1.34,2.34,2.48,4.54,4.53,6.62,6.15.54.42.89.91,1.05,1.46.15.52.06,1.07-.26,1.65-.6,1.07-1.53,1.82-2.78,2.22-.93.3-1.34.96-1.24,1.98.04.41.13.84.28,1.3.04.13-.03.27-.16.31,0,0,0,0,0,0-.76.22-1.47.49-2.13.79-.36.17-1,.57-1.9,1.2-1.56,1.08-3.28,1.87-5.14,2.35-.12.03-.13.08-.02.14,1.11.69,2.19,1.44,3.23,2.25,1.08.83,1.89,1.39,2.41,1.66.91.47,1.84.82,2.78,1.04.32.07.35.22.11.43-1.12.98-1.41,2.12-.85,3.44.35.83.56,1.68.63,2.56.08.96-.09,1.79-.5,2.51-.71,1.25-1.89,1.95-3.54,2.1Zm-8.96-46.03c.94.43,1.82.97,2.64,1.64.81.66,1.7,1.18,2.67,1.57.53.21.93.07,1.21-.43.43-.77.36-1.5-.18-2.2-.46-.59-1.02-1.06-1.67-1.42-1.16-.64-2.38-1.12-3.64-1.43-1.37-.34-2.66-.4-3.85-.19-1.82.32-3.48,1.16-4.99,2.51-1.13,1.01-1.99,1.96-2.58,2.84-.03.04-.07.08-.11.12-.16.13-.16.2,0,.19.07,0,.15-.04.2-.1,2.06-2.19,4.54-3.39,7.45-3.6,1.01-.07,1.97.1,2.87.51Zm-1.51,8.76c-.05.18-.16.33-.34.44-.44.28-.44.42.02.42.44,0,.89-.05,1.33-.13.12-.02.24.06.27.19,0,.02,0,.05,0,.07-.11.73.13.84.72.3.16-.14.42-.1.59.09,0,0,.01.02.02.03l.41.51c.06.07.17.07.25,0,0,0,.01,0,.01-.01.44-.43.85-.42,1.25.03.1.12.18.19.25.22.23.11.29-.05.18-.47-.05-.23-.02-.34.1-.35.07,0,.19.06.3.18.29.31.71.49,1.27.54,1.29.12,2.45-.19,3.5-.92.5-.35.46-.45-.14-.3-1.91.47-3.19-.16-3.84-1.91-.04-.1-.14-.17-.25-.16-2.22.2-4.42.05-6.6-.45-1.33-.31-2.67-.58-4.01-.8-.15-.03-.15,0-.02.06l4.59,2.19c.11.05.17.16.14.26Zm12.08,12.99c.36.27.73.3,1.13.09.29-.15.59-.28.91-.38.22-.07.54-.11.97-.11.39,0,.76-.06,1.13-.16.43-.12.63-.37.59-.74-.01-.11-.1-.2-.22-.22-1.09-.19-1.97.02-2.66.62-.72.64-1.34.54-1.88-.28-.22-.34-.35-.64-.39-.92-.02-.15-.1-.26-.18-.26-.08,0-.14.08-.17.22-.22.87.03,1.58.75,2.13Z"/>
      <path class="cls-6" d="m59.94,32.26c-.07.19-.33.49-.77.9-4.15,3.86-7.47,8.61-9.97,14.24-2.94,6.63-3.96,13.57-3.07,20.81.37,2.96.95,5.87,1.76,8.74,1.06,3.79,1.79,6.47,2.19,8.07.46,1.84.63,3.78.51,5.82-.15,2.59-1.05,4.71-2.71,6.35-.93.92-2.35,1.73-4.26,2.43-2.41.88-4.89,1.55-7.43,2.02-3.44-5.42-6.11-11.33-8.02-17.72-2.65-8.84-3.92-17.77-3.83-26.78,0-.37-.03-.62-.09-.77.38-.9,1.09-2.18,2.14-3.86,4.54-7.25,9.83-13.51,15.88-18.76.03.44.28.6.75.48,4.47-1.12,9.02-1.72,13.63-1.78,1.1-.02,2.19-.08,3.29-.18Z"/>
      <path class="cls-7" d="m83.32,58.62c-.02-.14-.08-.25-.19-.35.43-.32.83-.68,1.19-1.07.6-.65.97-1.04,1.1-1.16,2.9-2.84,5.07-6.18,6.51-10.01.3-.81.75-2.37,1.36-4.69.74-2.84,1.99-5.52,3.76-8.03.05-.06.09-.1.13-.12.12-.07.15-.02.07.13-1.26,2.43-1.99,5.02-2.2,7.76-.09,1.23-.2,2.47-.34,3.7-.17,1.51-.42,2.71-.76,3.62-.83,2.18-2.17,4.04-4.03,5.57-2.08,1.72-4.28,3.27-6.6,4.66Z"/>
      <path class="cls-8" d="m107.82,44.59c-2.91.21-5.39,1.41-7.45,3.6-.06.06-.13.1-.2.1-.16,0-.16-.06,0-.19.05-.04.09-.08.11-.12.59-.88,1.45-1.83,2.58-2.84,1.51-1.35,3.17-2.18,4.99-2.51,1.19-.21,2.48-.14,3.85.19,1.27.31,2.48.79,3.64,1.43.65.36,1.21.84,1.67,1.42.55.7.61,1.43.18,2.2-.28.5-.68.64-1.21.43-.97-.39-1.86-.91-2.67-1.57-.82-.66-1.7-1.21-2.64-1.64-.9-.41-1.86-.58-2.87-.51Z"/>
      <path class="cls-5" d="m128.74,83.36c-.48.44-.97.87-1.48,1.28-.14.11-.2.09-.2-.06,0-.07.04-.15.12-.22,3.54-3.18,6.23-7.03,8.09-11.53,2.08-5.04,1.44-9.61-1.92-13.71-.4-.49-1.4-1.39-3.01-2.72-2.36-1.95-3.84-4.43-4.42-7.44-.02-.12,0-.24.07-.26.01,0,.02,0,.04,0,.06.01.12.1.18.25.71,1.96,1.75,3.65,3.13,5.08,1.01,1.05,2.28,2.26,3.79,3.63,1.87,1.7,3.23,3.67,4.08,5.92.85,2.24,1.1,4.54.75,6.91-.39,2.71-1.51,5.17-3.35,7.4-1.3,1.57-2.76,2.97-4.37,4.22-.53.41-1.03.83-1.49,1.25Z"/>
      <path class="cls-16" d="m109.04,53.6l-4.59-2.19c-.13-.06-.12-.08.02-.06,1.34.23,2.68.5,4.01.8,2.18.5,4.38.65,6.6.45.11-.01.21.05.25.16.65,1.75,1.93,2.38,3.84,1.91.6-.15.64-.05.14.3-1.05.73-2.21,1.03-3.5.92-.55-.05-.97-.23-1.27-.54-.11-.12-.23-.19-.3-.18-.12.01-.15.13-.1.35.1.43.04.59-.18.47-.07-.03-.15-.1-.25-.22-.4-.45-.81-.46-1.25-.03-.08.07-.19.08-.25.02,0,0,0,0-.01-.01l-.41-.51c-.16-.2-.43-.26-.6-.13,0,0-.01.01-.02.02-.59.53-.83.43-.72-.3.02-.13-.07-.24-.19-.26-.02,0-.05,0-.07,0-.45.08-.89.12-1.33.13-.45,0-.46-.13-.02-.42.18-.11.29-.26.34-.44.03-.1-.03-.2-.14-.26Z"/>
      <path class="cls-17" d="m96.75,54.23c.03.32,0,.62-.11.92-.66,1.95-1.59,3.99-2.78,6.13-.2.36-.37.78-.51,1.28-.12.4-.19.85-.21,1.36-.2,4.04.46,8.24,1.99,12.57.88,2.5,2.13,4.6,3.76,6.31,1.24,1.3,3.21,2.64,5.91,4.04,2.43,1.25,4.85,2.27,7.26,3.06,2.31.76,4.85,1.17,7.61,1.24.09.03.13.07.12.12,0,.03-.03.06-.09.09-1.6.82-3.3,1.12-5.11.9-2.22-.27-4.45-.92-6.69-1.94-1.54-.7-2.9-1.35-4.1-1.95-2.07-1.04-3.41-1.75-4.01-2.1-1.94-1.16-3.61-2.61-5-4.35-.67-.84-1.14-1.87-1.39-3.08-.49-2.32-1.4-4.45-2.73-6.4-1.11-1.62-2.58-2.77-4.42-3.45-.11-.43-.17-.87-.18-1.31,0-.34-.02-.3-.04.13,0,.08,0,.08-.01,0-.03-.41-.11-.81-.23-1.21,0-.02-.05-.25-.13-.69-.07-.35-.28-.61-.64-.79-.07-.08-.16-.11-.28-.09.6-.62,1.03-1.03,1.29-1.23,3.43-2.57,5.62-4.26,6.57-5.07,1.27-1.08,2.65-2.57,4.15-4.47Z"/>
      <path class="cls-23" d="m24.26,56.36c.07.14.1.4.09.77-.1,9.02,1.18,17.94,3.83,26.78,1.91,6.39,4.58,12.3,8.02,17.72-2.62.79-4.87,1.77-6.75,2.93-2.4,1.49-4.25,3.62-5.54,6.38-1.17,2.51-1.42,5.08-.73,7.71.5,1.9,1.41,3.55,2.75,4.94,1.35,1.41,2.99,2.45,4.94,3.14,1.46.52,2.93,1.04,4.39,1.57.51.19.94.41,1.31.67.39.28.63.67.73,1.18.26,1.38-.25,2.06-1.54,2.04-.12,0-.82-.13-2.1-.39-3.97-.8-7.04.57-9.19,4.12-6.43-11.58-9.87-24.01-10.34-37.29-.51-14.65,2.66-28.48,9.52-41.48.19-.36.4-.62.63-.79Z"/>
      <path class="cls-1" d="m83.13,58.27c.11.1.17.21.19.35l-1.4,1.01c-.15.11-.35.1-.48-.02-.49-.44-.99-.77-1.49-.98-.86-.37-1.57-.2-2.15.5-.63.77-.77,1.76-.43,2.97.03.09.11.16.19.14.02,0,.03,0,.04-.02.12-.08.14-.24.07-.48-.19-.67-.12-1.25.21-1.74.32-.47.74-.7,1.25-.69.49,0,.98.24,1.46.69.15.14.16.39,0,.55-.01.01-.03.03-.04.04l-3.68,3c-.06.04-.14.04-.18-.02,0-.01-.01-.02-.02-.03-.46-1.33-.66-2.55-.59-3.67.16-2.66,1.57-3.72,4.23-3.19.42.09,1.36.62,2.82,1.61Z"/>
      <path class="cls-7" d="m86.31,57.94c-3.1,3.1-6.1,6.22-8.97,9.35-1.43,1.55-3,3.9-4.71,7.04-1.66,3.04-2.66,5.94-3.02,8.71-.16,1.22-.23,2.98-.21,5.27,0,1.61-.12,2.9-.37,3.87-1.22,4.6-4.08,7.57-8.57,8.91-1.6.48-3.22.69-4.84.64-1.66-.05-3.28-.36-4.87-.92-.35-.13-.36-.2-.02-.24.05,0,.11,0,.17.01,4.12.72,7.88.03,11.27-2.08,3.87-2.41,5.82-5.96,5.85-10.65,0-.3.02-.64.06-1,.04-.38.05-.71.03-1-.46-8.02,2.19-14.72,7.95-20.12,3.29-3.08,6.66-5.74,10.1-7.97.61-.4.66-.34.14.18Z"/>
      <path class="cls-3" d="m121.27,66.85c-.72-.55-.97-1.26-.75-2.13.04-.15.09-.22.17-.22.08,0,.16.11.18.26.04.28.17.58.39.92.54.83,1.16.92,1.88.28.68-.61,1.57-.82,2.66-.62.12.02.21.11.22.22.04.37-.16.61-.59.74-.37.11-.75.16-1.13.16-.43,0-.75.04-.97.11-.32.1-.62.23-.91.38-.4.21-.77.18-1.13-.09Z"/>
      <path class="cls-2" d="m84.73,65c.12-.02.22.01.28.09-.22,0-.33.1-.32.3.01.2.01.33,0,.37-.05.17-.12.33-.23.48-.09-.19-.23-.35-.41-.47.14-.33.36-.58.67-.77Z"/>
      <path class="cls-21" d="m85.01,65.09c.36.18.57.44.64.79.08.44.13.67.13.69.12.39.2.79.23,1.21,0,.08,0,.07.01,0,.02-.43.03-.47.04-.13.01.45.07.88.18,1.31l-.73,1.42c-.05.11-.02.23.08.28,0,0,0,0,.01,0,1.51.65,2.7,1.7,3.56,3.13,2.68,4.49,3.04,9.13,1.08,13.92-.5,1.21-1.31,2.35-2.42,3.42-.28-.06-.51-.02-.69.13-.26.21-.39.32-.41.33-2.25,1.19-4.22,1.21-5.92.06-1.33-.9-2.3-2.34-2.92-4.33-.92-2.98-.66-6.16.77-9.55.13-.29.22-.59.29-.9.05-.2.18-.3.41-.32-.55,2.1-.53,4.09.04,5.99.34,1.13,1,1.97,1.96,2.54.75.44,1.52.59,2.32.44.84-.15,1.57-.56,2.2-1.24.67-.72,1.16-1.54,1.49-2.47,1.21-2.93,1.03-5.67-.56-8.23-.41-.65-.84-1.14-1.29-1.47-.6-.44-1.24-.65-1.92-.63-.39.01-.52-.1-.41-.33.07-.13.1-.25.09-.35-.14-1.21-.54-2.33-1.19-3.36l1.33-1.24c.15.02.24.08.28.18.08.19.13.29.16.32.37.34.57.18.61-.49.11-.15.18-.31.23-.48.01-.04.01-.17,0-.37-.01-.19.1-.29.32-.3Z"/>
      <path class="cls-12" d="m84.06,65.77c.18.12.31.28.41.47-.04.67-.24.83-.61.49-.03-.03-.08-.13-.16-.32-.04-.1-.13-.16-.28-.18l.64-.45Z"/>
      <path class="cls-22" d="m82.09,67.46c.66,1.03,1.05,2.15,1.19,3.36,0,.09-.02.21-.09.35-.12.23.02.34.41.33.68-.02,1.32.19,1.92.63.45.33.88.82,1.29,1.47,1.59,2.55,1.77,5.29.56,8.23-.11-.56-.12-1.12-.02-1.69.35-2.13-.04-4.1-1.15-5.9-1.27-2.07-2.87-2.33-4.78-.78-.78.63-1.47,1.67-2.06,3.12-.23.01-.37.12-.41.32-.07.31-.17.61-.29.9-1.44,3.39-1.7,6.57-.77,9.55.62,1.99,1.59,3.43,2.92,4.33,1.7,1.15,3.68,1.13,5.92-.06.02-.01.16-.12.41-.33.18-.15.41-.19.69-.13-.85,1.08-2.04,1.87-3.55,2.35-1.54.5-2.95.39-4.23-.33-1.16-.65-2.09-1.76-2.78-3.33-.75-1.71-1.14-3.5-1.16-5.38-.05-3.9,1-7.43,3.14-10.58.44-.65.92-1.16,1.42-1.54.52-.39,1.13-.75,1.82-1.09.1-.05.14-.16.09-.25,0,0,0-.01-.01-.02-.5-.77-1.07-1.35-1.71-1.73-.09-.05-.13-.17-.08-.26.33-.59.77-1.1,1.3-1.52Z"/>
      <path class="cls-7" d="m124,73.96c-1.85.04-3.63.45-5.32,1.23-.12.06-.17.03-.16-.09,0-.07.06-.13.14-.17.72-.36,1.39-.79,2.02-1.3.79-.64,1.65-1.13,2.58-1.47.68-.25,1.36-.37,2.04-.35,1.84.04,2.02.96.55,2.74-.16.2-.46.23-.65.06-.03-.02-.05-.05-.07-.07-.13-.17-.3-.32-.5-.44-.17-.1-.38-.15-.62-.15Z"/>
      <path class="cls-11" d="m87.37,81.82c-.33.93-.82,1.75-1.49,2.47-.63.68-1.36,1.09-2.2,1.24-.8.15-1.57,0-2.32-.44-.97-.57-1.62-1.41-1.96-2.54-.57-1.89-.58-3.89-.04-5.99.59-1.45,1.28-2.49,2.06-3.12,1.92-1.55,3.51-1.29,4.78.78,1.11,1.81,1.5,3.78,1.15,5.9-.1.57-.09,1.13.02,1.69Zm-5.18,2.94c1.66.15,3.25-2.24,3.54-5.34.29-3.1-.83-5.75-2.49-5.9-1.66-.15-3.25,2.24-3.54,5.34-.29,3.1.83,5.75,2.49,5.9Z"/>
      <ellipse class="cls-19" cx="82.72" cy="79.14" rx="5.64" ry="3.03" transform="translate(-3.72 154.19) rotate(-84.7)"/>
      <path class="cls-19" d="m118.27,76.21c-.17-.11-.16-.18.05-.2,1.19-.09,2.29-.25,3.31-.48,1.8-.41,3.13.16,4,1.71.23.42.27.87.11,1.36-.09.27-.36.43-.63.37-2.5-.49-4.78-1.41-6.84-2.76Z"/>
      <path class="cls-13" d="m155.73,68.96c.23.27.56.34,1.02.21.35-.1.82-.07,1.39.08.1.03.18.13.18.26l.11,3.34c-.33.29-.46.64-.39,1.05.09.56.13.84.13.86.1,18.11.13,36.22.09,54.33,0,.68-.18.71-.54.08-.9-1.57-1.68-3.21-2.35-4.92.14-.21.03-.42,0-.65-.05-.35.08-.56.08-.58v-53.51l.3-.54Z"/>
      <path class="cls-15" d="m144.06,109.75c0-.4.01-2.44.01-2.63-.13-16.7-.14-33.43-.02-50.19,0-.23.13-.41.28-.41h0l4.51.07c.1,0,.18.13.18.28l.02,58.2c0,.25-.05.28-.16.08-1.48-1.71-1.51-1.74-2.96-3.34,0,0-1.15-1.1-1.75-1.69-.11-.11-.1-.29-.13-.38Z"/>
      <path class="cls-18" d="m155.6,125.36l-3.43-5.66c-.56-.74-.39-2.15-.39-2.64l.02-51.83c0-.13.08-.24.18-.24,0,0,0,0,0,0l3.46.12c0,19.46,0,38.86,0,58.32l.16,1.93Z"/>
      <path class="cls-26" d="m134.38,83.42c-.47-.11-.8-.04-1,.21-3.32,4.26-4.82,9.01-4.53,14.25.09,1.64.5,3.45,1.24,5.45-.16.36-.37.34-.62-.06-1.2-1.86-1.82-3.91-1.85-6.14-.03-2.18.3-4.31.97-6.38.95-2.91,2.33-5.61,4.12-8.09.07-.09.18-.14.3-.12.21.03.42.06.63.09.18.03.37.02.57-.01,1.07-.18,1.13.09.17.8Z"/>
      <path class="cls-22" d="m134.38,83.42c-.14.37-.31.72-.52,1.06-1.63,2.55-2.7,5.32-3.2,8.32-.66,3.94-.1,7.75,1.68,11.42.17.36.1.41-.21.17-.44-.34-.96-.7-1.56-1.1-.16-.11-.32-.1-.48.03-.73-1.99-1.14-3.81-1.24-5.45-.3-5.24,1.21-9.99,4.53-14.25.2-.25.53-.32,1-.21Z"/>
      <path class="cls-17" d="m103.23,94.51c-2.66-1.17-5.26-2.45-7.82-3.84-.95-.52-2.17-.78-3.64-.79l1.51-4.42c.08-.23.19-.25.34-.06.46.58,1,1.13,1.6,1.68.49.43,1.11.88,1.86,1.36,2.82,1.78,5.75,3.35,8.8,4.73.41.18.39.3-.05.36-.87.11-1.73.44-2.6,1Z"/>
      <path class="cls-17" d="m84.74,123.61c-1.42,3.77-5.33,8.21-9.72,10.73-.03.02-.08.04-.15.05-.12.03-.11.1,0,.21l-21.39,4.2c-.12.02-.23.09-.3.18-.39.52-.34.83.15.91.18.03.43.02.77-.04,6.61-1.16,13.22-2.29,19.83-3.38,2.49-.41,4.33-.66,5.54-.74,1.17.36,1.48,1.14.94,2.33-.97,2.14-2.36,4.1-4.16,5.89-3.89,3.85-6.85,7.66-8.87,11.41-1.57,2.93-3.06,5.39-4.46,7.37-1.46,2.08-3.37,3.83-5.73,5.28-.11.06-.23.09-.34.06-.55-.13-1.06-.37-1.52-.71,1.15-2.29,1.37-4.53.65-6.74-.83-2.56-2.37-6.27-4.6-11.15-.2-.44-.29-.42-.27.04,0,.06.01.13.03.2.93,3.88,1.67,7.51,2.23,10.89.3,1.78.32,3.62.08,5.54-2.95-1.75-5.73-3.72-8.36-5.92-.99-3.81-1.26-7.63-.79-11.45.33-2.73,1.06-4.95,2.18-6.64,1.44-2.17,3.45-3.81,6.04-4.91,2.75-1.17,5.5-2.34,8.25-3.5,1.69-.71,3.4-1.69,5.14-2.94,1.76-1.26,3.21-2.57,4.35-3.95,2.45-2.97,4.02-6.46,4.72-10.46.44-2.53.66-4.91.66-7.14v-17.59c0-.31.07-.32.21-.05.34.69.81,1.36,1.4,2.03,1.63,1.83,3.63,2.59,5.99,2.28,1.42-.19,2.89-.71,4.41-1.58.03.17-.06.42-.26.76-1.74,2.93-2.46,6.24-2.15,9.93,0,0,.93,14.83-.49,18.6Z"/>
      <path class="cls-25" d="m167,95.81c.25.47.39.76.43.87,2.87,7.82,5.11,15.83,6.7,24.01-1.67,5.48-3.99,10.68-6.95,15.59,0-.06,0-.11-.01-.17-.05-.17-.08-.27-.08-.3l-.1-40.01Z"/>
      <path class="cls-19" d="m71.29,103.55l.03-.06c.04-.07.05-.06.05.02-.02.53-.11,1.72-.26,3.57-.26,3.18-1.36,5.81-3.3,7.88-1.65,1.76-3.78,2.99-6.41,3.71-2.81.76-5.71.75-8.71-.03-3.14-.82-5.89-2.34-8.24-4.56-.05-.05-.09-.09-.13-.15-.33-.5-.24-.54.26-.13.33.28.66.55.99.83.36.3.71.54,1.06.72,4.56,2.4,9.25,2.53,14.07.37,5.12-2.29,8.54-6.09,10.27-11.41.01-.03.02-.13.04-.29.01-.12.06-.21.15-.28.03-.02.07-.08.12-.19Z"/>
      <path class="cls-1" d="m130.83,105.78c1.41,1.72,3.05,3.16,4.92,4.34,1.73,1.09,2.77,1.78,3.12,2.07,1.99,1.63,3.72,3.53,5.18,5.69-.5.01-.95-.12-1.37-.39-1.04-.67-1.93-1.49-2.69-2.47-.51-.66-1.1-1.23-1.77-1.72-.33-.24-1.04-.62-2.16-1.13-1.76-.81-3.23-1.85-4.41-3.09-.83-.88-1.11-1.98-.82-3.29Z"/>
      <path class="cls-5" d="m36.92,119.03c-2.95-2.56-4.09-5.88-3.41-9.96.02-.12.05-.12.1-.01.02.04.03.08.05.11.02.04.02.07.03.11.11,4.18,1.88,7.43,5.31,9.75,3.34,2.27,7.12,3.42,11.35,3.45.33,0,.33.02,0,.06-1.23.15-2.42.17-3.57.08-1.15-.09-2.32-.26-3.51-.51-2.44-.51-4.56-1.54-6.34-3.09Z"/>
      <path class="cls-17" d="m138.72,117.99c-.24.34-.24.68,0,1.03.4.6.82,1.19,1.24,1.77.57.78.81,1.53.74,2.25-.05.5-.37.68-.94.55.01-.04.04-.06.07-.08.05-.02.05-.04,0-.06-.48-.23-1.07-.57-1.79-1.04-1.26-.81-1.8-1.89-1.61-3.23.08-.58.3-.99.66-1.24.46-.32,1-.3,1.63.05Z"/>
      <path class="cls-1" d="m136.65,123.71c.2,1.18.51,2.34.92,3.47.21.58.27,1.17.19,1.78-1.89-.48-2.86-1.64-2.9-3.47-.02-1.14.57-1.73,1.78-1.77Z"/>
      <path class="cls-17" d="m139.39,165.57c-.46.6-.9.67-1.32.22-.31-.34-.47-.51-.49-.53-2.26-1.99-4.4-4.08-6.43-6.3-1.29-1.41-2.44-2.93-3.43-4.54-1.1-1.79-1.88-3.5-2.35-5.15-1.02-3.6-.81-7.16.63-10.67.42-1.03,1.03-2.15,1.83-3.37.92-1.41,1.73-2.41,2.41-3.01.59-.52.85-1.1.77-1.74-.23-1.88-.26-3.76-.09-5.64l1.96-.99c.16-.08.21-.03.17.15-.38,1.52-.38,2.96-.02,4.31.03.11,0,.23-.07.32-1.57,1.81-1.71,3.82-.43,6.04.07.13.09.28.06.42-.24.92-.4,1.76-.48,2.53-.08.78-.03,1.62.14,2.55.61,3.21,1.97,6.1,4.07,8.66.08.09.12.21.12.33-.06,5.26.83,10.29,2.66,15.09.19.49.28.92.3,1.31Z"/>
      <path class="cls-3" d="m97.29,132.31c.59-.7,1.13-1.19,1.62-1.47,1.33-.77,2.74-1.38,4.21-1.83,2.83-.87,5.66-1.76,8.48-2.66.46-.15.48-.09.07.17-1.89,1.18-3.86,2.22-5.9,3.12-.54.24-1.52.61-2.93,1.12-.99.36-1.96.74-2.93,1.15-1.4.6-2.44,1.58-3.1,2.94-.28.57-.43.54-.45-.1-.03-.86.28-1.68.92-2.44Z"/>
      <path class="cls-20" d="m135.06,129.82c.07,1.18.3,2.17.68,2.97.5,1.05.8,2.15.91,3.31.08.98.44,1.85,1.06,2.61,1.73,2.11,3.56,4.12,5.5,6.05,3.24,3.21,5.91,6.92,8.02,11.12.08.15.05.34-.06.47-1.03,1.18-2.1,2.13-3.23,2.85-.41-.91-1.43-3.07-3.04-6.46-.53-1.11-1.25-1.98-2.17-2.63-2.89-2.03-5.22-4.58-7-7.64-.95-1.64-1.41-3.42-1.37-5.32.02-.73.53-1.12,1.55-1.17.21,0,.23-.08.09-.23-.89-.87-1.52-1.8-1.9-2.78-.53-1.36-.2-2.41.97-3.15Z"/>
      <path class="cls-9" d="m79.47,135.73c-1.21.08-3.05.33-5.54.74-6.62,1.09-13.23,2.22-19.83,3.38-.34.06-.59.07-.77.04-.49-.08-.54-.39-.15-.91.07-.09.18-.16.3-.18l21.39-4.2c1.66-.25,3.31-.47,4.98-.67,1.22-.15,2.26-.02,3.14.38,1.4.64,1.99,1.7,1.75,3.18-.05.34-.18.37-.39.09-1.24-1.69-2.86-2.3-4.87-1.85Z"/>
      <path class="cls-16" d="m55.33,167.36l-1.88-1.22c.24-1.92.22-3.76-.08-5.54-.56-3.38-1.3-7.01-2.23-10.89-.02-.07-.02-.14-.03-.2-.02-.46.07-.48.27-.04,2.23,4.87,3.76,8.59,4.6,11.15.72,2.2.5,4.45-.65,6.74Z"/>
      <rect class="cls-12" x="38.75" y="153.58" width="6.9" height=".25" rx=".1" ry=".1" transform="translate(-112.08 193.76) rotate(-89.2)"/>
      <path class="cls-17" d="m93.56,166.03l-4.02,3.25c-.19.15-.28.11-.26-.13.17-2.32.76-4.38,1.77-6.18.2-.36.31-.67.33-.94.01-.14-.03-.15-.12-.04-.95,1.14-1.86,2.32-2.73,3.53-1.37,1.92-2.1,4.05-2.19,6.37-.02.57-.13,1.03-.33,1.39-.22.4-.49.81-.81,1.22-.54.71-1.08,1.58-1.6,2.61-.57.03-.99-.02-1.27-.16-.33-.17-.52-.53-.47-.89.46-3.26,1.63-6.09,3.53-8.5,4.15-5.27,8.45-10.41,12.9-15.43.09-.1.1-.09.05.03-.82,1.92-1.63,3.84-2.43,5.77-1.08,2.62-1.87,5.32-2.35,8.11Z"/>
      <path class="cls-16" d="m131.49,169.91c-5.73-5.19-12.34-7.68-19.83-7.47-2.47.07-4.93.46-7.4,1.16-7.18,2.06-13,6.23-17.45,12.51-.3.42-.49.89-.58,1.4l-2.63-.41c.52-1.03,1.05-1.91,1.6-2.61.32-.41.59-.82.81-1.22.2-.36.3-.82.33-1.39.09-2.33.82-4.45,2.19-6.37.86-1.21,1.77-2.38,2.73-3.53.09-.11.13-.1.12.04-.02.27-.13.58-.33.94-1,1.8-1.59,3.85-1.77,6.18-.02.24.07.28.26.13l4.02-3.25c4.83-3.26,9.85-5.19,15.05-5.78,9.71-1.12,18.05,1.66,25.01,8.34.06.06.06.15.01.2-.01.01-.02.02-.04.03l-2.1,1.09Z"/>
      <path class="cls-6" d="m131.49,169.91c-8.07,4.06-16.8,6.62-26.2,7.68-6.65.75-13,.73-19.06-.08.09-.51.28-.98.58-1.4,4.45-6.28,10.27-10.45,17.45-12.51,2.47-.7,4.93-1.09,7.4-1.16,7.49-.21,14.1,2.28,19.83,7.47Z"/>
      <path class="cls-24" d="m155.73,75.44c-6.11-9.1-9.81-12.65-15.76-18.06-4.31-3.92-8.85-7.55-13.63-10.89-.42-.3-.65-.7-.69-1.21-.21-2.64.01-5.29.65-7.96.25-1.04.42-1.8.49-2.28.15-.95.24-1.73.28-2.32.3-4.85-1.36-8.67-4.98-11.45-3.03-2.34-6.48-3.6-10.33-3.78-2.66-.12-5.07.57-7.21,2.08-.1.07-.23.1-.35.07-2.71-.6-5.42-.95-8.12-1.04-2.33-.08-4.82.07-7.48.45-10.8,1.54-20.35,5.94-28.66,13.22-1.09.11-2.19.17-3.29.18-4.61.07-9.16.66-13.63,1.78-.48.12-.73-.04-.75-.48,16.06-13.74,34.62-20.39,55.7-19.96,2.57.05,5.07.21,7.49.48,12.05,1.34,23.18,5.2,33.37,11.57,8.13,5.08,15.24,11.43,21.33,19.04,1.57,1.97,3.04,3.99,4.41,6.07,9.44,14.39,13.87,30.47,13.3,48.24-.25,7.6-1.49,14.77-3.74,21.5-1.59-8.18-3.83-16.19-6.7-24.01-.04-.11-.18-.4-.43-.87,0,0-3.85-10.54-11.27-20.37Z"/>
    </g>
  </g>
</svg>